Asap-Bold.ufo
<glyph name="exclam" format="2">
  <advance width="294"/>
  <unicode hex="0021"/>
  <outline>
    <contour>
      <point x="145" y="222" type="curve"/>
      <point x="156" y="222" type="line" smooth="yes"/>
      <point x="197" y="222"/>
      <point x="204" y="233"/>
      <point x="207" y="254" type="curve"/>
      <point x="224" y="394"/>
      <point x="240" y="534"/>
      <point x="257" y="674" type="curve"/>
      <point x="257" y="692"/>
      <point x="236" y="702"/>
      <point x="197" y="702" type="curve" smooth="yes"/>
      <point x="154" y="702" type="line" smooth="yes"/>
      <point x="112" y="702"/>
      <point x="94" y="691"/>
      <point x="94" y="670" type="curve" smooth="yes"/>
      <point x="94" y="254" type="line" smooth="yes"/>
      <point x="94" y="233"/>
      <point x="104" y="222"/>
    </contour>
    <contour>
      <point x="134" y="-2" type="curve" smooth="yes"/>
      <point x="166" y="-2" type="line" smooth="yes"/>
      <point x="208" y="-2"/>
      <point x="226" y="9"/>
      <point x="226" y="30" type="curve" smooth="yes"/>
      <point x="226" y="122" type="line" smooth="yes"/>
      <point x="226" y="143"/>
      <point x="208" y="154"/>
      <point x="166" y="154" type="curve" smooth="yes"/>
      <point x="134" y="154" type="line" smooth="yes"/>
      <point x="92" y="154"/>
      <point x="74" y="143"/>
      <point x="74" y="122" type="curve" smooth="yes"/>
      <point x="74" y="30" type="line" smooth="yes"/>
      <point x="74" y="9"/>
      <point x="92" y="-2"/>
    </contour>
  </outline>
</glyph>
<glyph name="numbersign" format="2">
  <advance width="534"/>
  <unicode hex="0023"/>
  <outline>
    <contour>
      <point x="97" y="-2" type="curve" smooth="yes"/>
      <point x="110" y="-2" type="line" smooth="yes"/>
      <point x="143" y="-2"/>
      <point x="161" y="8"/>
      <point x="165" y="29" type="curve" smooth="yes"/>
      <point x="194" y="183" type="line"/>
      <point x="288" y="183" type="line"/>
      <point x="262" y="42"/>
      <point x="258" y="27"/>
      <point x="258" y="21" type="curve" smooth="yes"/>
      <point x="258" y="4"/>
      <point x="272" y="-2"/>
      <point x="304" y="-2" type="curve" smooth="yes"/>
      <point x="317" y="-2" type="line" smooth="yes"/>
      <point x="350" y="-2"/>
      <point x="368" y="8"/>
      <point x="372" y="29" type="curve" smooth="yes"/>
      <point x="401" y="183" type="line"/>
      <point x="463" y="183" type="line" smooth="yes"/>
      <point x="484" y="183"/>
      <point x="493" y="198"/>
      <point x="493" y="233" type="curve" smooth="yes"/>
      <point x="493" y="243" type="line" smooth="yes"/>
      <point x="493" y="278"/>
      <point x="484" y="293"/>
      <point x="463" y="293" type="curve" smooth="yes"/>
      <point x="421" y="293" type="line"/>
      <point x="442" y="403" type="line"/>
      <point x="495" y="403" type="line" smooth="yes"/>
      <point x="516" y="403"/>
      <point x="525" y="418"/>
      <point x="525" y="453" type="curve" smooth="yes"/>
      <point x="525" y="463" type="line" smooth="yes"/>
      <point x="525" y="498"/>
      <point x="516" y="513"/>
      <point x="495" y="513" type="curve" smooth="yes"/>
      <point x="462" y="513" type="line"/>
      <point x="489" y="664" type="line"/>
      <point x="489" y="678"/>
      <point x="475" y="686"/>
      <point x="444" y="686" type="curve" smooth="yes"/>
      <point x="431" y="686" type="line" smooth="yes"/>
      <point x="398" y="686"/>
      <point x="379" y="676"/>
      <point x="375" y="655" type="curve" smooth="yes"/>
      <point x="349" y="513" type="line"/>
      <point x="255" y="513" type="line"/>
      <point x="282" y="664" type="line"/>
      <point x="282" y="678"/>
      <point x="268" y="686"/>
      <point x="237" y="686" type="curve" smooth="yes"/>
      <point x="224" y="686" type="line" smooth="yes"/>
      <point x="191" y="686"/>
      <point x="172" y="676"/>
      <point x="168" y="655" type="curve" smooth="yes"/>
      <point x="142" y="513" type="line"/>
      <point x="74" y="513" type="line" smooth="yes"/>
      <point x="53" y="513"/>
      <point x="44" y="498"/>
      <point x="44" y="463" type="curve" smooth="yes"/>
      <point x="44" y="453" type="line" smooth="yes"/>
      <point x="44" y="418"/>
      <point x="53" y="403"/>
      <point x="74" y="403" type="curve" smooth="yes"/>
      <point x="122" y="403" type="line"/>
      <point x="101" y="293" type="line"/>
      <point x="38" y="293" type="line" smooth="yes"/>
      <point x="17" y="293"/>
      <point x="8" y="278"/>
      <point x="8" y="243" type="curve" smooth="yes"/>
      <point x="8" y="233" type="line" smooth="yes"/>
      <point x="8" y="198"/>
      <point x="17" y="183"/>
      <point x="38" y="183" type="curve" smooth="yes"/>
      <point x="81" y="183" type="line"/>
      <point x="55" y="42"/>
      <point x="51" y="27"/>
      <point x="51" y="21" type="curve" smooth="yes"/>
      <point x="51" y="4"/>
      <point x="65" y="-2"/>
    </contour>
    <contour>
      <point x="214" y="293" type="line"/>
      <point x="235" y="403" type="line"/>
      <point x="329" y="403" type="line"/>
      <point x="308" y="293" type="line"/>
    </contour>
  </outline>
</glyph>
<glyph name="dollar" format="2">
  <advance width="496"/>
  <unicode hex="0024"/>
  <outline>
    <contour>
      <point x="263" y="-81" type="line" smooth="yes"/>
      <point x="281" y="-81"/>
      <point x="290" y="-72"/>
      <point x="290" y="-51" type="curve" smooth="yes"/>
      <point x="290" y="-6" type="line"/>
      <point x="387" y="5"/>
      <point x="480" y="66"/>
      <point x="480" y="214" type="curve" smooth="yes"/>
      <point x="480" y="345"/>
      <point x="375" y="387"/>
      <point x="290" y="424" type="curve"/>
      <point x="290" y="576" type="line"/>
      <point x="322" y="575"/>
      <point x="345" y="569"/>
      <point x="362" y="563" type="curve" smooth="yes"/>
      <point x="378" y="557"/>
      <point x="389" y="551"/>
      <point x="395" y="551" type="curve" smooth="yes"/>
      <point x="419" y="551"/>
      <point x="450" y="611"/>
      <point x="450" y="638" type="curve" smooth="yes"/>
      <point x="450" y="649"/>
      <point x="441" y="661"/>
      <point x="425" y="672" type="curve" smooth="yes"/>
      <point x="398" y="690"/>
      <point x="350" y="704"/>
      <point x="290" y="707" type="curve"/>
      <point x="290" y="738" type="line" smooth="yes"/>
      <point x="290" y="758"/>
      <point x="282" y="768"/>
      <point x="262" y="768" type="curve" smooth="yes"/>
      <point x="260" y="768" type="line" smooth="yes"/>
      <point x="242" y="768"/>
      <point x="233" y="759"/>
      <point x="233" y="738" type="curve" smooth="yes"/>
      <point x="233" y="706" type="line"/>
      <point x="129" y="695"/>
      <point x="33" y="634"/>
      <point x="33" y="503" type="curve" smooth="yes"/>
      <point x="33" y="360"/>
      <point x="144" y="321"/>
      <point x="233" y="288" type="curve"/>
      <point x="233" y="123" type="line"/>
      <point x="180" y="123"/>
      <point x="137" y="144"/>
      <point x="110" y="158" type="curve" smooth="yes"/>
      <point x="97" y="164"/>
      <point x="87" y="169"/>
      <point x="81" y="169" type="curve" smooth="yes"/>
      <point x="60" y="169"/>
      <point x="19" y="111"/>
      <point x="19" y="80" type="curve" smooth="yes"/>
      <point x="19" y="65"/>
      <point x="34" y="47"/>
      <point x="63" y="31" type="curve" smooth="yes"/>
      <point x="99" y="12"/>
      <point x="156" y="-5"/>
      <point x="233" y="-7" type="curve"/>
      <point x="233" y="-51" type="line" smooth="yes"/>
      <point x="233" y="-72"/>
      <point x="242" y="-81"/>
      <point x="262" y="-81" type="curve" smooth="yes"/>
    </contour>
    <contour>
      <point x="290" y="134" type="curve"/>
      <point x="290" y="261" type="line"/>
      <point x="316" y="246"/>
      <point x="333" y="224"/>
      <point x="333" y="196" type="curve" smooth="yes"/>
      <point x="333" y="163"/>
      <point x="314" y="144"/>
    </contour>
    <contour>
      <point x="233" y="450" type="line"/>
      <point x="202" y="467"/>
      <point x="181" y="487"/>
      <point x="181" y="517" type="curve" smooth="yes"/>
      <point x="181" y="534"/>
      <point x="189" y="559"/>
      <point x="233" y="570" type="curve"/>
    </contour>
  </outline>
</glyph>
<glyph name="percent" format="2">
  <advance width="765"/>
  <unicode hex="0025"/>
  <outline>
    <contour>
      <point x="174" y="-2" type="curve" smooth="yes"/>
      <point x="218" y="-2" type="line" smooth="yes"/>
      <point x="239" y="-2"/>
      <point x="252" y="8"/>
      <point x="262" y="26" type="curve" smooth="yes"/>
      <point x="619" y="674" type="line" smooth="yes"/>
      <point x="622" y="680"/>
      <point x="624" y="685"/>
      <point x="624" y="688" type="curve" smooth="yes"/>
      <point x="624" y="696"/>
      <point x="617" y="702"/>
      <point x="603" y="702" type="curve" smooth="yes"/>
      <point x="559" y="702" type="line" smooth="yes"/>
      <point x="538" y="702"/>
      <point x="525" y="692"/>
      <point x="515" y="674" type="curve" smooth="yes"/>
      <point x="158" y="26" type="line" smooth="yes"/>
      <point x="155" y="20"/>
      <point x="153" y="15"/>
      <point x="153" y="11" type="curve" smooth="yes"/>
      <point x="153" y="4"/>
      <point x="160" y="-2"/>
    </contour>
    <contour>
      <point x="582" y="-8" type="curve" smooth="yes"/>
      <point x="652" y="-8"/>
      <point x="732" y="21"/>
      <point x="732" y="160" type="curve" smooth="yes"/>
      <point x="732" y="299"/>
      <point x="652" y="328"/>
      <point x="582" y="328" type="curve" smooth="yes"/>
      <point x="512" y="328"/>
      <point x="432" y="299"/>
      <point x="432" y="160" type="curve" smooth="yes"/>
      <point x="432" y="21"/>
      <point x="512" y="-8"/>
    </contour>
    <contour>
      <point x="582" y="74" type="curve" smooth="yes"/>
      <point x="543" y="74"/>
      <point x="534" y="121"/>
      <point x="534" y="160" type="curve" smooth="yes"/>
      <point x="534" y="199"/>
      <point x="543" y="242"/>
      <point x="582" y="242" type="curve" smooth="yes"/>
      <point x="621" y="242"/>
      <point x="629" y="199"/>
      <point x="629" y="160" type="curve" smooth="yes"/>
      <point x="629" y="121"/>
      <point x="621" y="74"/>
    </contour>
    <contour>
      <point x="195" y="372" type="curve" smooth="yes"/>
      <point x="265" y="372"/>
      <point x="345" y="401"/>
      <point x="345" y="540" type="curve" smooth="yes"/>
      <point x="345" y="679"/>
      <point x="265" y="708"/>
      <point x="195" y="708" type="curve" smooth="yes"/>
      <point x="125" y="708"/>
      <point x="45" y="679"/>
      <point x="45" y="540" type="curve" smooth="yes"/>
      <point x="45" y="401"/>
      <point x="125" y="372"/>
    </contour>
    <contour>
      <point x="195" y="454" type="curve" smooth="yes"/>
      <point x="156" y="454"/>
      <point x="147" y="501"/>
      <point x="147" y="540" type="curve" smooth="yes"/>
      <point x="147" y="579"/>
      <point x="156" y="622"/>
      <point x="195" y="622" type="curve" smooth="yes"/>
      <point x="234" y="622"/>
      <point x="242" y="579"/>
      <point x="242" y="540" type="curve" smooth="yes"/>
      <point x="242" y="501"/>
      <point x="234" y="454"/>
    </contour>
  </outline>
</glyph>
<glyph name="quotesingle" format="2">
  <advance width="183"/>
  <unicode hex="0027"/>
  <outline>
    <contour>
      <point x="86" y="464" type="curve"/>
      <point x="104" y="464" type="line" smooth="yes"/>
      <point x="125" y="464"/>
      <point x="135" y="473"/>
      <point x="138" y="494" type="curve" smooth="yes"/>
      <point x="146.5" y="553"/>
      <point x="160" y="662"/>
      <point x="160" y="670" type="curve"/>
      <point x="160" y="691"/>
      <point x="142" y="702"/>
      <point x="100" y="702" type="curve" smooth="yes"/>
      <point x="90" y="702" type="line" smooth="yes"/>
      <point x="48" y="702"/>
      <point x="30" y="691"/>
      <point x="30" y="670" type="curve" smooth="yes"/>
      <point x="30" y="665" type="line"/>
      <point x="52" y="494" type="line" smooth="yes"/>
      <point x="55" y="473"/>
      <point x="65" y="464"/>
    </contour>
  </outline>
</glyph>
<glyph name="asterisk" format="2">
  <advance width="373"/>
  <unicode hex="002A"/>
  <outline>
    <contour>
      <point x="99" y="411" type="curve" smooth="yes"/>
      <point x="106" y="411"/>
      <point x="114" y="415"/>
      <point x="122" y="426" type="curve" smooth="yes"/>
      <point x="181" y="509" type="line"/>
      <point x="240" y="426" type="line" smooth="yes"/>
      <point x="247" y="416"/>
      <point x="255" y="411"/>
      <point x="263" y="411" type="curve" smooth="yes"/>
      <point x="276" y="411"/>
      <point x="296" y="428"/>
      <point x="296" y="440" type="curve" smooth="yes"/>
      <point x="296" y="446"/>
      <point x="294" y="453"/>
      <point x="288" y="460" type="curve"/>
      <point x="231" y="539" type="line"/>
      <point x="307" y="563" type="line" smooth="yes"/>
      <point x="322" y="568"/>
      <point x="329" y="574"/>
      <point x="329" y="586" type="curve" smooth="yes"/>
      <point x="329" y="610"/>
      <point x="313" y="623"/>
      <point x="300" y="623" type="curve" smooth="yes"/>
      <point x="296" y="623"/>
      <point x="292" y="622.5"/>
      <point x="287" y="621" type="curve" smooth="yes"/>
      <point x="212" y="596" type="line"/>
      <point x="212" y="678" type="line" smooth="yes"/>
      <point x="212" y="699"/>
      <point x="203" y="708"/>
      <point x="182" y="708" type="curve" smooth="yes"/>
      <point x="161" y="708"/>
      <point x="152" y="699"/>
      <point x="152" y="678" type="curve" smooth="yes"/>
      <point x="152" y="596" type="line"/>
      <point x="75" y="621" type="line" smooth="yes"/>
      <point x="70" y="622.5"/>
      <point x="65" y="623"/>
      <point x="61" y="623" type="curve" smooth="yes"/>
      <point x="40" y="623"/>
      <point x="33" y="600"/>
      <point x="33" y="586" type="curve" smooth="yes"/>
      <point x="33" y="575"/>
      <point x="40" y="568"/>
      <point x="55" y="563" type="curve" smooth="yes"/>
      <point x="130" y="539" type="line"/>
      <point x="74" y="460" type="line"/>
      <point x="68" y="453"/>
      <point x="65" y="446"/>
      <point x="65" y="440" type="curve" smooth="yes"/>
      <point x="65" y="428"/>
      <point x="85" y="411"/>
    </contour>
  </outline>
</glyph>
<glyph name="hyphen" format="2">
  <advance width="320"/>
  <unicode hex="002D"/>
  <outline>
    <contour>
      <point x="58" y="212" type="curve"/>
      <point x="262" y="212" type="line" smooth="yes"/>
      <point x="283" y="212"/>
      <point x="292" y="227"/>
      <point x="292" y="262" type="curve" smooth="yes"/>
      <point x="292" y="269" type="line" smooth="yes"/>
      <point x="292" y="304"/>
      <point x="283" y="319"/>
      <point x="262" y="319" type="curve" smooth="yes"/>
      <point x="58" y="319" type="line" smooth="yes"/>
      <point x="37" y="319"/>
      <point x="28" y="304"/>
      <point x="28" y="269" type="curve" smooth="yes"/>
      <point x="28" y="262" type="line" smooth="yes"/>
      <point x="28" y="227"/>
      <point x="37" y="212"/>
    </contour>
  </outline>
</glyph>
<glyph name="period" format="2">
  <advance width="198"/>
  <unicode hex="002E"/>
  <outline>
    <contour>
      <point x="82" y="-2" type="curve" smooth="yes"/>
      <point x="114" y="-2" type="line" smooth="yes"/>
      <point x="156" y="-2"/>
      <point x="174" y="9"/>
      <point x="174" y="30" type="curve" smooth="yes"/>
      <point x="174" y="122" type="line" smooth="yes"/>
      <point x="174" y="143"/>
      <point x="156" y="154"/>
      <point x="114" y="154" type="curve" smooth="yes"/>
      <point x="82" y="154" type="line" smooth="yes"/>
      <point x="40" y="154"/>
      <point x="22" y="143"/>
      <point x="22" y="122" type="curve" smooth="yes"/>
      <point x="22" y="30" type="line" smooth="yes"/>
      <point x="22" y="9"/>
      <point x="40" y="-2"/>
    </contour>
  </outline>
</glyph>
<glyph name="zero" format="2">
  <advance width="535"/>
  <unicode hex="0030"/>
  <outline>
    <contour>
      <point x="267" y="-8" type="curve" smooth="yes"/>
      <point x="415" y="-8"/>
      <point x="504" y="125"/>
      <point x="504" y="350" type="curve" smooth="yes"/>
      <point x="504" y="575"/>
      <point x="415" y="708"/>
      <point x="267" y="708" type="curve" smooth="yes"/>
      <point x="119" y="708"/>
      <point x="30" y="575"/>
      <point x="30" y="350" type="curve" smooth="yes"/>
      <point x="30" y="125"/>
      <point x="119" y="-8"/>
    </contour>
    <contour>
      <point x="267" y="109" type="curve" smooth="yes"/>
      <point x="211" y="109"/>
      <point x="180" y="191"/>
      <point x="180" y="350" type="curve" smooth="yes"/>
      <point x="180" y="509"/>
      <point x="211" y="591"/>
      <point x="267" y="591" type="curve" smooth="yes"/>
      <point x="323" y="591"/>
      <point x="354" y="509"/>
      <point x="354" y="350" type="curve" smooth="yes"/>
      <point x="354" y="191"/>
      <point x="323" y="109"/>
    </contour>
  </outline>
</glyph>
<glyph name="two" format="2">
  <advance width="535"/>
  <unicode hex="0032"/>
  <outline>
    <contour>
      <point x="61" y="0" type="curve"/>
      <point x="459" y="0" type="line" smooth="yes"/>
      <point x="480" y="0"/>
      <point x="489" y="15"/>
      <point x="489" y="50" type="curve" smooth="yes"/>
      <point x="489" y="67" type="line" smooth="yes"/>
      <point x="489" y="102"/>
      <point x="480" y="117"/>
      <point x="459" y="117" type="curve" smooth="yes"/>
      <point x="228" y="117" type="line"/>
      <point x="416" y="349" type="line" smooth="yes"/>
      <point x="452" y="393"/>
      <point x="477" y="448"/>
      <point x="477" y="512" type="curve" smooth="yes"/>
      <point x="477" y="626"/>
      <point x="400" y="708"/>
      <point x="259" y="708" type="curve" smooth="yes"/>
      <point x="165" y="708"/>
      <point x="60" y="675"/>
      <point x="60" y="616" type="curve" smooth="yes"/>
      <point x="60" y="590"/>
      <point x="86" y="547"/>
      <point x="117" y="547" type="curve" smooth="yes"/>
      <point x="135" y="547"/>
      <point x="170" y="590"/>
      <point x="234" y="590" type="curve" smooth="yes"/>
      <point x="287" y="590"/>
      <point x="327" y="563"/>
      <point x="327" y="509" type="curve" smooth="yes"/>
      <point x="327" y="472"/>
      <point x="311" y="440"/>
      <point x="289" y="413" type="curve" smooth="yes"/>
      <point x="36" y="103" type="line" smooth="yes"/>
      <point x="34" y="100"/>
      <point x="33" y="95"/>
      <point x="33" y="88" type="curve" smooth="yes"/>
      <point x="33" y="59"/>
      <point x="46" y="0"/>
    </contour>
  </outline>
</glyph>
<glyph name="three" format="2">
  <advance width="535"/>
  <unicode hex="0033"/>
  <outline>
    <contour>
      <point x="253" y="-8" type="curve" smooth="yes"/>
      <point x="386" y="-8"/>
      <point x="479" y="71"/>
      <point x="479" y="204" type="curve" smooth="yes"/>
      <point x="479" y="286"/>
      <point x="442" y="353"/>
      <point x="363" y="383" type="curve"/>
      <point x="363" y="387" type="line"/>
      <point x="420" y="411"/>
      <point x="456" y="464"/>
      <point x="456" y="533" type="curve" smooth="yes"/>
      <point x="456" y="640"/>
      <point x="376" y="708"/>
      <point x="251" y="708" type="curve" smooth="yes"/>
      <point x="152" y="708"/>
      <point x="57" y="685"/>
      <point x="57" y="635" type="curve" smooth="yes"/>
      <point x="57" y="608"/>
      <point x="87" y="559"/>
      <point x="107" y="559" type="curve" smooth="yes"/>
      <point x="125" y="559"/>
      <point x="149" y="590"/>
      <point x="225" y="590" type="curve" smooth="yes"/>
      <point x="279" y="590"/>
      <point x="306" y="558"/>
      <point x="306" y="509" type="curve" smooth="yes"/>
      <point x="306" y="459"/>
      <point x="268" y="426"/>
      <point x="203" y="426" type="curve" smooth="yes"/>
      <point x="184" y="426" type="line" smooth="yes"/>
      <point x="163" y="426"/>
      <point x="154" y="411"/>
      <point x="154" y="376" type="curve" smooth="yes"/>
      <point x="154" y="358" type="line" smooth="yes"/>
      <point x="154" y="323"/>
      <point x="163" y="308"/>
      <point x="184" y="308" type="curve" smooth="yes"/>
      <point x="212" y="308" type="line" smooth="yes"/>
      <point x="296" y="308"/>
      <point x="329" y="272"/>
      <point x="329" y="206" type="curve" smooth="yes"/>
      <point x="329" y="144"/>
      <point x="289" y="109"/>
      <point x="230" y="109" type="curve" smooth="yes"/>
      <point x="149" y="109"/>
      <point x="103" y="150"/>
      <point x="85" y="150" type="curve" smooth="yes"/>
      <point x="62" y="150"/>
      <point x="36" y="93"/>
      <point x="36" y="74" type="curve" smooth="yes"/>
      <point x="36" y="12"/>
      <point x="178" y="-8"/>
    </contour>
  </outline>
</glyph>
<glyph name="eight" format="2">
  <advance width="535"/>
  <unicode hex="0038"/>
  <outline>
    <contour>
      <point x="271" y="-8" type="curve" smooth="yes"/>
      <point x="442" y="-8"/>
      <point x="506" y="100"/>
      <point x="506" y="192" type="curve" smooth="yes"/>
      <point x="506" y="302"/>
      <point x="458" y="357"/>
      <point x="396" y="385" type="curve"/>
      <point x="446" y="412"/>
      <point x="483" y="450"/>
      <point x="483" y="534" type="curve" smooth="yes"/>
      <point x="483" y="628"/>
      <point x="406" y="708"/>
      <point x="276" y="708" type="curve" smooth="yes"/>
      <point x="127" y="708"/>
      <point x="56" y="617"/>
      <point x="56" y="519" type="curve" smooth="yes"/>
      <point x="56" y="446"/>
      <point x="87" y="404"/>
      <point x="130" y="375" type="curve"/>
      <point x="75" y="354"/>
      <point x="29" y="295"/>
      <point x="29" y="201" type="curve" smooth="yes"/>
      <point x="29" y="90"/>
      <point x="100" y="-8"/>
    </contour>
    <contour>
      <point x="269" y="109" type="curve" smooth="yes"/>
      <point x="211" y="109"/>
      <point x="178" y="150"/>
      <point x="178" y="210" type="curve" smooth="yes"/>
      <point x="178" y="267"/>
      <point x="199" y="301"/>
      <point x="233" y="326" type="curve"/>
      <point x="298" y="302"/>
      <point x="356" y="279"/>
      <point x="356" y="200" type="curve" smooth="yes"/>
      <point x="356" y="158"/>
      <point x="327" y="109"/>
    </contour>
    <contour>
      <point x="285" y="432" type="curve"/>
      <point x="238" y="451"/>
      <point x="202" y="473"/>
      <point x="202" y="524" type="curve" smooth="yes"/>
      <point x="202" y="568"/>
      <point x="235" y="591"/>
      <point x="271" y="591" type="curve" smooth="yes"/>
      <point x="307" y="591"/>
      <point x="339" y="566"/>
      <point x="339" y="524" type="curve" smooth="yes"/>
      <point x="339" y="488"/>
      <point x="321" y="456"/>
    </contour>
  </outline>
</glyph>
<glyph name="colon" format="2">
  <advance width="198"/>
  <unicode hex="003A"/>
  <outline>
    <contour>
      <point x="82" y="369" type="curve"/>
      <point x="114" y="369" type="line" smooth="yes"/>
      <point x="156" y="369"/>
      <point x="174" y="380"/>
      <point x="174" y="401" type="curve" smooth="yes"/>
      <point x="174" y="493" type="line" smooth="yes"/>
      <point x="174" y="514"/>
      <point x="156" y="525"/>
      <point x="114" y="525" type="curve" smooth="yes"/>
      <point x="82" y="525" type="line" smooth="yes"/>
      <point x="40" y="525"/>
      <point x="22" y="514"/>
      <point x="22" y="493" type="curve" smooth="yes"/>
      <point x="22" y="401" type="line" smooth="yes"/>
      <point x="22" y="380"/>
      <point x="40" y="369"/>
    </contour>
    <contour>
      <point x="82" y="-2" type="curve" smooth="yes"/>
      <point x="114" y="-2" type="line" smooth="yes"/>
      <point x="156" y="-2"/>
      <point x="174" y="9"/>
      <point x="174" y="30" type="curve" smooth="yes"/>
      <point x="174" y="122" type="line" smooth="yes"/>
      <point x="174" y="143"/>
      <point x="156" y="154"/>
      <point x="114" y="154" type="curve" smooth="yes"/>
      <point x="82" y="154" type="line" smooth="yes"/>
      <point x="40" y="154"/>
      <point x="22" y="143"/>
      <point x="22" y="122" type="curve" smooth="yes"/>
      <point x="22" y="30" type="line" smooth="yes"/>
      <point x="22" y="9"/>
      <point x="40" y="-2"/>
    </contour>
  </outline>
</glyph>
<glyph name="semicolon" format="2">
  <advance width="198"/>
  <unicode hex="003B"/>
  <outline>
    <contour>
      <point x="82" y="369" type="curve"/>
      <point x="114" y="369" type="line" smooth="yes"/>
      <point x="156" y="369"/>
      <point x="174" y="380"/>
      <point x="174" y="401" type="curve" smooth="yes"/>
      <point x="174" y="493" type="line" smooth="yes"/>
      <point x="174" y="514"/>
      <point x="156" y="525"/>
      <point x="114" y="525" type="curve" smooth="yes"/>
      <point x="82" y="525" type="line" smooth="yes"/>
      <point x="40" y="525"/>
      <point x="22" y="514"/>
      <point x="22" y="493" type="curve" smooth="yes"/>
      <point x="22" y="401" type="line" smooth="yes"/>
      <point x="22" y="380"/>
      <point x="40" y="369"/>
    </contour>
    <component base="comma"/>
  </outline>
</glyph>
<glyph name="question" format="2">
  <advance width="445"/>
  <unicode hex="003F"/>
  <outline>
    <contour>
      <point x="175" y="222" type="curve" smooth="yes"/>
      <point x="198" y="222" type="line" smooth="yes"/>
      <point x="231" y="222"/>
      <point x="247" y="228"/>
      <point x="251" y="249" type="curve" smooth="yes"/>
      <point x="260" y="294"/>
      <point x="302" y="325"/>
      <point x="343" y="362" type="curve" smooth="yes"/>
      <point x="390" y="402"/>
      <point x="437" y="449"/>
      <point x="437" y="530" type="curve" smooth="yes"/>
      <point x="437" y="640"/>
      <point x="354" y="708"/>
      <point x="220" y="708" type="curve" smooth="yes"/>
      <point x="142" y="708"/>
      <point x="32" y="686"/>
      <point x="32" y="627" type="curve" smooth="yes"/>
      <point x="32" y="606"/>
      <point x="67" y="545"/>
      <point x="95" y="545" type="curve" smooth="yes"/>
      <point x="109" y="545"/>
      <point x="149" y="576"/>
      <point x="207" y="576" type="curve" smooth="yes"/>
      <point x="258" y="576"/>
      <point x="281" y="555"/>
      <point x="281" y="520" type="curve" smooth="yes"/>
      <point x="281" y="487"/>
      <point x="236" y="448"/>
      <point x="194" y="399" type="curve" smooth="yes"/>
      <point x="158.5" y="357.5"/>
      <point x="126" y="309"/>
      <point x="126" y="251" type="curve" smooth="yes"/>
      <point x="126" y="230"/>
      <point x="140" y="222"/>
    </contour>
    <contour>
      <point x="170" y="-2" type="curve" smooth="yes"/>
      <point x="202" y="-2" type="line" smooth="yes"/>
      <point x="244" y="-2"/>
      <point x="262" y="9"/>
      <point x="262" y="30" type="curve" smooth="yes"/>
      <point x="262" y="122" type="line" smooth="yes"/>
      <point x="262" y="143"/>
      <point x="244" y="154"/>
      <point x="202" y="154" type="curve" smooth="yes"/>
      <point x="170" y="154" type="line" smooth="yes"/>
      <point x="128" y="154"/>
      <point x="110" y="143"/>
      <point x="110" y="122" type="curve" smooth="yes"/>
      <point x="110" y="30" type="line" smooth="yes"/>
      <point x="110" y="9"/>
      <point x="128" y="-2"/>
    </contour>
  </outline>
</glyph>
<glyph name="B" format="2">
  <advance width="593"/>
  <unicode hex="0042"/>
  <anchor x="304" y="0" name="bottom"/>
  <anchor x="304" y="700" name="top"/>
  <outline>
    <contour>
      <point x="116" y="0" type="curve" smooth="yes"/>
      <point x="328" y="0" type="line" smooth="yes"/>
      <point x="497" y="0"/>
      <point x="578" y="74"/>
      <point x="578" y="203" type="curve" smooth="yes"/>
      <point x="578" y="280"/>
      <point x="523" y="351"/>
      <point x="443" y="367" type="curve"/>
      <point x="442" y="371" type="line"/>
      <point x="502" y="396"/>
      <point x="550" y="455"/>
      <point x="550" y="523" type="curve" smooth="yes"/>
      <point x="550" y="628"/>
      <point x="483" y="700"/>
      <point x="314" y="700" type="curve" smooth="yes"/>
      <point x="116" y="700" type="line" smooth="yes"/>
      <point x="88" y="700"/>
      <point x="76" y="688"/>
      <point x="76" y="660" type="curve" smooth="yes"/>
      <point x="76" y="40" type="line" smooth="yes"/>
      <point x="76" y="12"/>
      <point x="88" y="0"/>
    </contour>
    <contour>
      <point x="230" y="131" type="line"/>
      <point x="230" y="290" type="line"/>
      <point x="312" y="290" type="line" smooth="yes"/>
      <point x="381" y="290"/>
      <point x="420" y="264"/>
      <point x="420" y="212" type="curve" smooth="yes"/>
      <point x="420" y="160"/>
      <point x="386" y="131"/>
      <point x="328" y="131" type="curve" smooth="yes"/>
    </contour>
    <contour>
      <point x="230" y="421" type="line"/>
      <point x="230" y="570" type="line"/>
      <point x="301" y="570" type="line" smooth="yes"/>
      <point x="362" y="570"/>
      <point x="392" y="545"/>
      <point x="392" y="496" type="curve" smooth="yes"/>
      <point x="392" y="454"/>
      <point x="359" y="421"/>
      <point x="299" y="421" type="curve" smooth="yes"/>
    </contour>
  </outline>
</glyph>
<glyph name="D" format="2">
  <advance width="695"/>
  <unicode hex="0044"/>
  <anchor x="338" y="0" name="bottom"/>
  <anchor x="154" y="350" name="center"/>
  <anchor x="340" y="700" name="top"/>
  <outline>
    <contour>
      <point x="116" y="0" type="curve" smooth="yes"/>
      <point x="330" y="0" type="line" smooth="yes"/>
      <point x="536" y="0"/>
      <point x="650" y="124"/>
      <point x="650" y="350" type="curve" smooth="yes"/>
      <point x="650" y="576"/>
      <point x="536" y="700"/>
      <point x="330" y="700" type="curve" smooth="yes"/>
      <point x="116" y="700" type="line" smooth="yes"/>
      <point x="88" y="700"/>
      <point x="76" y="688"/>
      <point x="76" y="660" type="curve" smooth="yes"/>
      <point x="76" y="40" type="line" smooth="yes"/>
      <point x="76" y="12"/>
      <point x="88" y="0"/>
    </contour>
    <contour>
      <point x="231" y="131" type="line"/>
      <point x="231" y="569" type="line"/>
      <point x="330" y="569" type="line" smooth="yes"/>
      <point x="437" y="569"/>
      <point x="492" y="492"/>
      <point x="492" y="350" type="curve" smooth="yes"/>
      <point x="492" y="208"/>
      <point x="437" y="131"/>
      <point x="330" y="131" type="curve" smooth="yes"/>
    </contour>
  </outline>
</glyph>
<glyph name="E" format="2">
  <advance width="546"/>
  <unicode hex="0045"/>
  <anchor x="294" y="0" name="bottom"/>
  <anchor x="429.5" y="0" name="ogonek"/>
  <anchor x="302" y="700" name="top"/>
  <outline>
    <contour>
      <point x="116" y="0" type="curve" smooth="yes"/>
      <point x="468" y="0" type="line" smooth="yes"/>
      <point x="489" y="0"/>
      <point x="498" y="15"/>
      <point x="498" y="50" type="curve" smooth="yes"/>
      <point x="498" y="81" type="line" smooth="yes"/>
      <point x="498" y="116"/>
      <point x="489" y="131"/>
      <point x="468" y="131" type="curve" smooth="yes"/>
      <point x="230" y="131" type="line"/>
      <point x="230" y="293" type="line"/>
      <point x="440" y="293" type="line" smooth="yes"/>
      <point x="461" y="293"/>
      <point x="470" y="308"/>
      <point x="470" y="343" type="curve" smooth="yes"/>
      <point x="470" y="374" type="line" smooth="yes"/>
      <point x="470" y="409"/>
      <point x="461" y="424"/>
      <point x="440" y="424" type="curve" smooth="yes"/>
      <point x="230" y="424" type="line"/>
      <point x="230" y="569" type="line"/>
      <point x="467" y="569" type="line" smooth="yes"/>
      <point x="488" y="569"/>
      <point x="497" y="584"/>
      <point x="497" y="619" type="curve" smooth="yes"/>
      <point x="497" y="650" type="line" smooth="yes"/>
      <point x="497" y="685"/>
      <point x="488" y="700"/>
      <point x="467" y="700" type="curve" smooth="yes"/>
      <point x="116" y="700" type="line" smooth="yes"/>
      <point x="88" y="700"/>
      <point x="76" y="688"/>
      <point x="76" y="660" type="curve" smooth="yes"/>
      <point x="76" y="40" type="line" smooth="yes"/>
      <point x="76" y="12"/>
      <point x="88" y="0"/>
    </contour>
  </outline>
</glyph>
<glyph name="F" format="2">
  <advance width="503"/>
  <unicode hex="0046"/>
  <anchor x="153" y="0" name="bottom"/>
  <anchor x="283" y="700" name="top"/>
  <outline>
    <contour>
      <point x="136" y="-2" type="curve" smooth="yes"/>
      <point x="170" y="-2" type="line" smooth="yes"/>
      <point x="212" y="-2"/>
      <point x="230" y="9"/>
      <point x="230" y="30" type="curve" smooth="yes"/>
      <point x="230" y="292" type="line"/>
      <point x="438" y="292" type="line" smooth="yes"/>
      <point x="459" y="292"/>
      <point x="468" y="307"/>
      <point x="468" y="342" type="curve" smooth="yes"/>
      <point x="468" y="373" type="line" smooth="yes"/>
      <point x="468" y="408"/>
      <point x="459" y="423"/>
      <point x="438" y="423" type="curve" smooth="yes"/>
      <point x="230" y="423" type="line"/>
      <point x="230" y="569" type="line"/>
      <point x="445" y="569" type="line" smooth="yes"/>
      <point x="466" y="569"/>
      <point x="475" y="584"/>
      <point x="475" y="619" type="curve" smooth="yes"/>
      <point x="475" y="650" type="line" smooth="yes"/>
      <point x="475" y="685"/>
      <point x="466" y="700"/>
      <point x="445" y="700" type="curve" smooth="yes"/>
      <point x="116" y="700" type="line" smooth="yes"/>
      <point x="88" y="700"/>
      <point x="76" y="688"/>
      <point x="76" y="660" type="curve" smooth="yes"/>
      <point x="76" y="30" type="line" smooth="yes"/>
      <point x="76" y="9"/>
      <point x="94" y="-2"/>
    </contour>
  </outline>
</glyph>
<glyph name="G" format="2">
  <advance width="672"/>
  <unicode hex="0047"/>
  <anchor x="355" y="0" name="bottom"/>
  <anchor x="350" y="700" name="top"/>
  <outline>
    <contour>
      <point x="374" y="-8" type="curve" smooth="yes"/>
      <point x="445" y="-8"/>
      <point x="607" y="2"/>
      <point x="607" y="71" type="curve" smooth="yes"/>
      <point x="607" y="349" type="line" smooth="yes"/>
      <point x="607" y="377"/>
      <point x="595" y="389"/>
      <point x="567" y="389" type="curve" smooth="yes"/>
      <point x="364" y="389" type="line" smooth="yes"/>
      <point x="343" y="389"/>
      <point x="334" y="374"/>
      <point x="334" y="339" type="curve" smooth="yes"/>
      <point x="334" y="307" type="line" smooth="yes"/>
      <point x="334" y="272"/>
      <point x="343" y="257"/>
      <point x="364" y="257" type="curve" smooth="yes"/>
      <point x="452" y="257" type="line"/>
      <point x="452" y="72" type="line"/>
      <point x="496" y="139.5" type="line"/>
      <point x="446.5" y="127.5"/>
      <point x="416" y="123"/>
      <point x="374" y="123" type="curve" smooth="yes"/>
      <point x="259" y="123"/>
      <point x="203" y="201"/>
      <point x="203" y="351" type="curve" smooth="yes"/>
      <point x="203" y="501"/>
      <point x="258" y="576"/>
      <point x="376" y="576" type="curve" smooth="yes"/>
      <point x="471" y="576"/>
      <point x="516" y="544"/>
      <point x="528" y="544" type="curve" smooth="yes"/>
      <point x="553" y="544"/>
      <point x="593" y="610"/>
      <point x="593" y="638" type="curve" smooth="yes"/>
      <point x="593" y="680"/>
      <point x="467" y="708"/>
      <point x="379" y="708" type="curve" smooth="yes"/>
      <point x="157" y="708"/>
      <point x="45" y="590"/>
      <point x="45" y="352" type="curve" smooth="yes"/>
      <point x="45" y="105"/>
      <point x="150" y="-8"/>
    </contour>
  </outline>
</glyph>
<glyph name="H" format="2">
  <advance width="733"/>
  <unicode hex="0048"/>
  <anchor x="366" y="0" name="bottom"/>
  <anchor x="366" y="523" name="center"/>
  <anchor x="366" y="700" name="top"/>
  <outline>
    <contour>
      <point x="136" y="-2" type="curve" smooth="yes"/>
      <point x="171" y="-2" type="line" smooth="yes"/>
      <point x="213" y="-2"/>
      <point x="231" y="9"/>
      <point x="231" y="30" type="curve" smooth="yes"/>
      <point x="231" y="291" type="line"/>
      <point x="501" y="291" type="line"/>
      <point x="501" y="30" type="line" smooth="yes"/>
      <point x="501" y="9"/>
      <point x="519" y="-2"/>
      <point x="561" y="-2" type="curve" smooth="yes"/>
      <point x="596" y="-2" type="line" smooth="yes"/>
      <point x="638" y="-2"/>
      <point x="656" y="9"/>
      <point x="656" y="30" type="curve" smooth="yes"/>
      <point x="656" y="670" type="line" smooth="yes"/>
      <point x="656" y="691"/>
      <point x="638" y="702"/>
      <point x="596" y="702" type="curve" smooth="yes"/>
      <point x="561" y="702" type="line" smooth="yes"/>
      <point x="519" y="702"/>
      <point x="501" y="691"/>
      <point x="501" y="670" type="curve" smooth="yes"/>
      <point x="501" y="423" type="line"/>
      <point x="231" y="423" type="line"/>
      <point x="231" y="670" type="line" smooth="yes"/>
      <point x="231" y="691"/>
      <point x="213" y="702"/>
      <point x="171" y="702" type="curve" smooth="yes"/>
      <point x="136" y="702" type="line" smooth="yes"/>
      <point x="94" y="702"/>
      <point x="76" y="691"/>
      <point x="76" y="670" type="curve" smooth="yes"/>
      <point x="76" y="30" type="line" smooth="yes"/>
      <point x="76" y="9"/>
      <point x="94" y="-2"/>
    </contour>
  </outline>
</glyph>
<glyph name="I" format="2">
  <advance width="283"/>
  <unicode hex="0049"/>
  <anchor x="142" y="0" name="bottom"/>
  <anchor x="183" y="0" name="ogonek"/>
  <anchor x="142" y="700" name="top"/>
  <outline>
    <contour>
      <point x="124" y="-3" type="curve" smooth="yes"/>
      <point x="159" y="-3" type="line" smooth="yes"/>
      <point x="201" y="-3"/>
      <point x="219" y="9"/>
      <point x="219" y="30" type="curve" smooth="yes"/>
      <point x="219" y="670" type="line" smooth="yes"/>
      <point x="219" y="691"/>
      <point x="201" y="703"/>
      <point x="159" y="703" type="curve" smooth="yes"/>
      <point x="124" y="703" type="line" smooth="yes"/>
      <point x="82" y="703"/>
      <point x="64" y="691"/>
      <point x="64" y="670" type="curve" smooth="yes"/>
      <point x="64" y="30" type="line" smooth="yes"/>
      <point x="64" y="9"/>
      <point x="82" y="-3"/>
    </contour>
  </outline>
</glyph>
<glyph name="K" format="2">
  <advance width="576"/>
  <unicode hex="004B"/>
  <anchor x="298" y="0" name="bottom"/>
  <anchor x="308" y="700" name="top"/>
  <outline>
    <contour>
      <point x="129" y="-2" type="curve" smooth="yes"/>
      <point x="164" y="-2" type="line" smooth="yes"/>
      <point x="206" y="-2"/>
      <point x="224" y="9"/>
      <point x="224" y="30" type="curve" smooth="yes"/>
      <point x="224" y="320" type="line"/>
      <point x="228" y="321" type="line"/>
      <point x="416" y="17" type="line" smooth="yes"/>
      <point x="425" y="2"/>
      <point x="448" y="-2"/>
      <point x="477" y="-2" type="curve" smooth="yes"/>
      <point x="535" y="-2" type="line" smooth="yes"/>
      <point x="574" y="-2"/>
      <point x="591" y="4"/>
      <point x="591" y="13" type="curve" smooth="yes"/>
      <point x="591" y="18"/>
      <point x="589" y="25"/>
      <point x="583" y="34" type="curve" smooth="yes"/>
      <point x="364" y="370" type="line"/>
      <point x="557" y="666" type="line" smooth="yes"/>
      <point x="563" y="675"/>
      <point x="565" y="682"/>
      <point x="565" y="687" type="curve" smooth="yes"/>
      <point x="565" y="696"/>
      <point x="548" y="702"/>
      <point x="509" y="702" type="curve" smooth="yes"/>
      <point x="462" y="702" type="line" smooth="yes"/>
      <point x="433" y="702"/>
      <point x="411" y="698"/>
      <point x="402" y="683" type="curve" smooth="yes"/>
      <point x="228" y="401" type="line"/>
      <point x="224" y="402" type="line"/>
      <point x="224" y="670" type="line" smooth="yes"/>
      <point x="224" y="691"/>
      <point x="206" y="702"/>
      <point x="164" y="702" type="curve" smooth="yes"/>
      <point x="129" y="702" type="line" smooth="yes"/>
      <point x="87" y="702"/>
      <point x="69" y="691"/>
      <point x="69" y="670" type="curve" smooth="yes"/>
      <point x="69" y="30" type="line" smooth="yes"/>
      <point x="69" y="9"/>
      <point x="87" y="-2"/>
    </contour>
  </outline>
</glyph>
<glyph name="L" format="2">
  <advance width="484"/>
  <unicode hex="004C"/>
  <anchor x="249" y="0" name="bottom"/>
  <anchor x="269" y="700" name="caron"/>
  <anchor x="344" y="335" name="center"/>
  <anchor x="157" y="700" name="top"/>
  <outline>
    <contour>
      <point x="116" y="0" type="curve" smooth="yes"/>
      <point x="446" y="0" type="line" smooth="yes"/>
      <point x="467" y="0"/>
      <point x="476" y="15"/>
      <point x="476" y="50" type="curve" smooth="yes"/>
      <point x="476" y="81" type="line" smooth="yes"/>
      <point x="476" y="116"/>
      <point x="467" y="131"/>
      <point x="446" y="131" type="curve" smooth="yes"/>
      <point x="230" y="131" type="line"/>
      <point x="230" y="670" type="line" smooth="yes"/>
      <point x="230" y="691"/>
      <point x="212" y="702"/>
      <point x="170" y="702" type="curve" smooth="yes"/>
      <point x="136" y="702" type="line" smooth="yes"/>
      <point x="94" y="702"/>
      <point x="76" y="691"/>
      <point x="76" y="670" type="curve" smooth="yes"/>
      <point x="76" y="40" type="line" smooth="yes"/>
      <point x="76" y="12"/>
      <point x="88" y="0"/>
    </contour>
  </outline>
</glyph>
<glyph name="M" format="2">
  <advance width="843"/>
  <unicode hex="004D"/>
  <outline>
    <contour>
      <point x="407" y="167" type="curve" smooth="yes"/>
      <point x="436" y="167" type="line" smooth="yes"/>
      <point x="455" y="167"/>
      <point x="467" y="174"/>
      <point x="476" y="186" type="curve"/>
      <point x="599" y="406" type="line" smooth="yes"/>
      <point x="607" y="419"/>
      <point x="614" y="431"/>
      <point x="621" y="445" type="curve"/>
      <point x="625" y="444" type="line"/>
      <point x="625" y="428"/>
      <point x="625" y="412"/>
      <point x="625" y="395" type="curve" smooth="yes"/>
      <point x="625" y="30" type="line" smooth="yes"/>
      <point x="625" y="9"/>
      <point x="643" y="-2"/>
      <point x="685" y="-2" type="curve" smooth="yes"/>
      <point x="714" y="-2" type="line" smooth="yes"/>
      <point x="756" y="-2"/>
      <point x="774" y="9"/>
      <point x="774" y="30" type="curve" smooth="yes"/>
      <point x="774" y="670" type="line" smooth="yes"/>
      <point x="774" y="691"/>
      <point x="756" y="702"/>
      <point x="714" y="702" type="curve" smooth="yes"/>
      <point x="662" y="702" type="line" smooth="yes"/>
      <point x="633" y="702"/>
      <point x="610" y="695"/>
      <point x="599" y="675" type="curve" smooth="yes"/>
      <point x="430" y="379" type="line" smooth="yes"/>
      <point x="427" y="373"/>
      <point x="424" y="368"/>
      <point x="421" y="362" type="curve"/>
      <point x="418" y="368"/>
      <point x="414" y="373"/>
      <point x="411" y="379" type="curve" smooth="yes"/>
      <point x="245" y="675" type="line" smooth="yes"/>
      <point x="234" y="695"/>
      <point x="211" y="702"/>
      <point x="182" y="702" type="curve" smooth="yes"/>
      <point x="129" y="702" type="line" smooth="yes"/>
      <point x="87" y="702"/>
      <point x="69" y="691"/>
      <point x="69" y="670" type="curve" smooth="yes"/>
      <point x="69" y="30" type="line" smooth="yes"/>
      <point x="69" y="9"/>
      <point x="87" y="-2"/>
      <point x="129" y="-2" type="curve" smooth="yes"/>
      <point x="158" y="-2" type="line" smooth="yes"/>
      <point x="200" y="-2"/>
      <point x="218" y="9"/>
      <point x="218" y="30" type="curve" smooth="yes"/>
      <point x="218" y="395" type="line" smooth="yes"/>
      <point x="218" y="412"/>
      <point x="218" y="428"/>
      <point x="218" y="444" type="curve"/>
      <point x="222" y="445" type="line"/>
      <point x="229" y="431"/>
      <point x="236" y="419"/>
      <point x="244" y="406" type="curve" smooth="yes"/>
      <point x="367" y="186" type="line"/>
      <point x="376" y="174"/>
      <point x="388" y="167"/>
    </contour>
  </outline>
</glyph>
<glyph name="N" format="2">
  <advance width="719"/>
  <unicode hex="004E"/>
  <anchor x="360" y="0" name="bottom"/>
  <anchor x="360" y="700" name="top"/>
  <outline>
    <contour>
      <point x="129" y="-2" type="curve" smooth="yes"/>
      <point x="158" y="-2" type="line" smooth="yes"/>
      <point x="200" y="-2"/>
      <point x="218" y="9"/>
      <point x="218" y="30" type="curve" smooth="yes"/>
      <point x="218" y="367" type="line" smooth="yes"/>
      <point x="218" y="396"/>
      <point x="218" y="412"/>
      <point x="216" y="435" type="curve"/>
      <point x="220" y="436" type="line"/>
      <point x="231" y="415"/>
      <point x="242" y="397"/>
      <point x="256" y="377" type="curve" smooth="yes"/>
      <point x="486" y="25" type="line" smooth="yes"/>
      <point x="501" y="2"/>
      <point x="523" y="-2"/>
      <point x="552" y="-2" type="curve" smooth="yes"/>
      <point x="590" y="-2" type="line" smooth="yes"/>
      <point x="632" y="-2"/>
      <point x="650" y="9"/>
      <point x="650" y="30" type="curve" smooth="yes"/>
      <point x="650" y="670" type="line" smooth="yes"/>
      <point x="650" y="691"/>
      <point x="632" y="702"/>
      <point x="590" y="702" type="curve" smooth="yes"/>
      <point x="561" y="702" type="line" smooth="yes"/>
      <point x="519" y="702"/>
      <point x="501" y="691"/>
      <point x="501" y="670" type="curve" smooth="yes"/>
      <point x="501" y="338" type="line" smooth="yes"/>
      <point x="501" y="309"/>
      <point x="501" y="293"/>
      <point x="503" y="270" type="curve"/>
      <point x="499" y="269" type="line"/>
      <point x="488" y="290"/>
      <point x="477" y="308"/>
      <point x="463" y="328" type="curve" smooth="yes"/>
      <point x="238" y="675" type="line" smooth="yes"/>
      <point x="223" y="698"/>
      <point x="201" y="702"/>
      <point x="172" y="702" type="curve" smooth="yes"/>
      <point x="129" y="702" type="line" smooth="yes"/>
      <point x="87" y="702"/>
      <point x="69" y="691"/>
      <point x="69" y="670" type="curve" smooth="yes"/>
      <point x="69" y="30" type="line" smooth="yes"/>
      <point x="69" y="9"/>
      <point x="87" y="-2"/>
    </contour>
  </outline>
</glyph>
<glyph name="S" format="2">
  <advance width="500"/>
  <unicode hex="0053"/>
  <anchor x="250" y="0" name="bottom"/>
  <anchor x="250" y="700" name="top"/>
  <outline>
    <contour>
      <point x="257" y="-8" type="curve" smooth="yes"/>
      <point x="366" y="-8"/>
      <point x="483" y="48"/>
      <point x="483" y="211" type="curve" smooth="yes"/>
      <point x="483" y="347"/>
      <point x="383" y="388"/>
      <point x="301" y="422" type="curve" smooth="yes"/>
      <point x="243.5" y="445.5"/>
      <point x="194" y="465"/>
      <point x="194" y="520" type="curve" smooth="yes"/>
      <point x="194" y="543"/>
      <point x="209" y="576"/>
      <point x="287" y="576" type="curve" smooth="yes"/>
      <point x="320" y="576"/>
      <point x="344" y="570"/>
      <point x="362" y="564" type="curve" smooth="yes"/>
      <point x="380" y="557"/>
      <point x="391" y="551"/>
      <point x="398" y="551" type="curve" smooth="yes"/>
      <point x="422" y="551"/>
      <point x="453" y="611"/>
      <point x="453" y="638" type="curve" smooth="yes"/>
      <point x="453" y="649"/>
      <point x="445" y="660"/>
      <point x="431" y="670" type="curve" smooth="yes"/>
      <point x="401" y="691"/>
      <point x="344" y="708"/>
      <point x="273" y="708" type="curve" smooth="yes"/>
      <point x="156" y="708"/>
      <point x="36" y="650"/>
      <point x="36" y="506" type="curve" smooth="yes"/>
      <point x="36" y="386"/>
      <point x="102" y="338"/>
      <point x="171" y="305" type="curve" smooth="yes"/>
      <point x="245.5" y="269.5"/>
      <point x="325" y="253"/>
      <point x="325" y="193" type="curve" smooth="yes"/>
      <point x="325" y="136"/>
      <point x="274" y="123"/>
      <point x="231" y="123" type="curve" smooth="yes"/>
      <point x="177" y="123"/>
      <point x="138" y="144"/>
      <point x="112" y="157" type="curve" smooth="yes"/>
      <point x="99" y="164"/>
      <point x="90" y="169"/>
      <point x="84" y="169" type="curve" smooth="yes"/>
      <point x="63" y="169"/>
      <point x="22" y="111"/>
      <point x="22" y="80" type="curve" smooth="yes"/>
      <point x="22" y="69"/>
      <point x="31" y="55"/>
      <point x="50" y="42" type="curve" smooth="yes"/>
      <point x="86" y="16"/>
      <point x="156" y="-8"/>
    </contour>
  </outline>
</glyph>
<glyph name="T" format="2">
  <advance width="549"/>
  <unicode hex="0054"/>
  <anchor x="275" y="0" name="bottom"/>
  <anchor x="275" y="350" name="center"/>
  <anchor x="275" y="700" name="top"/>
  <outline>
    <contour>
      <point x="257" y="-2" type="curve" smooth="yes"/>
      <point x="292" y="-2" type="line" smooth="yes"/>
      <point x="334" y="-2"/>
      <point x="352" y="9"/>
      <point x="352" y="30" type="curve" smooth="yes"/>
      <point x="352" y="569" type="line"/>
      <point x="511" y="569" type="line" smooth="yes"/>
      <point x="532" y="569"/>
      <point x="541" y="584"/>
      <point x="541" y="619" type="curve" smooth="yes"/>
      <point x="541" y="650" type="line" smooth="yes"/>
      <point x="541" y="685"/>
      <point x="532" y="700"/>
      <point x="511" y="700" type="curve" smooth="yes"/>
      <point x="38" y="700" type="line" smooth="yes"/>
      <point x="17" y="700"/>
      <point x="8" y="685"/>
      <point x="8" y="650" type="curve" smooth="yes"/>
      <point x="8" y="619" type="line" smooth="yes"/>
      <point x="8" y="584"/>
      <point x="17" y="569"/>
      <point x="38" y="569" type="curve" smooth="yes"/>
      <point x="197" y="569" type="line"/>
      <point x="197" y="30" type="line" smooth="yes"/>
      <point x="197" y="9"/>
      <point x="215" y="-2"/>
    </contour>
  </outline>
</glyph>
<glyph name="W" format="2">
  <advance width="882"/>
  <unicode hex="0057"/>
  <anchor x="441" y="700" name="top"/>
  <outline>
    <contour>
      <point x="211" y="-2" type="curve" smooth="yes"/>
      <point x="283" y="-2" type="line" smooth="yes"/>
      <point x="311" y="-2"/>
      <point x="334.5" y="5"/>
      <point x="338" y="19" type="curve" smooth="yes"/>
      <point x="423" y="365" type="line"/>
      <point x="440" y="433" type="line"/>
      <point x="456" y="365" type="line"/>
      <point x="538" y="19" type="line" smooth="yes"/>
      <point x="541" y="5"/>
      <point x="565" y="-2"/>
      <point x="593" y="-2" type="curve" smooth="yes"/>
      <point x="666" y="-2" type="line" smooth="yes"/>
      <point x="694" y="-2"/>
      <point x="717.5" y="5"/>
      <point x="721" y="19" type="curve" smooth="yes"/>
      <point x="884" y="661" type="line" smooth="yes"/>
      <point x="885.5" y="667"/>
      <point x="886" y="672"/>
      <point x="886" y="676" type="curve" smooth="yes"/>
      <point x="886" y="692"/>
      <point x="867" y="702"/>
      <point x="824" y="702" type="curve" smooth="yes"/>
      <point x="813" y="702" type="line" smooth="yes"/>
      <point x="774" y="702"/>
      <point x="751" y="692"/>
      <point x="746" y="671" type="curve" smooth="yes"/>
      <point x="668" y="349" type="line" smooth="yes"/>
      <point x="659" y="311"/>
      <point x="647" y="253"/>
      <point x="634" y="198" type="curve"/>
      <point x="622" y="254"/>
      <point x="609" y="311"/>
      <point x="600" y="349" type="curve" smooth="yes"/>
      <point x="521" y="681" type="line" smooth="yes"/>
      <point x="517" y="697"/>
      <point x="498" y="702"/>
      <point x="466" y="702" type="curve" smooth="yes"/>
      <point x="428" y="702" type="line" smooth="yes"/>
      <point x="396" y="702"/>
      <point x="377" y="697"/>
      <point x="373" y="681" type="curve" smooth="yes"/>
      <point x="291" y="349" type="line" smooth="yes"/>
      <point x="282.5" y="315"/>
      <point x="266" y="261"/>
      <point x="257" y="205" type="curve"/>
      <point x="245" y="261"/>
      <point x="234" y="315"/>
      <point x="226" y="349" type="curve" smooth="yes"/>
      <point x="151" y="671" type="line" smooth="yes"/>
      <point x="146" y="692"/>
      <point x="123" y="702"/>
      <point x="84" y="702" type="curve" smooth="yes"/>
      <point x="58" y="702" type="line" smooth="yes"/>
      <point x="15" y="702"/>
      <point x="-4" y="692"/>
      <point x="-4" y="676" type="curve" smooth="yes"/>
      <point x="-4" y="672"/>
      <point x="-3.5" y="667"/>
      <point x="-2" y="661" type="curve" smooth="yes"/>
      <point x="156" y="19" type="line" smooth="yes"/>
      <point x="159.5" y="5"/>
      <point x="179" y="-2"/>
    </contour>
  </outline>
</glyph>
<glyph name="X" format="2">
  <advance width="611"/>
  <unicode hex="0058"/>
  <outline>
    <contour>
      <point x="71" y="-2" type="curve" smooth="yes"/>
      <point x="109" y="-2" type="line" smooth="yes"/>
      <point x="138" y="-2"/>
      <point x="158" y="-1"/>
      <point x="170" y="17" type="curve" smooth="yes"/>
      <point x="308" y="232" type="line"/>
      <point x="441" y="17" type="line" smooth="yes"/>
      <point x="450" y="2"/>
      <point x="472" y="-2"/>
      <point x="501" y="-2" type="curve" smooth="yes"/>
      <point x="540" y="-2" type="line" smooth="yes"/>
      <point x="584" y="-2"/>
      <point x="603" y="5"/>
      <point x="603" y="17" type="curve" smooth="yes"/>
      <point x="603" y="24"/>
      <point x="600" y="32"/>
      <point x="594" y="42" type="curve" smooth="yes"/>
      <point x="394" y="363" type="line"/>
      <point x="583" y="658" type="line" smooth="yes"/>
      <point x="589.5" y="668"/>
      <point x="593" y="677"/>
      <point x="593" y="683" type="curve" smooth="yes"/>
      <point x="593" y="695"/>
      <point x="573" y="702"/>
      <point x="530" y="702" type="curve" smooth="yes"/>
      <point x="491" y="702" type="line" smooth="yes"/>
      <point x="462" y="702"/>
      <point x="441" y="700"/>
      <point x="430" y="683" type="curve" smooth="yes"/>
      <point x="310" y="497" type="line"/>
      <point x="196" y="683" type="line" smooth="yes"/>
      <point x="187" y="698"/>
      <point x="165" y="702"/>
      <point x="136" y="702" type="curve" smooth="yes"/>
      <point x="95" y="702" type="line" smooth="yes"/>
      <point x="51" y="702"/>
      <point x="31" y="694"/>
      <point x="31" y="683" type="curve" smooth="yes"/>
      <point x="31" y="676"/>
      <point x="35" y="668"/>
      <point x="41" y="658" type="curve" smooth="yes"/>
      <point x="224" y="365" type="line"/>
      <point x="18" y="42" type="line" smooth="yes"/>
      <point x="11" y="31"/>
      <point x="8" y="23"/>
      <point x="8" y="17" type="curve" smooth="yes"/>
      <point x="8" y="5"/>
      <point x="27" y="-2"/>
    </contour>
  </outline>
</glyph>
<glyph name="bracketleft" format="2">
  <advance width="291"/>
  <unicode hex="005B"/>
  <outline>
    <contour>
      <point x="105" y="-138" type="curve" smooth="yes"/>
      <point x="231" y="-138" type="line" smooth="yes"/>
      <point x="252" y="-138"/>
      <point x="261" y="-126"/>
      <point x="261" y="-98" type="curve" smooth="yes"/>
      <point x="261" y="-83" type="line" smooth="yes"/>
      <point x="261" y="-55"/>
      <point x="252" y="-43"/>
      <point x="231" y="-43" type="curve" smooth="yes"/>
      <point x="180" y="-43" type="line"/>
      <point x="180" y="673" type="line"/>
      <point x="231" y="673" type="line" smooth="yes"/>
      <point x="252" y="673"/>
      <point x="261" y="685"/>
      <point x="261" y="713" type="curve" smooth="yes"/>
      <point x="261" y="728" type="line" smooth="yes"/>
      <point x="261" y="756"/>
      <point x="252" y="768"/>
      <point x="231" y="768" type="curve" smooth="yes"/>
      <point x="105" y="768" type="line" smooth="yes"/>
      <point x="77" y="768"/>
      <point x="65" y="756"/>
      <point x="65" y="728" type="curve" smooth="yes"/>
      <point x="65" y="-98" type="line" smooth="yes"/>
      <point x="65" y="-126"/>
      <point x="77" y="-138"/>
    </contour>
  </outline>
</glyph>
<glyph name="backslash" format="2">
  <advance width="361"/>
  <unicode hex="005C"/>
  <outline>
    <contour>
      <point x="295" y="-22" type="curve" smooth="yes"/>
      <point x="319" y="-22" type="line" smooth="yes"/>
      <point x="348" y="-22"/>
      <point x="362" y="-16"/>
      <point x="362" y="-6" type="curve" smooth="yes"/>
      <point x="362" y="-2"/>
      <point x="361" y="3"/>
      <point x="359" y="8" type="curve" smooth="yes"/>
      <point x="128" y="672" type="line" smooth="yes"/>
      <point x="120.5" y="694"/>
      <point x="99" y="702"/>
      <point x="68" y="702" type="curve" smooth="yes"/>
      <point x="45" y="702" type="line" smooth="yes"/>
      <point x="15" y="702"/>
      <point x="2" y="695"/>
      <point x="2" y="685" type="curve" smooth="yes"/>
      <point x="2" y="681"/>
      <point x="3" y="677"/>
      <point x="5" y="672" type="curve" smooth="yes"/>
      <point x="235" y="8" type="line" smooth="yes"/>
      <point x="242" y="-13"/>
      <point x="264" y="-22"/>
    </contour>
  </outline>
</glyph>
<glyph name="asciicircum" format="2">
  <advance width="450"/>
  <unicode hex="005E"/>
  <outline>
    <contour>
      <point x="67" y="318" type="curve"/>
      <point x="88" y="318" type="line" smooth="yes"/>
      <point x="114" y="318"/>
      <point x="130" y="327"/>
      <point x="139" y="348" type="curve" smooth="yes"/>
      <point x="225" y="555" type="line"/>
      <point x="311" y="348" type="line" smooth="yes"/>
      <point x="320" y="327"/>
      <point x="337" y="318"/>
      <point x="363" y="318" type="curve" smooth="yes"/>
      <point x="384" y="318" type="line" smooth="yes"/>
      <point x="406" y="318"/>
      <point x="416" y="324"/>
      <point x="416" y="333" type="curve" smooth="yes"/>
      <point x="416" y="337"/>
      <point x="414.5" y="342"/>
      <point x="412" y="348" type="curve" smooth="yes"/>
      <point x="283" y="656" type="line" smooth="yes"/>
      <point x="274.5" y="676"/>
      <point x="261" y="686"/>
      <point x="241" y="686" type="curve" smooth="yes"/>
      <point x="210" y="686" type="line" smooth="yes"/>
      <point x="189" y="686"/>
      <point x="176" y="676"/>
      <point x="168" y="656" type="curve" smooth="yes"/>
      <point x="39" y="348" type="line" smooth="yes"/>
      <point x="36.5" y="342"/>
      <point x="35" y="337"/>
      <point x="35" y="333" type="curve" smooth="yes"/>
      <point x="35" y="324"/>
      <point x="45" y="318"/>
    </contour>
  </outline>
</glyph>
<glyph name="underscore" format="2">
  <advance width="534"/>
  <unicode hex="005F"/>
  <outline>
    <contour>
      <point x="10" y="-143" type="curve" smooth="yes"/>
      <point x="525" y="-143" type="line" smooth="yes"/>
      <point x="546" y="-143"/>
      <point x="555" y="-128"/>
      <point x="555" y="-93" type="curve" smooth="yes"/>
      <point x="555" y="-86" type="line" smooth="yes"/>
      <point x="555" y="-51"/>
      <point x="546" y="-36"/>
      <point x="525" y="-36" type="curve" smooth="yes"/>
      <point x="10" y="-36" type="line" smooth="yes"/>
      <point x="-11" y="-36"/>
      <point x="-20" y="-51"/>
      <point x="-20" y="-86" type="curve" smooth="yes"/>
      <point x="-20" y="-93" type="line" smooth="yes"/>
      <point x="-20" y="-128"/>
      <point x="-11" y="-143"/>
    </contour>
  </outline>
</glyph>
<glyph name="grave" format="2">
  <advance width="320"/>
  <unicode hex="0060"/>
  <anchor x="188" y="523" name="_top"/>
  <outline>
    <contour>
      <point x="233" y="575" type="curve" smooth="yes"/>
      <point x="257" y="575"/>
      <point x="264" y="579"/>
      <point x="264" y="590" type="curve" smooth="yes"/>
      <point x="264" y="601"/>
      <point x="245" y="626"/>
      <point x="199" y="707" type="curve" smooth="yes"/>
      <point x="187" y="728"/>
      <point x="154" y="734"/>
      <point x="114" y="734" type="curve" smooth="yes"/>
      <point x="74" y="734"/>
      <point x="54" y="731"/>
      <point x="54" y="720" type="curve" smooth="yes"/>
      <point x="54" y="708"/>
      <point x="61" y="706"/>
      <point x="158" y="600" type="curve" smooth="yes"/>
      <point x="169" y="588"/>
      <point x="186" y="575"/>
    </contour>
  </outline>
</glyph>
<glyph name="a" format="2">
  <advance width="545"/>
  <unicode hex="0061"/>
  <anchor x="273" y="0" name="bottom"/>
  <anchor x="482" y="31" name="ogonek"/>
  <anchor x="273" y="523" name="top"/>
  <outline>
    <contour>
      <point x="190" y="-8" type="curve" smooth="yes"/>
      <point x="282" y="-8"/>
      <point x="330" y="55"/>
      <point x="337" y="68" type="curve"/>
      <point x="343" y="41"/>
      <point x="345" y="-1"/>
      <point x="377" y="-1" type="curve" smooth="yes"/>
      <point x="402" y="-1"/>
      <point x="489" y="7"/>
      <point x="489" y="31" type="curve" smooth="yes"/>
      <point x="489" y="52"/>
      <point x="477" y="73"/>
      <point x="477" y="176" type="curve" smooth="yes"/>
      <point x="477" y="364" type="line" smooth="yes"/>
      <point x="477" y="461"/>
      <point x="420" y="531"/>
      <point x="262" y="531" type="curve" smooth="yes"/>
      <point x="151" y="531"/>
      <point x="71" y="496"/>
      <point x="71" y="462" type="curve" smooth="yes"/>
      <point x="71" y="441"/>
      <point x="102" y="382"/>
      <point x="123" y="382" type="curve" smooth="yes"/>
      <point x="135" y="382"/>
      <point x="178" y="414"/>
      <point x="251" y="414" type="curve" smooth="yes"/>
      <point x="306" y="414"/>
      <point x="329" y="395"/>
      <point x="329" y="357" type="curve" smooth="yes"/>
      <point x="329" y="324" type="line"/>
      <point x="75" y="324"/>
      <point x="42" y="220"/>
      <point x="42" y="138" type="curve" smooth="yes"/>
      <point x="42" y="56"/>
      <point x="82" y="-8"/>
    </contour>
    <contour>
      <point x="239" y="109" type="curve" smooth="yes"/>
      <point x="206" y="109"/>
      <point x="189" y="128"/>
      <point x="189" y="153" type="curve" smooth="yes"/>
      <point x="189" y="201"/>
      <point x="234" y="227"/>
      <point x="329" y="227" type="curve"/>
      <point x="329" y="172" type="line"/>
      <point x="313" y="136"/>
      <point x="277" y="109"/>
    </contour>
  </outline>
</glyph>
<glyph name="b" format="2">
  <advance width="569"/>
  <unicode hex="0062"/>
  <outline>
    <contour>
      <point x="340" y="-8" type="curve" smooth="yes"/>
      <point x="448" y="-8"/>
      <point x="527" y="88"/>
      <point x="527" y="262" type="curve" smooth="yes"/>
      <point x="527" y="425"/>
      <point x="451" y="531"/>
      <point x="316" y="531" type="curve" smooth="yes"/>
      <point x="269" y="531"/>
      <point x="235" y="515"/>
      <point x="214" y="500" type="curve"/>
      <point x="214" y="722" type="line" smooth="yes"/>
      <point x="214" y="743"/>
      <point x="196" y="754"/>
      <point x="154" y="754" type="curve" smooth="yes"/>
      <point x="126" y="754" type="line" smooth="yes"/>
      <point x="84" y="754"/>
      <point x="66" y="743"/>
      <point x="66" y="722" type="curve" smooth="yes"/>
      <point x="66" y="30" type="line" smooth="yes"/>
      <point x="66" y="9"/>
      <point x="84" y="-2"/>
      <point x="126" y="-2" type="curve" smooth="yes"/>
      <point x="138" y="-2" type="line" smooth="yes"/>
      <point x="170" y="-2"/>
      <point x="190" y="2"/>
      <point x="196" y="24" type="curve" smooth="yes"/>
      <point x="200" y="38"/>
      <point x="203" y="53"/>
      <point x="206" y="67" type="curve"/>
      <point x="229" y="24"/>
      <point x="278" y="-8"/>
    </contour>
    <contour>
      <point x="296" y="113" type="curve" smooth="yes"/>
      <point x="258" y="113"/>
      <point x="232" y="141"/>
      <point x="214" y="172" type="curve"/>
      <point x="214" y="395" type="line"/>
      <point x="230" y="404"/>
      <point x="253" y="414"/>
      <point x="284" y="414" type="curve" smooth="yes"/>
      <point x="347" y="414"/>
      <point x="377" y="362"/>
      <point x="377" y="262" type="curve" smooth="yes"/>
      <point x="377" y="165"/>
      <point x="351" y="113"/>
    </contour>
  </outline>
</glyph>
<glyph name="d" format="2">
  <advance width="565"/>
  <unicode hex="0064"/>
  <anchor x="291" y="0" name="bottom"/>
  <anchor x="498" y="700" name="caron"/>
  <anchor x="417" y="630" name="center"/>
  <outline>
    <contour>
      <point x="229" y="-8" type="curve" smooth="yes"/>
      <point x="291" y="-8"/>
      <point x="340" y="24"/>
      <point x="363" y="67" type="curve"/>
      <point x="369" y="41"/>
      <point x="371" y="-1"/>
      <point x="403" y="-1" type="curve" smooth="yes"/>
      <point x="428" y="-1"/>
      <point x="515" y="7"/>
      <point x="515" y="31" type="curve" smooth="yes"/>
      <point x="515" y="52"/>
      <point x="503" y="73"/>
      <point x="503" y="176" type="curve" smooth="yes"/>
      <point x="503" y="722" type="line" smooth="yes"/>
      <point x="503" y="743"/>
      <point x="485" y="754"/>
      <point x="443" y="754" type="curve" smooth="yes"/>
      <point x="415" y="754" type="line" smooth="yes"/>
      <point x="373" y="754"/>
      <point x="355" y="743"/>
      <point x="355" y="722" type="curve" smooth="yes"/>
      <point x="355" y="500" type="line"/>
      <point x="334" y="515"/>
      <point x="300" y="531"/>
      <point x="253" y="531" type="curve" smooth="yes"/>
      <point x="118" y="531"/>
      <point x="42" y="425"/>
      <point x="42" y="262" type="curve" smooth="yes"/>
      <point x="42" y="88"/>
      <point x="121" y="-8"/>
    </contour>
    <contour>
      <point x="273" y="113" type="curve" smooth="yes"/>
      <point x="218" y="113"/>
      <point x="192" y="165"/>
      <point x="192" y="262" type="curve" smooth="yes"/>
      <point x="192" y="362"/>
      <point x="222" y="414"/>
      <point x="285" y="414" type="curve" smooth="yes"/>
      <point x="316" y="414"/>
      <point x="339" y="404"/>
      <point x="355" y="395" type="curve"/>
      <point x="355" y="172" type="line"/>
      <point x="337" y="141"/>
      <point x="311" y="113"/>
    </contour>
  </outline>
</glyph>
<glyph name="f" format="2">
  <advance width="325"/>
  <unicode hex="0066"/>
  <anchor x="163" y="0" name="bottom"/>
  <anchor x="163" y="700" name="top"/>
  <outline>
    <contour>
      <point x="139" y="-2" type="curve" smooth="yes"/>
      <point x="167" y="-2" type="line" smooth="yes"/>
      <point x="209" y="-2"/>
      <point x="227" y="9"/>
      <point x="227" y="30" type="curve" smooth="yes"/>
      <point x="227" y="406" type="line"/>
      <point x="277" y="406" type="line" smooth="yes"/>
      <point x="298" y="406"/>
      <point x="307" y="421"/>
      <point x="307" y="456" type="curve" smooth="yes"/>
      <point x="307" y="473" type="line" smooth="yes"/>
      <point x="307" y="508"/>
      <point x="298" y="523"/>
      <point x="277" y="523" type="curve" smooth="yes"/>
      <point x="227" y="523" type="line"/>
      <point x="227" y="600" type="line" smooth="yes"/>
      <point x="227" y="630"/>
      <point x="237" y="643"/>
      <point x="263" y="643" type="curve" smooth="yes"/>
      <point x="273" y="643"/>
      <point x="287" y="639"/>
      <point x="294" y="639" type="curve" smooth="yes"/>
      <point x="314" y="639"/>
      <point x="325" y="703"/>
      <point x="325" y="711" type="curve" smooth="yes"/>
      <point x="325" y="757"/>
      <point x="257" y="760"/>
      <point x="225" y="760" type="curve" smooth="yes"/>
      <point x="131" y="760"/>
      <point x="79" y="709"/>
      <point x="79" y="598" type="curve" smooth="yes"/>
      <point x="79" y="523" type="line"/>
      <point x="61" y="523" type="line" smooth="yes"/>
      <point x="40" y="523"/>
      <point x="31" y="508"/>
      <point x="31" y="473" type="curve" smooth="yes"/>
      <point x="31" y="456" type="line" smooth="yes"/>
      <point x="31" y="421"/>
      <point x="40" y="406"/>
      <point x="61" y="406" type="curve" smooth="yes"/>
      <point x="79" y="406" type="line"/>
      <point x="79" y="30" type="line" smooth="yes"/>
      <point x="79" y="9"/>
      <point x="97" y="-2"/>
    </contour>
  </outline>
</glyph>
<glyph name="l" format="2">
  <advance width="297"/>
  <unicode hex="006C"/>
  <anchor x="183" y="0" name="bottom"/>
  <anchor x="193" y="752" name="caron"/>
  <anchor x="305" y="335" name="center"/>
  <anchor x="136" y="720" name="top"/>
  <outline>
    <contour>
      <point x="209" y="-8" type="curve" smooth="yes"/>
      <point x="240" y="-8"/>
      <point x="305" y="-5"/>
      <point x="305" y="41" type="curve" smooth="yes"/>
      <point x="305" y="49"/>
      <point x="294" y="113"/>
      <point x="274" y="113" type="curve" smooth="yes"/>
      <point x="268" y="113"/>
      <point x="256" y="109"/>
      <point x="247" y="109" type="curve" smooth="yes"/>
      <point x="221" y="109"/>
      <point x="211" y="122"/>
      <point x="211" y="152" type="curve" smooth="yes"/>
      <point x="211" y="722" type="line" smooth="yes"/>
      <point x="211" y="743"/>
      <point x="193" y="754"/>
      <point x="151" y="754" type="curve" smooth="yes"/>
      <point x="123" y="754" type="line" smooth="yes"/>
      <point x="81" y="754"/>
      <point x="63" y="743"/>
      <point x="63" y="722" type="curve" smooth="yes"/>
      <point x="63" y="154" type="line" smooth="yes"/>
      <point x="63" y="43"/>
      <point x="115" y="-8"/>
    </contour>
  </outline>
</glyph>
<glyph name="m" format="2">
  <advance width="848"/>
  <unicode hex="006D"/>
  <outline>
    <contour>
      <point x="122" y="-2" type="curve" smooth="yes"/>
      <point x="150" y="-2" type="line" smooth="yes"/>
      <point x="192" y="-2"/>
      <point x="210" y="9"/>
      <point x="210" y="30" type="curve" smooth="yes"/>
      <point x="210" y="351" type="line"/>
      <point x="222" y="374"/>
      <point x="248" y="409"/>
      <point x="289" y="409" type="curve" smooth="yes"/>
      <point x="333" y="409"/>
      <point x="348" y="386"/>
      <point x="348" y="347" type="curve" smooth="yes"/>
      <point x="348" y="30" type="line" smooth="yes"/>
      <point x="348" y="9"/>
      <point x="366" y="-2"/>
      <point x="408" y="-2" type="curve" smooth="yes"/>
      <point x="436" y="-2" type="line" smooth="yes"/>
      <point x="478" y="-2"/>
      <point x="496" y="9"/>
      <point x="496" y="30" type="curve" smooth="yes"/>
      <point x="496" y="366" type="line" smooth="yes"/>
      <point x="496" y="383"/>
      <point x="493" y="401"/>
      <point x="488" y="418" type="curve"/>
      <point x="488" y="337" type="line"/>
      <point x="492" y="342"/>
      <point x="516" y="409"/>
      <point x="575" y="409" type="curve" smooth="yes"/>
      <point x="619" y="409"/>
      <point x="634" y="386"/>
      <point x="634" y="347" type="curve" smooth="yes"/>
      <point x="634" y="30" type="line" smooth="yes"/>
      <point x="634" y="9"/>
      <point x="652" y="-2"/>
      <point x="694" y="-2" type="curve" smooth="yes"/>
      <point x="722" y="-2" type="line" smooth="yes"/>
      <point x="764" y="-2"/>
      <point x="782" y="9"/>
      <point x="782" y="30" type="curve" smooth="yes"/>
      <point x="782" y="369" type="line" smooth="yes"/>
      <point x="782" y="480"/>
      <point x="736" y="531"/>
      <point x="636" y="531" type="curve" smooth="yes"/>
      <point x="569" y="531"/>
      <point x="512" y="493"/>
      <point x="482" y="455" type="curve"/>
      <point x="462" y="507"/>
      <point x="419" y="531"/>
      <point x="350" y="531" type="curve" smooth="yes"/>
      <point x="285" y="531"/>
      <point x="231" y="493"/>
      <point x="202" y="455" type="curve"/>
      <point x="196" y="480"/>
      <point x="194" y="520"/>
      <point x="162" y="520" type="curve" smooth="yes"/>
      <point x="137" y="520"/>
      <point x="50" y="512"/>
      <point x="50" y="488" type="curve" smooth="yes"/>
      <point x="50" y="468"/>
      <point x="62" y="447"/>
      <point x="62" y="347" type="curve" smooth="yes"/>
      <point x="62" y="30" type="line" smooth="yes"/>
      <point x="62" y="9"/>
      <point x="80" y="-2"/>
    </contour>
  </outline>
</glyph>
<glyph name="o" format="2">
  <advance width="569"/>
  <unicode hex="006F"/>
  <anchor x="291" y="0" name="bottom"/>
  <anchor x="387" y="505" name="horn"/>
  <anchor x="353" y="0" name="ogonek"/>
  <anchor x="285" y="523" name="top"/>
  <outline>
    <contour>
      <point x="285" y="-8" type="curve" smooth="yes"/>
      <point x="444" y="-8"/>
      <point x="527" y="88"/>
      <point x="527" y="262" type="curve" smooth="yes"/>
      <point x="527" y="436"/>
      <point x="444" y="531"/>
      <point x="285" y="531" type="curve" smooth="yes"/>
      <point x="126" y="531"/>
      <point x="42" y="436"/>
      <point x="42" y="262" type="curve" smooth="yes"/>
      <point x="42" y="88"/>
      <point x="126" y="-8"/>
    </contour>
    <contour>
      <point x="285" y="109" type="curve" smooth="yes"/>
      <point x="221" y="109"/>
      <point x="192" y="162"/>
      <point x="192" y="262" type="curve" smooth="yes"/>
      <point x="192" y="362"/>
      <point x="221" y="414"/>
      <point x="285" y="414" type="curve" smooth="yes"/>
      <point x="349" y="414"/>
      <point x="377" y="362"/>
      <point x="377" y="262" type="curve" smooth="yes"/>
      <point x="377" y="162"/>
      <point x="349" y="109"/>
    </contour>
  </outline>
</glyph>
<glyph name="u" format="2">
  <advance width="557"/>
  <unicode hex="0075"/>
  <anchor x="251" y="0" name="bottom"/>
  <anchor x="407" y="525" name="horn"/>
  <anchor x="454" y="10" name="ogonek"/>
  <anchor x="279" y="523" name="top"/>
  <outline>
    <contour>
      <point x="206" y="-8" type="curve" smooth="yes"/>
      <point x="271" y="-8"/>
      <point x="326" y="30"/>
      <point x="355" y="68" type="curve"/>
      <point x="361" y="41"/>
      <point x="363" y="-1"/>
      <point x="395" y="-1" type="curve" smooth="yes"/>
      <point x="420" y="-1"/>
      <point x="507" y="7"/>
      <point x="507" y="31" type="curve" smooth="yes"/>
      <point x="507" y="52"/>
      <point x="495" y="73"/>
      <point x="495" y="176" type="curve" smooth="yes"/>
      <point x="495" y="493" type="line" smooth="yes"/>
      <point x="495" y="514"/>
      <point x="477" y="525"/>
      <point x="435" y="525" type="curve" smooth="yes"/>
      <point x="407" y="525" type="line" smooth="yes"/>
      <point x="365" y="525"/>
      <point x="347" y="514"/>
      <point x="347" y="493" type="curve" smooth="yes"/>
      <point x="347" y="172" type="line"/>
      <point x="335" y="149"/>
      <point x="308" y="114"/>
      <point x="267" y="114" type="curve" smooth="yes"/>
      <point x="223" y="114"/>
      <point x="207" y="137"/>
      <point x="207" y="176" type="curve" smooth="yes"/>
      <point x="207" y="493" type="line" smooth="yes"/>
      <point x="207" y="514"/>
      <point x="189" y="525"/>
      <point x="147" y="525" type="curve" smooth="yes"/>
      <point x="119" y="525" type="line" smooth="yes"/>
      <point x="77" y="525"/>
      <point x="59" y="514"/>
      <point x="59" y="493" type="curve" smooth="yes"/>
      <point x="59" y="154" type="line" smooth="yes"/>
      <point x="59" y="43"/>
      <point x="106" y="-8"/>
    </contour>
  </outline>
</glyph>
<glyph name="v" format="2">
  <advance width="485"/>
  <unicode hex="0076"/>
  <outline>
    <contour>
      <point x="226" y="-2" type="curve" smooth="yes"/>
      <point x="258" y="-2" type="line" smooth="yes"/>
      <point x="287" y="-2"/>
      <point x="308.5" y="3"/>
      <point x="314" y="19" type="curve" smooth="yes"/>
      <point x="473" y="485" type="line" smooth="yes"/>
      <point x="475" y="492"/>
      <point x="476" y="498"/>
      <point x="476" y="503" type="curve" smooth="yes"/>
      <point x="476" y="517"/>
      <point x="458" y="525"/>
      <point x="416" y="525" type="curve" smooth="yes"/>
      <point x="391" y="525" type="line" smooth="yes"/>
      <point x="362" y="525"/>
      <point x="340" y="520"/>
      <point x="335" y="504" type="curve" smooth="yes"/>
      <point x="276" y="319" type="line" smooth="yes"/>
      <point x="269" y="296"/>
      <point x="257" y="242"/>
      <point x="248" y="198" type="curve"/>
      <point x="244" y="198" type="line"/>
      <point x="234" y="242"/>
      <point x="223.5" y="295"/>
      <point x="216" y="319" type="curve" smooth="yes"/>
      <point x="157" y="504" type="line" smooth="yes"/>
      <point x="152" y="520"/>
      <point x="130" y="525"/>
      <point x="101" y="525" type="curve" smooth="yes"/>
      <point x="68" y="525" type="line" smooth="yes"/>
      <point x="26" y="525"/>
      <point x="7" y="517"/>
      <point x="7" y="503" type="curve" smooth="yes"/>
      <point x="7" y="498"/>
      <point x="9" y="492"/>
      <point x="11" y="485" type="curve" smooth="yes"/>
      <point x="170" y="19" type="line" smooth="yes"/>
      <point x="175.5" y="3"/>
      <point x="197" y="-2"/>
    </contour>
  </outline>
</glyph>
<glyph name="w" format="2">
  <advance width="747"/>
  <unicode hex="0077"/>
  <anchor x="374" y="523" name="top"/>
  <outline>
    <contour>
      <point x="201" y="-2" type="curve" smooth="yes"/>
      <point x="250" y="-2" type="line" smooth="yes"/>
      <point x="278" y="-2"/>
      <point x="302" y="5"/>
      <point x="305" y="19" type="curve" smooth="yes"/>
      <point x="362" y="256" type="line"/>
      <point x="365" y="269"/>
      <point x="368" y="308"/>
      <point x="371" y="323" type="curve"/>
      <point x="375" y="323" type="line"/>
      <point x="378" y="309"/>
      <point x="381" y="269"/>
      <point x="384" y="257" type="curve"/>
      <point x="445" y="19" type="line" smooth="yes"/>
      <point x="449" y="5"/>
      <point x="468" y="-2"/>
      <point x="500" y="-2" type="curve" smooth="yes"/>
      <point x="549" y="-2" type="line" smooth="yes"/>
      <point x="577" y="-2"/>
      <point x="601" y="5"/>
      <point x="604" y="19" type="curve" smooth="yes"/>
      <point x="722" y="484" type="line" smooth="yes"/>
      <point x="724" y="490"/>
      <point x="724" y="495"/>
      <point x="724" y="499" type="curve" smooth="yes"/>
      <point x="724" y="515"/>
      <point x="705" y="525"/>
      <point x="662" y="525" type="curve" smooth="yes"/>
      <point x="626" y="525"/>
      <point x="606" y="518"/>
      <point x="603" y="504" type="curve" smooth="yes"/>
      <point x="539" y="240" type="line"/>
      <point x="535" y="227"/>
      <point x="530" y="186"/>
      <point x="526" y="171" type="curve"/>
      <point x="524" y="171" type="line"/>
      <point x="521" y="185"/>
      <point x="515" y="225"/>
      <point x="512" y="237" type="curve"/>
      <point x="448" y="504" type="line" smooth="yes"/>
      <point x="445" y="518"/>
      <point x="421" y="525"/>
      <point x="393" y="525" type="curve" smooth="yes"/>
      <point x="369" y="525" type="line" smooth="yes"/>
      <point x="337" y="525"/>
      <point x="318" y="518"/>
      <point x="314" y="504" type="curve" smooth="yes"/>
      <point x="250" y="243" type="line"/>
      <point x="247" y="230"/>
      <point x="240" y="190"/>
      <point x="237" y="175" type="curve"/>
      <point x="233" y="175" type="line"/>
      <point x="230" y="189"/>
      <point x="226" y="228"/>
      <point x="223" y="240" type="curve"/>
      <point x="159" y="504" type="line" smooth="yes"/>
      <point x="155" y="519"/>
      <point x="134" y="525"/>
      <point x="80" y="525" type="curve" smooth="yes"/>
      <point x="37" y="525"/>
      <point x="18" y="515"/>
      <point x="18" y="499" type="curve" smooth="yes"/>
      <point x="18" y="495"/>
      <point x="18" y="490"/>
      <point x="20" y="484" type="curve" smooth="yes"/>
      <point x="146" y="19" type="line" smooth="yes"/>
      <point x="150" y="5"/>
      <point x="168" y="-2"/>
    </contour>
  </outline>
</glyph>
<glyph name="x" format="2">
  <advance width="485"/>
  <unicode hex="0078"/>
  <outline>
    <contour>
      <point x="68" y="-2" type="curve" smooth="yes"/>
      <point x="98" y="-2" type="line" smooth="yes"/>
      <point x="127" y="-2"/>
      <point x="148" y="-1"/>
      <point x="159" y="17" type="curve" smooth="yes"/>
      <point x="229" y="127" type="line" smooth="yes"/>
      <point x="233" y="134"/>
      <point x="238" y="141"/>
      <point x="242" y="148" type="curve"/>
      <point x="246" y="141"/>
      <point x="251" y="134"/>
      <point x="255" y="127" type="curve" smooth="yes"/>
      <point x="324" y="17" type="line" smooth="yes"/>
      <point x="335" y="-1"/>
      <point x="356" y="-2"/>
      <point x="385" y="-2" type="curve" smooth="yes"/>
      <point x="417" y="-2" type="line" smooth="yes"/>
      <point x="460" y="-2"/>
      <point x="480" y="5"/>
      <point x="480" y="16" type="curve" smooth="yes"/>
      <point x="480" y="23"/>
      <point x="476" y="31"/>
      <point x="469" y="42" type="curve" smooth="yes"/>
      <point x="321" y="266" type="line"/>
      <point x="467" y="482" type="line" smooth="yes"/>
      <point x="474" y="493"/>
      <point x="478" y="501"/>
      <point x="478" y="507" type="curve" smooth="yes"/>
      <point x="478" y="518"/>
      <point x="458" y="525"/>
      <point x="415" y="525" type="curve" smooth="yes"/>
      <point x="386" y="525" type="line" smooth="yes"/>
      <point x="357" y="525"/>
      <point x="336" y="524"/>
      <point x="325" y="506" type="curve" smooth="yes"/>
      <point x="263" y="409" type="line" smooth="yes"/>
      <point x="257" y="400"/>
      <point x="252" y="392"/>
      <point x="246" y="383" type="curve"/>
      <point x="241" y="391"/>
      <point x="236" y="399"/>
      <point x="231" y="407" type="curve" smooth="yes"/>
      <point x="170" y="506" type="line" smooth="yes"/>
      <point x="159" y="524"/>
      <point x="138" y="525"/>
      <point x="109" y="525" type="curve" smooth="yes"/>
      <point x="77" y="525" type="line" smooth="yes"/>
      <point x="34" y="525"/>
      <point x="14" y="518"/>
      <point x="14" y="507" type="curve" smooth="yes"/>
      <point x="14" y="500"/>
      <point x="18" y="492"/>
      <point x="25" y="481" type="curve" smooth="yes"/>
      <point x="167" y="265" type="line"/>
      <point x="16" y="41" type="line" smooth="yes"/>
      <point x="9" y="30"/>
      <point x="5" y="22"/>
      <point x="5" y="16" type="curve" smooth="yes"/>
      <point x="5" y="5"/>
      <point x="25" y="-2"/>
    </contour>
  </outline>
</glyph>
<glyph name="z" format="2">
  <advance width="489"/>
  <unicode hex="007A"/>
  <anchor x="241" y="0" name="bottom"/>
  <anchor x="245" y="523" name="top"/>
  <outline>
    <contour>
      <point x="56" y="0" type="curve"/>
      <point x="430" y="0" type="line" smooth="yes"/>
      <point x="451" y="0"/>
      <point x="460" y="15"/>
      <point x="460" y="50" type="curve" smooth="yes"/>
      <point x="460" y="67" type="line" smooth="yes"/>
      <point x="460" y="102"/>
      <point x="451" y="117"/>
      <point x="430" y="117" type="curve" smooth="yes"/>
      <point x="225" y="117" type="line"/>
      <point x="453" y="431" type="line" smooth="yes"/>
      <point x="455" y="434"/>
      <point x="456" y="439"/>
      <point x="456" y="446" type="curve" smooth="yes"/>
      <point x="456" y="474"/>
      <point x="438" y="523"/>
      <point x="427" y="523" type="curve" smooth="yes"/>
      <point x="73" y="523" type="line" smooth="yes"/>
      <point x="52" y="523"/>
      <point x="43" y="508"/>
      <point x="43" y="473" type="curve" smooth="yes"/>
      <point x="43" y="456" type="line" smooth="yes"/>
      <point x="43" y="421"/>
      <point x="52" y="406"/>
      <point x="73" y="406" type="curve" smooth="yes"/>
      <point x="259" y="406" type="line"/>
      <point x="30" y="90" type="line" smooth="yes"/>
      <point x="28" y="87"/>
      <point x="27" y="82"/>
      <point x="27" y="76" type="curve" smooth="yes"/>
      <point x="27" y="50"/>
      <point x="43" y="0"/>
    </contour>
  </outline>
</glyph>
<glyph name="braceleft" format="2">
  <advance width="274"/>
  <unicode hex="007B"/>
  <outline>
    <contour>
      <point x="193" y="-138" type="curve" smooth="yes"/>
      <point x="232" y="-138" type="line" smooth="yes"/>
      <point x="253" y="-138"/>
      <point x="262" y="-126"/>
      <point x="262" y="-98" type="curve" smooth="yes"/>
      <point x="262" y="-84" type="line" smooth="yes"/>
      <point x="262" y="-57"/>
      <point x="253" y="-45"/>
      <point x="234" y="-44" type="curve"/>
      <point x="233" y="-44" type="line"/>
      <point x="216" y="-44"/>
      <point x="209" y="-32"/>
      <point x="209" y="-8" type="curve" smooth="yes"/>
      <point x="209" y="162" type="line" smooth="yes"/>
      <point x="209" y="236"/>
      <point x="185" y="290"/>
      <point x="141" y="315" type="curve"/>
      <point x="185" y="340"/>
      <point x="209" y="394"/>
      <point x="209" y="468" type="curve" smooth="yes"/>
      <point x="209" y="638" type="line" smooth="yes"/>
      <point x="209" y="664"/>
      <point x="217" y="674"/>
      <point x="238" y="674" type="curve" smooth="yes"/>
      <point x="236" y="674" type="line" smooth="yes"/>
      <point x="254" y="674"/>
      <point x="262" y="688"/>
      <point x="262" y="714" type="curve" smooth="yes"/>
      <point x="262" y="728" type="line" smooth="yes"/>
      <point x="262" y="756"/>
      <point x="253" y="768"/>
      <point x="232" y="768" type="curve" smooth="yes"/>
      <point x="193" y="768" type="line" smooth="yes"/>
      <point x="135" y="768"/>
      <point x="94" y="720"/>
      <point x="94" y="652" type="curve" smooth="yes"/>
      <point x="94" y="484" type="line" smooth="yes"/>
      <point x="94" y="419"/>
      <point x="82" y="386"/>
      <point x="47" y="371" type="curve"/>
      <point x="28" y="360"/>
      <point x="18" y="347"/>
      <point x="18" y="321" type="curve" smooth="yes"/>
      <point x="18" y="309" type="line" smooth="yes"/>
      <point x="18" y="283"/>
      <point x="28" y="270"/>
      <point x="47" y="259" type="curve"/>
      <point x="82" y="244"/>
      <point x="94" y="211"/>
      <point x="94" y="146" type="curve" smooth="yes"/>
      <point x="94" y="-22" type="line" smooth="yes"/>
      <point x="94" y="-90"/>
      <point x="135" y="-138"/>
    </contour>
  </outline>
</glyph>
<glyph name="bar" format="2">
  <advance width="250"/>
  <unicode hex="007C"/>
  <outline>
    <contour>
      <point x="118" y="-138" type="curve" smooth="yes"/>
      <point x="133" y="-138" type="line" smooth="yes"/>
      <point x="168" y="-138"/>
      <point x="183" y="-129"/>
      <point x="183" y="-108" type="curve" smooth="yes"/>
      <point x="183" y="738" type="line" smooth="yes"/>
      <point x="183" y="759"/>
      <point x="168" y="768"/>
      <point x="133" y="768" type="curve" smooth="yes"/>
      <point x="118" y="768" type="line" smooth="yes"/>
      <point x="83" y="768"/>
      <point x="68" y="759"/>
      <point x="68" y="738" type="curve" smooth="yes"/>
      <point x="68" y="-108" type="line" smooth="yes"/>
      <point x="68" y="-129"/>
      <point x="83" y="-138"/>
    </contour>
  </outline>
</glyph>
<glyph name="asciitilde" format="2">
  <advance width="547"/>
  <unicode hex="007E"/>
  <outline>
    <contour>
      <point x="91.8" y="215" type="line" smooth="yes"/>
      <point x="97" y="214"/>
      <point x="102.2" y="213"/>
      <point x="107.4" y="213" type="curve" smooth="yes"/>
      <point x="117.8" y="213"/>
      <point x="128.2" y="217"/>
      <point x="139.9" y="230" type="curve" smooth="yes"/>
      <point x="154.2" y="244"/>
      <point x="168.5" y="246"/>
      <point x="178.9" y="246" type="curve" smooth="yes"/>
      <point x="222" y="243"/>
      <point x="319" y="206"/>
      <point x="364" y="206" type="curve" smooth="yes"/>
      <point x="422" y="206"/>
      <point x="461" y="245"/>
      <point x="472" y="279" type="curve" smooth="yes"/>
      <point x="476.6" y="291"/>
      <point x="477.9" y="296"/>
      <point x="477.9" y="301" type="curve" smooth="yes"/>
      <point x="477.9" y="312"/>
      <point x="471.4" y="323"/>
      <point x="450.6" y="328" type="curve" smooth="yes"/>
      <point x="437.6" y="331" type="line" smooth="yes"/>
      <point x="432.4" y="333"/>
      <point x="427.2" y="333"/>
      <point x="423.3" y="333" type="curve" smooth="yes"/>
      <point x="412.9" y="333"/>
      <point x="402.5" y="329"/>
      <point x="389.5" y="316" type="curve" smooth="yes"/>
      <point x="375.2" y="302"/>
      <point x="360.9" y="300"/>
      <point x="350.5" y="300" type="curve" smooth="yes"/>
      <point x="308" y="302"/>
      <point x="213" y="333"/>
      <point x="168" y="333" type="curve" smooth="yes"/>
      <point x="109" y="333"/>
      <point x="69" y="297"/>
      <point x="55.4" y="259" type="curve" smooth="yes"/>
      <point x="54.1" y="255"/>
      <point x="52.8" y="250"/>
      <point x="52.8" y="245" type="curve" smooth="yes"/>
      <point x="52.8" y="234"/>
      <point x="59.3" y="223"/>
      <point x="78.8" y="218" type="curve" smooth="yes"/>
    </contour>
  </outline>
</glyph>
<glyph name="cent" format="2">
  <advance width="486"/>
  <unicode hex="00A2"/>
  <anchor x="275" y="523" name="top"/>
  <anchor x="292" y="0" name="bottom"/>
  <outline>
    <contour>
      <point x="320" y="-48" type="curve" smooth="yes"/>
      <point x="320" y="557" type="line" smooth="yes"/>
      <point x="320" y="578"/>
      <point x="311" y="587"/>
      <point x="290" y="587" type="curve" smooth="yes"/>
      <point x="272" y="587"/>
      <point x="263" y="578"/>
      <point x="263" y="557" type="curve" smooth="yes"/>
      <point x="263" y="-48" type="line" smooth="yes"/>
      <point x="263" y="-69"/>
      <point x="272" y="-78"/>
      <point x="293" y="-78" type="curve" smooth="yes"/>
      <point x="311" y="-78"/>
      <point x="320" y="-69"/>
    </contour>
    <component base="c"/>
  </outline>
</glyph>
<glyph name="yen" format="2">
  <advance width="559"/>
  <unicode hex="00A5"/>
  <anchor x="280" y="700" name="top"/>
  <anchor x="282" y="0" name="bottom"/>
  <outline>
    <contour>
      <point x="70" y="334" type="curve"/>
      <point x="487" y="333" type="line"/>
      <point x="508" y="333"/>
      <point x="517" y="343"/>
      <point x="517" y="364" type="curve" smooth="yes"/>
      <point x="517" y="379" type="line" smooth="yes"/>
      <point x="517" y="400"/>
      <point x="508" y="409"/>
      <point x="487" y="409" type="curve"/>
      <point x="325" y="409" type="line"/>
      <point x="276" y="409" type="line"/>
      <point x="226" y="409" type="line"/>
      <point x="70" y="409" type="line"/>
      <point x="49" y="409"/>
      <point x="40" y="400"/>
      <point x="40" y="379" type="curve" smooth="yes"/>
      <point x="40" y="364" type="line" smooth="yes"/>
      <point x="40" y="343"/>
      <point x="49" y="334"/>
    </contour>
    <contour>
      <point x="70" y="195" type="curve"/>
      <point x="487" y="195" type="line"/>
      <point x="508" y="195"/>
      <point x="517" y="204"/>
      <point x="517" y="225" type="curve" smooth="yes"/>
      <point x="517" y="240" type="line" smooth="yes"/>
      <point x="517" y="261"/>
      <point x="508" y="270"/>
      <point x="487" y="270" type="curve"/>
      <point x="70" y="270" type="line"/>
      <point x="49" y="270"/>
      <point x="40" y="261"/>
      <point x="40" y="240" type="curve" smooth="yes"/>
      <point x="40" y="225" type="line" smooth="yes"/>
      <point x="40" y="204"/>
      <point x="49" y="195"/>
    </contour>
    <component base="Y"/>
  </outline>
</glyph>
<glyph name="brokenbar" format="2">
  <advance width="250"/>
  <unicode hex="00A6"/>
  <outline>
    <contour>
      <point x="118" y="380" type="curve"/>
      <point x="133" y="380" type="line" smooth="yes"/>
      <point x="168" y="380"/>
      <point x="183" y="391"/>
      <point x="183" y="412" type="curve" smooth="yes"/>
      <point x="183" y="738" type="line" smooth="yes"/>
      <point x="183" y="759"/>
      <point x="168" y="770"/>
      <point x="133" y="770" type="curve" smooth="yes"/>
      <point x="118" y="770" type="line" smooth="yes"/>
      <point x="83" y="770"/>
      <point x="68" y="759"/>
      <point x="68" y="738" type="curve" smooth="yes"/>
      <point x="68" y="412" type="line" smooth="yes"/>
      <point x="68" y="391"/>
      <point x="83" y="380"/>
    </contour>
    <contour>
      <point x="118" y="-140" type="curve" smooth="yes"/>
      <point x="133" y="-140" type="line" smooth="yes"/>
      <point x="168" y="-140"/>
      <point x="183" y="-129"/>
      <point x="183" y="-108" type="curve" smooth="yes"/>
      <point x="183" y="218" type="line" smooth="yes"/>
      <point x="183" y="239"/>
      <point x="168" y="250"/>
      <point x="133" y="250" type="curve" smooth="yes"/>
      <point x="118" y="250" type="line" smooth="yes"/>
      <point x="83" y="250"/>
      <point x="68" y="239"/>
      <point x="68" y="218" type="curve" smooth="yes"/>
      <point x="68" y="-108" type="line" smooth="yes"/>
      <point x="68" y="-129"/>
      <point x="83" y="-140"/>
    </contour>
  </outline>
</glyph>
<glyph name="section" format="2">
  <advance width="429"/>
  <unicode hex="00A7"/>
  <outline>
    <contour>
      <point x="208" y="-7" type="curve" smooth="yes"/>
      <point x="321" y="-7"/>
      <point x="392" y="51"/>
      <point x="392" y="147" type="curve" smooth="yes"/>
      <point x="392" y="192"/>
      <point x="376" y="221"/>
      <point x="354" y="242" type="curve"/>
      <point x="378" y="270"/>
      <point x="391" y="307"/>
      <point x="391" y="351" type="curve" smooth="yes"/>
      <point x="391" y="444"/>
      <point x="335" y="478"/>
      <point x="282" y="500" type="curve" smooth="yes"/>
      <point x="235" y="520"/>
      <point x="191" y="529"/>
      <point x="191" y="561" type="curve" smooth="yes"/>
      <point x="191" y="582"/>
      <point x="209" y="592"/>
      <point x="245" y="592" type="curve" smooth="yes"/>
      <point x="290" y="592"/>
      <point x="320" y="571"/>
      <point x="330" y="571" type="curve" smooth="yes"/>
      <point x="350" y="571"/>
      <point x="373" y="632"/>
      <point x="373" y="645" type="curve" smooth="yes"/>
      <point x="373" y="701"/>
      <point x="258" y="708"/>
      <point x="225" y="708" type="curve" smooth="yes"/>
      <point x="112" y="708"/>
      <point x="41" y="650"/>
      <point x="41" y="554" type="curve" smooth="yes"/>
      <point x="41" y="508"/>
      <point x="56" y="479"/>
      <point x="79" y="459" type="curve"/>
      <point x="55" y="430"/>
      <point x="42" y="393"/>
      <point x="42" y="350" type="curve" smooth="yes"/>
      <point x="42" y="255"/>
      <point x="101" y="221"/>
      <point x="154" y="199" type="curve" smooth="yes"/>
      <point x="200" y="181"/>
      <point x="242" y="171"/>
      <point x="242" y="140" type="curve" smooth="yes"/>
      <point x="242" y="119"/>
      <point x="224" y="109"/>
      <point x="188" y="109" type="curve" smooth="yes"/>
      <point x="143" y="109"/>
      <point x="113" y="130"/>
      <point x="103" y="130" type="curve" smooth="yes"/>
      <point x="83" y="130"/>
      <point x="60" y="69"/>
      <point x="60" y="56" type="curve" smooth="yes"/>
      <point x="60" y="0"/>
      <point x="175" y="-7"/>
    </contour>
    <contour>
      <point x="252" y="292" type="curve"/>
      <point x="208" y="307"/>
      <point x="172" y="323"/>
      <point x="172" y="366" type="curve" smooth="yes"/>
      <point x="172" y="380"/>
      <point x="174" y="396"/>
      <point x="181" y="409" type="curve"/>
      <point x="224" y="394"/>
      <point x="261" y="378"/>
      <point x="261" y="335" type="curve" smooth="yes"/>
      <point x="261" y="320"/>
      <point x="258" y="305"/>
    </contour>
  </outline>
</glyph>
<glyph name="dieresis" format="2">
  <advance width="320"/>
  <unicode hex="00A8"/>
  <anchor x="161" y="523" name="_top"/>
  <outline>
    <contour>
      <point x="251" y="578" type="curve" smooth="yes"/>
      <point x="293" y="578"/>
      <point x="311" y="589"/>
      <point x="311" y="610" type="curve" smooth="yes"/>
      <point x="311" y="670" type="line" smooth="yes"/>
      <point x="311" y="691"/>
      <point x="293" y="702"/>
      <point x="251" y="702" type="curve" smooth="yes"/>
      <point x="209" y="702"/>
      <point x="191" y="691"/>
      <point x="191" y="670" type="curve" smooth="yes"/>
      <point x="191" y="610" type="line" smooth="yes"/>
      <point x="191" y="589"/>
      <point x="209" y="578"/>
    </contour>
    <contour>
      <point x="71" y="578" type="curve" smooth="yes"/>
      <point x="113" y="578"/>
      <point x="131" y="589"/>
      <point x="131" y="610" type="curve" smooth="yes"/>
      <point x="131" y="670" type="line" smooth="yes"/>
      <point x="131" y="691"/>
      <point x="113" y="702"/>
      <point x="71" y="702" type="curve" smooth="yes"/>
      <point x="29" y="702"/>
      <point x="11" y="691"/>
      <point x="11" y="670" type="curve" smooth="yes"/>
      <point x="11" y="610" type="line" smooth="yes"/>
      <point x="11" y="589"/>
      <point x="29" y="578"/>
    </contour>
  </outline>
</glyph>
<glyph name="ordfeminine" format="2">
  <advance width="319"/>
  <unicode hex="00AA"/>
  <outline>
    <contour>
      <point x="115" y="440" type="curve" smooth="yes"/>
      <point x="161" y="440"/>
      <point x="186" y="471"/>
      <point x="189" y="477" type="curve"/>
      <point x="192" y="464"/>
      <point x="193" y="443"/>
      <point x="208" y="443" type="curve" smooth="yes"/>
      <point x="221" y="443"/>
      <point x="264" y="447"/>
      <point x="264" y="460" type="curve" smooth="yes"/>
      <point x="264" y="469"/>
      <point x="258" y="480"/>
      <point x="258" y="531" type="curve" smooth="yes"/>
      <point x="258" y="625" type="line" smooth="yes"/>
      <point x="258" y="673"/>
      <point x="230" y="708"/>
      <point x="152" y="708" type="curve" smooth="yes"/>
      <point x="96" y="708"/>
      <point x="57" y="690"/>
      <point x="57" y="674" type="curve" smooth="yes"/>
      <point x="57" y="663"/>
      <point x="72" y="634"/>
      <point x="82" y="634" type="curve" smooth="yes"/>
      <point x="88" y="634"/>
      <point x="109" y="649"/>
      <point x="146" y="649" type="curve" smooth="yes"/>
      <point x="173" y="649"/>
      <point x="185" y="641"/>
      <point x="185" y="621" type="curve" smooth="yes"/>
      <point x="185" y="605" type="line"/>
      <point x="59" y="605"/>
      <point x="42" y="553"/>
      <point x="42" y="512" type="curve" smooth="yes"/>
      <point x="42" y="471"/>
      <point x="62" y="440"/>
    </contour>
    <contour>
      <point x="140" y="498" type="curve" smooth="yes"/>
      <point x="123" y="498"/>
      <point x="115" y="508"/>
      <point x="115" y="520" type="curve" smooth="yes"/>
      <point x="115" y="544"/>
      <point x="138" y="556"/>
      <point x="185" y="556" type="curve"/>
      <point x="185" y="529" type="line"/>
      <point x="177" y="511"/>
      <point x="159" y="498"/>
    </contour>
  </outline>
</glyph>
<glyph name="logicalnot" format="2">
  <advance width="560"/>
  <unicode hex="00AC"/>
  <outline>
    <contour>
      <point x="470" y="72" type="curve" smooth="yes"/>
      <point x="490" y="72" type="line" smooth="yes"/>
      <point x="518" y="72"/>
      <point x="530" y="83"/>
      <point x="530" y="104" type="curve" smooth="yes"/>
      <point x="530" y="309" type="line" smooth="yes"/>
      <point x="530" y="337"/>
      <point x="518" y="349"/>
      <point x="490" y="349" type="curve" smooth="yes"/>
      <point x="60" y="349" type="line" smooth="yes"/>
      <point x="39" y="349"/>
      <point x="30" y="334"/>
      <point x="30" y="299" type="curve" smooth="yes"/>
      <point x="30" y="292" type="line" smooth="yes"/>
      <point x="30" y="257"/>
      <point x="39" y="242"/>
      <point x="60" y="242" type="curve"/>
      <point x="430" y="242" type="line"/>
      <point x="430" y="104" type="line" smooth="yes"/>
      <point x="430" y="83"/>
      <point x="442" y="72"/>
    </contour>
  </outline>
</glyph>
<glyph name="softhyphen" format="2">
  <advance width="320"/>
  <unicode hex="00AD"/>
  <outline>
    <contour>
      <point x="60" y="212" type="curve"/>
      <point x="255" y="212" type="line" smooth="yes"/>
      <point x="276" y="212"/>
      <point x="285" y="227"/>
      <point x="285" y="262" type="curve" smooth="yes"/>
      <point x="285" y="269" type="line" smooth="yes"/>
      <point x="285" y="304"/>
      <point x="276" y="319"/>
      <point x="255" y="319" type="curve" smooth="yes"/>
      <point x="60" y="319" type="line" smooth="yes"/>
      <point x="39" y="319"/>
      <point x="30" y="304"/>
      <point x="30" y="269" type="curve" smooth="yes"/>
      <point x="30" y="262" type="line" smooth="yes"/>
      <point x="30" y="227"/>
      <point x="39" y="212"/>
    </contour>
  </outline>
</glyph>
<glyph name="registered" format="2">
  <advance width="739"/>
  <unicode hex="00AE"/>
  <outline>
    <contour>
      <point x="276" y="156" type="curve" smooth="yes"/>
      <point x="294" y="156" type="line" smooth="yes"/>
      <point x="318" y="156"/>
      <point x="328" y="162"/>
      <point x="328" y="174" type="curve" smooth="yes"/>
      <point x="328" y="310" type="line"/>
      <point x="350" y="310" type="line" smooth="yes"/>
      <point x="386" y="310"/>
      <point x="395" y="299"/>
      <point x="406" y="277" type="curve"/>
      <point x="450" y="168" type="line" smooth="yes"/>
      <point x="454" y="159"/>
      <point x="466" y="156"/>
      <point x="483" y="156" type="curve" smooth="yes"/>
      <point x="506" y="156" type="line" smooth="yes"/>
      <point x="528" y="156"/>
      <point x="539" y="160"/>
      <point x="539" y="167" type="curve" smooth="yes"/>
      <point x="539" y="170"/>
      <point x="538" y="173"/>
      <point x="536" y="178" type="curve" smooth="yes"/>
      <point x="487" y="301" type="line" smooth="yes"/>
      <point x="478" y="325"/>
      <point x="460" y="344"/>
      <point x="446" y="350" type="curve"/>
      <point x="446" y="354" type="line"/>
      <point x="484" y="369"/>
      <point x="512" y="400"/>
      <point x="512" y="443" type="curve" smooth="yes"/>
      <point x="512" y="510"/>
      <point x="470" y="548"/>
      <point x="373" y="548" type="curve" smooth="yes"/>
      <point x="264" y="548" type="line" smooth="yes"/>
      <point x="249" y="548"/>
      <point x="242" y="541"/>
      <point x="242" y="526" type="curve" smooth="yes"/>
      <point x="242" y="174" type="line" smooth="yes"/>
      <point x="242" y="162"/>
      <point x="252" y="156"/>
    </contour>
    <contour>
      <point x="328" y="384" type="line"/>
      <point x="328" y="475" type="line"/>
      <point x="377" y="475" type="line" smooth="yes"/>
      <point x="406" y="475"/>
      <point x="424" y="458"/>
      <point x="424" y="432" type="curve" smooth="yes"/>
      <point x="424" y="406"/>
      <point x="404" y="384"/>
      <point x="381" y="384" type="curve" smooth="yes"/>
    </contour>
    <contour>
      <point x="369" y="-8" type="curve" smooth="yes"/>
      <point x="567" y="-8"/>
      <point x="727" y="152"/>
      <point x="727" y="350" type="curve" smooth="yes"/>
      <point x="727" y="548"/>
      <point x="567" y="708"/>
      <point x="369" y="708" type="curve" smooth="yes"/>
      <point x="171" y="708"/>
      <point x="11" y="548"/>
      <point x="11" y="350" type="curve" smooth="yes"/>
      <point x="11" y="152"/>
      <point x="171" y="-8"/>
    </contour>
    <contour>
      <point x="369" y="56" type="curve" smooth="yes"/>
      <point x="207" y="56"/>
      <point x="75" y="188"/>
      <point x="75" y="350" type="curve" smooth="yes"/>
      <point x="75" y="512"/>
      <point x="207" y="644"/>
      <point x="369" y="644" type="curve" smooth="yes"/>
      <point x="531" y="644"/>
      <point x="663" y="512"/>
      <point x="663" y="350" type="curve" smooth="yes"/>
      <point x="663" y="188"/>
      <point x="531" y="56"/>
    </contour>
  </outline>
</glyph>
<glyph name="macron" format="2">
  <advance width="320"/>
  <unicode hex="00AF"/>
  <anchor x="158.5" y="523" name="_top"/>
  <outline>
    <contour>
      <point x="51" y="597" type="curve"/>
      <point x="266" y="597" type="line" smooth="yes"/>
      <point x="287" y="597"/>
      <point x="296" y="609"/>
      <point x="296" y="637" type="curve" smooth="yes"/>
      <point x="296" y="652" type="line" smooth="yes"/>
      <point x="296" y="680"/>
      <point x="287" y="692"/>
      <point x="266" y="692" type="curve" smooth="yes"/>
      <point x="51" y="692" type="line" smooth="yes"/>
      <point x="30" y="692"/>
      <point x="21" y="680"/>
      <point x="21" y="652" type="curve" smooth="yes"/>
      <point x="21" y="637" type="line" smooth="yes"/>
      <point x="21" y="609"/>
      <point x="30" y="597"/>
    </contour>
  </outline>
</glyph>
<glyph name="plusminus" format="2">
  <advance width="560"/>
  <unicode hex="00B1"/>
  <outline>
    <contour>
      <point x="272" y="130" type="curve" smooth="yes"/>
      <point x="286" y="130" type="line" smooth="yes"/>
      <point x="321" y="130"/>
      <point x="336" y="139"/>
      <point x="336" y="160" type="curve" smooth="yes"/>
      <point x="336" y="312" type="line"/>
      <point x="489" y="312" type="line" smooth="yes"/>
      <point x="510" y="312"/>
      <point x="519" y="327"/>
      <point x="519" y="362" type="curve" smooth="yes"/>
      <point x="519" y="369" type="line" smooth="yes"/>
      <point x="519" y="404"/>
      <point x="510" y="419"/>
      <point x="489" y="419" type="curve" smooth="yes"/>
      <point x="336" y="419" type="line"/>
      <point x="336" y="573" type="line" smooth="yes"/>
      <point x="336" y="594"/>
      <point x="321" y="603"/>
      <point x="286" y="603" type="curve" smooth="yes"/>
      <point x="272" y="603" type="line" smooth="yes"/>
      <point x="237" y="603"/>
      <point x="222" y="594"/>
      <point x="222" y="573" type="curve" smooth="yes"/>
      <point x="222" y="419" type="line"/>
      <point x="71" y="419" type="line" smooth="yes"/>
      <point x="50" y="419"/>
      <point x="41" y="404"/>
      <point x="41" y="369" type="curve" smooth="yes"/>
      <point x="41" y="362" type="line" smooth="yes"/>
      <point x="41" y="327"/>
      <point x="50" y="312"/>
      <point x="71" y="312" type="curve" smooth="yes"/>
      <point x="222" y="312" type="line"/>
      <point x="222" y="160" type="line" smooth="yes"/>
      <point x="222" y="139"/>
      <point x="237" y="130"/>
    </contour>
    <contour>
      <point x="71" y="0" type="curve" smooth="yes"/>
      <point x="489" y="0" type="line" smooth="yes"/>
      <point x="510" y="0"/>
      <point x="519" y="15"/>
      <point x="519" y="50" type="curve" smooth="yes"/>
      <point x="519" y="57" type="line" smooth="yes"/>
      <point x="519" y="92"/>
      <point x="510" y="107"/>
      <point x="489" y="107" type="curve" smooth="yes"/>
      <point x="71" y="107" type="line" smooth="yes"/>
      <point x="50" y="107"/>
      <point x="41" y="92"/>
      <point x="41" y="57" type="curve" smooth="yes"/>
      <point x="41" y="50" type="line" smooth="yes"/>
      <point x="41" y="15"/>
      <point x="50" y="0"/>
    </contour>
  </outline>
</glyph>
<glyph name="cedilla" format="2">
  <advance width="320"/>
  <unicode hex="00B8"/>
  <anchor x="178" y="0" name="_bottom"/>
  <outline>
    <contour>
      <point x="160" y="-212" type="curve" smooth="yes"/>
      <point x="239" y="-212"/>
      <point x="279" y="-180"/>
      <point x="279" y="-112" type="curve" smooth="yes"/>
      <point x="279" y="-53"/>
      <point x="223" y="-35"/>
      <point x="185" y="-35" type="curve"/>
      <point x="172" y="-35" type="line"/>
      <point x="196" y="-57" type="line"/>
      <point x="214" y="10" type="line"/>
      <point x="148" y="10" type="line"/>
      <point x="124" y="-64"/>
      <point x="123" y="-70"/>
      <point x="123" y="-74" type="curve" smooth="yes"/>
      <point x="123" y="-98"/>
      <point x="176" y="-97"/>
      <point x="176" y="-122" type="curve" smooth="yes"/>
      <point x="176" y="-133"/>
      <point x="170" y="-139"/>
      <point x="152" y="-139" type="curve" smooth="yes"/>
      <point x="110" y="-139"/>
      <point x="84" y="-118"/>
      <point x="61" y="-118" type="curve" smooth="yes"/>
      <point x="54" y="-118"/>
      <point x="29" y="-128"/>
      <point x="29" y="-162" type="curve" smooth="yes"/>
      <point x="29" y="-194"/>
      <point x="104" y="-212"/>
    </contour>
  </outline>
</glyph>
<glyph name="ordmasculine" format="2">
  <advance width="337"/>
  <unicode hex="00BA"/>
  <outline>
    <contour>
      <point x="168" y="441" type="curve" smooth="yes"/>
      <point x="247" y="441"/>
      <point x="288" y="488"/>
      <point x="288" y="575" type="curve" smooth="yes"/>
      <point x="288" y="661"/>
      <point x="247" y="708"/>
      <point x="168" y="708" type="curve" smooth="yes"/>
      <point x="89" y="708"/>
      <point x="47" y="661"/>
      <point x="47" y="575" type="curve" smooth="yes"/>
      <point x="47" y="488"/>
      <point x="89" y="441"/>
    </contour>
    <contour>
      <point x="168" y="499" type="curve" smooth="yes"/>
      <point x="136" y="499"/>
      <point x="122" y="525"/>
      <point x="122" y="575" type="curve" smooth="yes"/>
      <point x="122" y="624"/>
      <point x="136" y="650"/>
      <point x="168" y="650" type="curve" smooth="yes"/>
      <point x="200" y="650"/>
      <point x="213" y="624"/>
      <point x="213" y="575" type="curve" smooth="yes"/>
      <point x="213" y="525"/>
      <point x="200" y="499"/>
    </contour>
  </outline>
</glyph>
<glyph name="onequarter" format="2">
  <advance width="671"/>
  <unicode hex="00BC"/>
  <outline>
    <contour>
      <point x="133" y="0" type="curve" smooth="yes"/>
      <point x="150" y="0" type="line" smooth="yes"/>
      <point x="170" y="0"/>
      <point x="184" y="7"/>
      <point x="195" y="26" type="curve" smooth="yes"/>
      <point x="554" y="674" type="line" smooth="yes"/>
      <point x="557.5" y="680"/>
      <point x="560" y="685"/>
      <point x="560" y="689" type="curve" smooth="yes"/>
      <point x="560" y="696"/>
      <point x="553" y="700"/>
      <point x="539" y="700" type="curve" smooth="yes"/>
      <point x="522" y="700" type="line" smooth="yes"/>
      <point x="502" y="700"/>
      <point x="487" y="692"/>
      <point x="477" y="674" type="curve" smooth="yes"/>
      <point x="118" y="26" type="line" smooth="yes"/>
      <point x="114.5" y="20"/>
      <point x="112" y="15"/>
      <point x="112" y="11" type="curve" smooth="yes"/>
      <point x="112" y="3"/>
      <point x="119" y="0"/>
    </contour>
    <component base="onesuperior"/>
    <component base="four" xScale="0.578" yScale="0.578" xOffset="343" yOffset="-1"/>
  </outline>
</glyph>
<glyph name="threequarters" format="2">
  <advance width="743"/>
  <unicode hex="00BE"/>
  <outline>
    <contour>
      <point x="175" y="0" type="curve" smooth="yes"/>
      <point x="192" y="0" type="line" smooth="yes"/>
      <point x="212" y="0"/>
      <point x="226" y="7"/>
      <point x="237" y="26" type="curve" smooth="yes"/>
      <point x="596" y="674" type="line" smooth="yes"/>
      <point x="599" y="680"/>
      <point x="602" y="685"/>
      <point x="602" y="689" type="curve" smooth="yes"/>
      <point x="602" y="696"/>
      <point x="595" y="700"/>
      <point x="581" y="700" type="curve" smooth="yes"/>
      <point x="564" y="700" type="line" smooth="yes"/>
      <point x="544" y="700"/>
      <point x="529" y="692"/>
      <point x="519" y="674" type="curve" smooth="yes"/>
      <point x="160" y="26" type="line" smooth="yes"/>
      <point x="157" y="20"/>
      <point x="154" y="15"/>
      <point x="154" y="11" type="curve" smooth="yes"/>
      <point x="154" y="3"/>
      <point x="161" y="0"/>
    </contour>
    <component base="three" xScale="0.587" yScale="0.587" yOffset="292"/>
    <component base="four" xScale="0.578" yScale="0.578" xOffset="385" yOffset="-1"/>
  </outline>
</glyph>
<glyph name="Eth" format="2">
  <advance width="696"/>
  <unicode hex="00D0"/>
  <anchor x="340" y="700" name="top"/>
  <anchor x="154" y="350" name="center"/>
  <anchor x="338" y="0" name="bottom"/>
  <outline>
    <contour>
      <point x="42" y="291" type="curve" smooth="yes"/>
      <point x="285" y="291" type="line" smooth="yes"/>
      <point x="306" y="291"/>
      <point x="315" y="306"/>
      <point x="315" y="341" type="curve" smooth="yes"/>
      <point x="315" y="371" type="line" smooth="yes"/>
      <point x="315" y="406"/>
      <point x="306" y="421"/>
      <point x="285" y="421" type="curve" smooth="yes"/>
      <point x="42" y="421" type="line" smooth="yes"/>
      <point x="21" y="421"/>
      <point x="12" y="406"/>
      <point x="12" y="371" type="curve" smooth="yes"/>
      <point x="12" y="341" type="line" smooth="yes"/>
      <point x="12" y="306"/>
      <point x="21" y="291"/>
    </contour>
    <component base="D"/>
  </outline>
</glyph>
<glyph name="Oslash" format="2">
  <advance width="731"/>
  <unicode hex="00D8"/>
  <anchor x="366" y="700" name="top"/>
  <anchor x="443" y="0" name="ogonek"/>
  <anchor x="474" y="682" name="horn"/>
  <anchor x="367" y="0" name="bottom"/>
  <outline>
    <contour>
      <point x="89" y="0" type="curve" smooth="yes"/>
      <point x="672" y="658" type="line" smooth="yes"/>
      <point x="679" y="666"/>
      <point x="682" y="672"/>
      <point x="682" y="678" type="curve" smooth="yes"/>
      <point x="682" y="696"/>
      <point x="651" y="724"/>
      <point x="634" y="724" type="curve" smooth="yes"/>
      <point x="626" y="724"/>
      <point x="619" y="720"/>
      <point x="612" y="712" type="curve" smooth="yes"/>
      <point x="29" y="54" type="line" smooth="yes"/>
      <point x="23" y="47"/>
      <point x="19" y="40"/>
      <point x="19" y="34" type="curve" smooth="yes"/>
      <point x="19" y="15"/>
      <point x="51" y="-12"/>
      <point x="67" y="-12" type="curve" smooth="yes"/>
      <point x="74" y="-12"/>
      <point x="82" y="-8"/>
    </contour>
    <component base="O"/>
  </outline>
</glyph>
<glyph name="ae" format="2">
  <advance width="819"/>
  <unicode hex="00E6"/>
  <anchor x="416" y="523" name="top"/>
  <outline>
    <contour>
      <point x="208" y="-8" type="curve" smooth="yes"/>
      <point x="301" y="-8"/>
      <point x="365" y="37"/>
      <point x="388" y="60" type="curve"/>
      <point x="431" y="17"/>
      <point x="495" y="-8"/>
      <point x="583" y="-8" type="curve" smooth="yes"/>
      <point x="639" y="-8"/>
      <point x="763" y="14"/>
      <point x="763" y="64" type="curve" smooth="yes"/>
      <point x="763" y="84"/>
      <point x="733" y="140"/>
      <point x="711" y="140" type="curve" smooth="yes"/>
      <point x="697" y="140"/>
      <point x="653" y="109"/>
      <point x="590" y="109" type="curve" smooth="yes"/>
      <point x="532" y="109"/>
      <point x="477" y="137"/>
      <point x="477" y="224" type="curve"/>
      <point x="732" y="224" type="line" smooth="yes"/>
      <point x="745" y="224"/>
      <point x="781" y="266"/>
      <point x="781" y="283" type="curve" smooth="yes"/>
      <point x="781" y="422"/>
      <point x="722" y="531"/>
      <point x="565" y="531" type="curve" smooth="yes"/>
      <point x="510" y="531"/>
      <point x="462" y="519"/>
      <point x="423" y="495" type="curve"/>
      <point x="389" y="518"/>
      <point x="336" y="531"/>
      <point x="262" y="531" type="curve" smooth="yes"/>
      <point x="151" y="531"/>
      <point x="71" y="496"/>
      <point x="71" y="462" type="curve" smooth="yes"/>
      <point x="71" y="441"/>
      <point x="102" y="382"/>
      <point x="123" y="382" type="curve" smooth="yes"/>
      <point x="139" y="382"/>
      <point x="189" y="414"/>
      <point x="251" y="414" type="curve" smooth="yes"/>
      <point x="290" y="414"/>
      <point x="325" y="408"/>
      <point x="341" y="387" type="curve"/>
      <point x="334" y="368"/>
      <point x="329" y="347"/>
      <point x="326" y="323" type="curve"/>
      <point x="75" y="322"/>
      <point x="42" y="219"/>
      <point x="42" y="138" type="curve" smooth="yes"/>
      <point x="42" y="56"/>
      <point x="100" y="-8"/>
    </contour>
    <contour>
      <point x="239" y="109" type="curve" smooth="yes"/>
      <point x="206" y="109"/>
      <point x="189" y="128"/>
      <point x="189" y="153" type="curve" smooth="yes"/>
      <point x="189" y="200"/>
      <point x="232" y="224"/>
      <point x="323" y="225" type="curve"/>
      <point x="325" y="200"/>
      <point x="329" y="177"/>
      <point x="335" y="156" type="curve"/>
      <point x="316" y="125"/>
      <point x="274" y="109"/>
    </contour>
    <contour>
      <point x="475" y="323" type="line"/>
      <point x="487" y="400"/>
      <point x="531" y="414"/>
      <point x="565" y="414" type="curve" smooth="yes"/>
      <point x="609" y="414"/>
      <point x="637" y="381"/>
      <point x="637" y="323" type="curve"/>
    </contour>
  </outline>
</glyph>
<glyph name="eth" format="2">
  <advance width="569"/>
  <unicode hex="00F0"/>
  <outline>
    <contour>
      <point x="285" y="-8" type="curve" smooth="yes"/>
      <point x="444" y="-8"/>
      <point x="527" y="88"/>
      <point x="527" y="262" type="curve" smooth="yes"/>
      <point x="527" y="397"/>
      <point x="477" y="529"/>
      <point x="427" y="606" type="curve"/>
      <point x="473" y="612" type="line" smooth="yes"/>
      <point x="487" y="614"/>
      <point x="494" y="619"/>
      <point x="494" y="628" type="curve" smooth="yes"/>
      <point x="494" y="648"/>
      <point x="474" y="670"/>
      <point x="457" y="670" type="curve" smooth="yes"/>
      <point x="456" y="670"/>
      <point x="455" y="670"/>
      <point x="389" y="661" type="curve"/>
      <point x="375" y="679"/>
      <point x="363" y="694"/>
      <point x="349" y="704" type="curve" smooth="yes"/>
      <point x="338.5" y="711.5"/>
      <point x="326" y="715"/>
      <point x="311" y="715" type="curve"/>
      <point x="290" y="713"/>
      <point x="270" y="710"/>
      <point x="249" y="708" type="curve" smooth="yes"/>
      <point x="236" y="706.5"/>
      <point x="230" y="702"/>
      <point x="230" y="696" type="curve" smooth="yes"/>
      <point x="230" y="688"/>
      <point x="255" y="662"/>
      <point x="268" y="645" type="curve"/>
      <point x="225" y="639" type="line" smooth="yes"/>
      <point x="210" y="637"/>
      <point x="204" y="632"/>
      <point x="204" y="623" type="curve" smooth="yes"/>
      <point x="204" y="602"/>
      <point x="223" y="581"/>
      <point x="243" y="581" type="curve" smooth="yes"/>
      <point x="246" y="581"/>
      <point x="249" y="581"/>
      <point x="304" y="589" type="curve"/>
      <point x="321" y="559"/>
      <point x="338" y="528"/>
      <point x="352" y="486" type="curve"/>
      <point x="369" y="520" type="line"/>
      <point x="344" y="526"/>
      <point x="316" y="531"/>
      <point x="285" y="531" type="curve" smooth="yes"/>
      <point x="126" y="531"/>
      <point x="42" y="436"/>
      <point x="42" y="262" type="curve" smooth="yes"/>
      <point x="42" y="88"/>
      <point x="126" y="-8"/>
    </contour>
    <contour>
      <point x="285" y="109" type="curve" smooth="yes"/>
      <point x="221" y="109"/>
      <point x="192" y="162"/>
      <point x="192" y="262" type="curve" smooth="yes"/>
      <point x="192" y="362"/>
      <point x="221" y="414"/>
      <point x="285" y="414" type="curve" smooth="yes"/>
      <point x="349" y="414"/>
      <point x="377" y="362"/>
      <point x="377" y="262" type="curve" smooth="yes"/>
      <point x="377" y="162"/>
      <point x="349" y="109"/>
    </contour>
  </outline>
</glyph>
<glyph name="divide" format="2">
  <advance width="560"/>
  <unicode hex="00F7"/>
  <outline>
    <contour>
      <point x="58" y="172" type="curve"/>
      <point x="502" y="172" type="line" smooth="yes"/>
      <point x="523" y="172"/>
      <point x="532" y="187"/>
      <point x="532" y="222" type="curve" smooth="yes"/>
      <point x="532" y="229" type="line" smooth="yes"/>
      <point x="532" y="264"/>
      <point x="523" y="279"/>
      <point x="502" y="279" type="curve" smooth="yes"/>
      <point x="58" y="279" type="line" smooth="yes"/>
      <point x="37" y="279"/>
      <point x="28" y="264"/>
      <point x="28" y="229" type="curve" smooth="yes"/>
      <point x="28" y="222" type="line" smooth="yes"/>
      <point x="28" y="187"/>
      <point x="37" y="172"/>
    </contour>
    <contour>
      <point x="274" y="-2" type="curve" smooth="yes"/>
      <point x="285" y="-2" type="line" smooth="yes"/>
      <point x="327" y="-2"/>
      <point x="345" y="9"/>
      <point x="345" y="30" type="curve" smooth="yes"/>
      <point x="345" y="101" type="line" smooth="yes"/>
      <point x="345" y="122"/>
      <point x="327" y="133"/>
      <point x="285" y="133" type="curve" smooth="yes"/>
      <point x="274" y="133" type="line" smooth="yes"/>
      <point x="232" y="133"/>
      <point x="214" y="122"/>
      <point x="214" y="101" type="curve" smooth="yes"/>
      <point x="214" y="30" type="line" smooth="yes"/>
      <point x="214" y="9"/>
      <point x="232" y="-2"/>
    </contour>
    <contour>
      <point x="274" y="318" type="curve" smooth="yes"/>
      <point x="285" y="318" type="line" smooth="yes"/>
      <point x="327" y="318"/>
      <point x="345" y="329"/>
      <point x="345" y="350" type="curve" smooth="yes"/>
      <point x="345" y="421" type="line" smooth="yes"/>
      <point x="345" y="442"/>
      <point x="327" y="453"/>
      <point x="285" y="453" type="curve" smooth="yes"/>
      <point x="274" y="453" type="line" smooth="yes"/>
      <point x="232" y="453"/>
      <point x="214" y="442"/>
      <point x="214" y="421" type="curve" smooth="yes"/>
      <point x="214" y="350" type="line" smooth="yes"/>
      <point x="214" y="329"/>
      <point x="232" y="318"/>
    </contour>
  </outline>
</glyph>
<glyph name="oslash" format="2">
  <advance width="569"/>
  <unicode hex="00F8"/>
  <anchor x="285" y="523" name="top"/>
  <anchor x="353" y="0" name="ogonek"/>
  <anchor x="387" y="505" name="horn"/>
  <anchor x="291" y="0" name="bottom"/>
  <outline>
    <contour>
      <point x="108" y="1" type="curve" smooth="yes"/>
      <point x="520" y="479" type="line" smooth="yes"/>
      <point x="526" y="486"/>
      <point x="530" y="493"/>
      <point x="530" y="500" type="curve" smooth="yes"/>
      <point x="530" y="517"/>
      <point x="498" y="544"/>
      <point x="482" y="544" type="curve" smooth="yes"/>
      <point x="475" y="544"/>
      <point x="467" y="539"/>
      <point x="460" y="531" type="curve" smooth="yes"/>
      <point x="49" y="53" type="line" smooth="yes"/>
      <point x="42" y="45"/>
      <point x="39" y="39"/>
      <point x="39" y="32" type="curve" smooth="yes"/>
      <point x="39" y="13"/>
      <point x="71" y="-12"/>
      <point x="87" y="-12" type="curve" smooth="yes"/>
      <point x="94" y="-12"/>
      <point x="101" y="-8"/>
    </contour>
    <component base="o"/>
  </outline>
</glyph>
<glyph name="thorn" format="2">
  <advance width="570"/>
  <unicode hex="00FE"/>
  <outline>
    <contour>
      <point x="125" y="-206" type="curve" smooth="yes"/>
      <point x="153" y="-206" type="line" smooth="yes"/>
      <point x="195" y="-206"/>
      <point x="213" y="-195"/>
      <point x="213" y="-174" type="curve" smooth="yes"/>
      <point x="213" y="23" type="line"/>
      <point x="234" y="8"/>
      <point x="268" y="-8"/>
      <point x="315" y="-8" type="curve" smooth="yes"/>
      <point x="450" y="-8"/>
      <point x="526" y="98"/>
      <point x="526" y="261" type="curve" smooth="yes"/>
      <point x="526" y="435"/>
      <point x="447" y="531"/>
      <point x="339" y="531" type="curve" smooth="yes"/>
      <point x="284" y="531"/>
      <point x="238" y="506"/>
      <point x="213" y="470" type="curve"/>
      <point x="213" y="722" type="line" smooth="yes"/>
      <point x="213" y="743"/>
      <point x="195" y="754"/>
      <point x="153" y="754" type="curve" smooth="yes"/>
      <point x="125" y="754" type="line" smooth="yes"/>
      <point x="83" y="754"/>
      <point x="65" y="743"/>
      <point x="65" y="722" type="curve" smooth="yes"/>
      <point x="65" y="-174" type="line" smooth="yes"/>
      <point x="65" y="-195"/>
      <point x="83" y="-206"/>
    </contour>
    <contour>
      <point x="283" y="109" type="curve" smooth="yes"/>
      <point x="252" y="109"/>
      <point x="229" y="119"/>
      <point x="213" y="128" type="curve"/>
      <point x="213" y="351" type="line"/>
      <point x="231" y="382"/>
      <point x="257" y="410"/>
      <point x="295" y="410" type="curve" smooth="yes"/>
      <point x="350" y="410"/>
      <point x="376" y="358"/>
      <point x="376" y="261" type="curve" smooth="yes"/>
      <point x="376" y="161"/>
      <point x="346" y="109"/>
    </contour>
  </outline>
</glyph>
<glyph name="itilde" format="2">
  <advance width="265"/>
  <unicode hex="0129"/>
  <anchor x="133" y="523" name="top"/>
  <anchor x="169" y="0" name="ogonek"/>
  <anchor x="131" y="0" name="bottom"/>
  <outline>
    <contour>
      <point x="0.472" y="580" type="line" smooth="yes"/>
      <point x="4.08" y="579"/>
      <point x="7.688" y="578"/>
      <point x="11.296" y="578" type="curve" smooth="yes"/>
      <point x="18.512" y="578"/>
      <point x="25.728" y="582"/>
      <point x="33.846" y="595" type="curve" smooth="yes"/>
      <point x="43.768" y="609"/>
      <point x="53.69" y="611"/>
      <point x="60.906" y="611" type="curve" smooth="yes"/>
      <point x="87.966" y="609"/>
      <point x="148.4" y="582"/>
      <point x="176.362" y="582" type="curve" smooth="yes"/>
      <point x="223.266" y="582"/>
      <point x="254.836" y="616"/>
      <point x="265.66" y="652" type="curve" smooth="yes"/>
      <point x="267.464" y="656"/>
      <point x="268.366" y="661"/>
      <point x="268.366" y="666" type="curve" smooth="yes"/>
      <point x="268.366" y="677"/>
      <point x="263.856" y="688"/>
      <point x="249.424" y="693" type="curve" smooth="yes"/>
      <point x="240.404" y="696" type="line" smooth="yes"/>
      <point x="236.796" y="698"/>
      <point x="233.188" y="698"/>
      <point x="230.482" y="698" type="curve" smooth="yes"/>
      <point x="223.266" y="698"/>
      <point x="216.05" y="694"/>
      <point x="207.03" y="681" type="curve" smooth="yes"/>
      <point x="197.108" y="667"/>
      <point x="187.186" y="665"/>
      <point x="179.97" y="665" type="curve" smooth="yes"/>
      <point x="152.91" y="667"/>
      <point x="92.476" y="694"/>
      <point x="64.514" y="694" type="curve" smooth="yes"/>
      <point x="17.61" y="694"/>
      <point x="-13.96" y="660"/>
      <point x="-24.784" y="624" type="curve" smooth="yes"/>
      <point x="-25.686" y="620"/>
      <point x="-26.588" y="615"/>
      <point x="-26.588" y="610" type="curve" smooth="yes"/>
      <point x="-26.588" y="599"/>
      <point x="-22.078" y="588"/>
      <point x="-8.548" y="583" type="curve" smooth="yes"/>
    </contour>
    <component base="idotless"/>
  </outline>
</glyph>
<glyph name="Lslash" format="2">
  <advance width="486"/>
  <unicode hex="0141"/>
  <anchor x="269" y="700" name="caron"/>
  <anchor x="157" y="700" name="top"/>
  <anchor x="344" y="335" name="center"/>
  <anchor x="249" y="0" name="bottom"/>
  <outline>
    <contour>
      <point x="37" y="284" type="curve" smooth="yes"/>
      <point x="41" y="284"/>
      <point x="46" y="285"/>
      <point x="52" y="289" type="curve" smooth="yes"/>
      <point x="312" y="448" type="line" smooth="yes"/>
      <point x="330" y="459"/>
      <point x="338" y="473"/>
      <point x="338" y="494" type="curve" smooth="yes"/>
      <point x="338" y="514" type="line" smooth="yes"/>
      <point x="338" y="527"/>
      <point x="334" y="534"/>
      <point x="327" y="534" type="curve" smooth="yes"/>
      <point x="323" y="534"/>
      <point x="318" y="532"/>
      <point x="312" y="528" type="curve" smooth="yes"/>
      <point x="52" y="369" type="line" smooth="yes"/>
      <point x="34" y="358"/>
      <point x="26" y="346"/>
      <point x="26" y="324" type="curve" smooth="yes"/>
      <point x="26" y="304" type="line" smooth="yes"/>
      <point x="26" y="290"/>
      <point x="29" y="284"/>
    </contour>
    <component base="L"/>
  </outline>
</glyph>
<glyph name="lslash" format="2">
  <advance width="293"/>
  <unicode hex="0142"/>
  <anchor x="193" y="752" name="caron"/>
  <anchor x="136" y="720" name="top"/>
  <anchor x="305" y="335" name="center"/>
  <anchor x="183" y="0" name="bottom"/>
  <outline>
    <contour>
      <point x="37" y="310" type="curve" smooth="yes"/>
      <point x="231" y="427" type="line" smooth="yes"/>
      <point x="249" y="438"/>
      <point x="257" y="450"/>
      <point x="257" y="472" type="curve" smooth="yes"/>
      <point x="257" y="492" type="line" smooth="yes"/>
      <point x="257" y="506"/>
      <point x="253" y="512"/>
      <point x="246" y="512" type="curve" smooth="yes"/>
      <point x="242" y="512"/>
      <point x="237" y="511"/>
      <point x="231" y="507" type="curve" smooth="yes"/>
      <point x="37" y="390" type="line" smooth="yes"/>
      <point x="19" y="379"/>
      <point x="11" y="365"/>
      <point x="11" y="344" type="curve" smooth="yes"/>
      <point x="11" y="324" type="line" smooth="yes"/>
      <point x="11" y="310"/>
      <point x="14" y="304"/>
      <point x="21" y="304" type="curve" smooth="yes"/>
      <point x="25" y="304"/>
      <point x="30" y="306"/>
    </contour>
    <component base="l"/>
  </outline>
</glyph>
<glyph name="Eng" format="2">
  <advance width="719"/>
  <unicode hex="014A"/>
  <outline>
    <contour>
      <point x="520" y="-26" type="line"/>
      <point x="650" y="30" type="line"/>
      <point x="650" y="670" type="line" smooth="yes"/>
      <point x="650" y="691"/>
      <point x="632" y="702"/>
      <point x="590" y="702" type="curve" smooth="yes"/>
      <point x="561" y="702" type="line" smooth="yes"/>
      <point x="519" y="702"/>
      <point x="501" y="691"/>
      <point x="501" y="670" type="curve" smooth="yes"/>
      <point x="501" y="338" type="line" smooth="yes"/>
      <point x="501" y="309"/>
      <point x="501" y="293"/>
      <point x="503" y="270" type="curve"/>
      <point x="499" y="269" type="line"/>
      <point x="488" y="290"/>
      <point x="477" y="308"/>
      <point x="463" y="328" type="curve" smooth="yes"/>
      <point x="238" y="675" type="line" smooth="yes"/>
      <point x="223" y="698"/>
      <point x="201" y="702"/>
      <point x="172" y="702" type="curve" smooth="yes"/>
      <point x="129" y="702" type="line" smooth="yes"/>
      <point x="87" y="702"/>
      <point x="69" y="691"/>
      <point x="69" y="670" type="curve" smooth="yes"/>
      <point x="69" y="30" type="line" smooth="yes"/>
      <point x="69" y="9"/>
      <point x="87" y="-2"/>
      <point x="129" y="-2" type="curve" smooth="yes"/>
      <point x="158" y="-2" type="line" smooth="yes"/>
      <point x="200" y="-2"/>
      <point x="218" y="9"/>
      <point x="218" y="30" type="curve" smooth="yes"/>
      <point x="218" y="367" type="line" smooth="yes"/>
      <point x="218" y="396"/>
      <point x="218" y="412"/>
      <point x="216" y="435" type="curve"/>
      <point x="220" y="436" type="line"/>
      <point x="231" y="415"/>
      <point x="243" y="397"/>
      <point x="256" y="377" type="curve" smooth="yes"/>
    </contour>
    <contour>
      <point x="504" y="-212" type="curve" smooth="yes"/>
      <point x="587" y="-212"/>
      <point x="650" y="-159"/>
      <point x="650" y="-50" type="curve" smooth="yes"/>
      <point x="650" y="193" type="line"/>
      <point x="502" y="193" type="line"/>
      <point x="502" y="-52" type="line" smooth="yes"/>
      <point x="502" y="-82"/>
      <point x="492" y="-95"/>
      <point x="466" y="-95" type="curve" smooth="yes"/>
      <point x="455" y="-95"/>
      <point x="442" y="-91"/>
      <point x="436" y="-91" type="curve" smooth="yes"/>
      <point x="415" y="-91"/>
      <point x="400" y="-137"/>
      <point x="400" y="-160" type="curve" smooth="yes"/>
      <point x="400" y="-199"/>
      <point x="425" y="-212"/>
    </contour>
  </outline>
</glyph>
<glyph name="eng" format="2">
  <advance width="557"/>
  <unicode hex="014B"/>
  <outline>
    <contour>
      <point x="352" y="-212" type="curve" smooth="yes"/>
      <point x="435" y="-212"/>
      <point x="498" y="-159"/>
      <point x="498" y="-50" type="curve" smooth="yes"/>
      <point x="498" y="369" type="line" smooth="yes"/>
      <point x="498" y="480"/>
      <point x="451" y="531"/>
      <point x="351" y="531" type="curve" smooth="yes"/>
      <point x="286" y="531"/>
      <point x="231" y="493"/>
      <point x="202" y="455" type="curve"/>
      <point x="196" y="480"/>
      <point x="194" y="520"/>
      <point x="162" y="520" type="curve" smooth="yes"/>
      <point x="137" y="520"/>
      <point x="50" y="512"/>
      <point x="50" y="488" type="curve" smooth="yes"/>
      <point x="50" y="468"/>
      <point x="62" y="447"/>
      <point x="62" y="347" type="curve" smooth="yes"/>
      <point x="62" y="30" type="line" smooth="yes"/>
      <point x="62" y="9"/>
      <point x="80" y="-2"/>
      <point x="122" y="-2" type="curve" smooth="yes"/>
      <point x="150" y="-2" type="line" smooth="yes"/>
      <point x="192" y="-2"/>
      <point x="210" y="9"/>
      <point x="210" y="30" type="curve" smooth="yes"/>
      <point x="210" y="351" type="line"/>
      <point x="222" y="374"/>
      <point x="249" y="409"/>
      <point x="290" y="409" type="curve" smooth="yes"/>
      <point x="334" y="409"/>
      <point x="350" y="386"/>
      <point x="350" y="347" type="curve" smooth="yes"/>
      <point x="350" y="-52" type="line" smooth="yes"/>
      <point x="350" y="-82"/>
      <point x="340" y="-95"/>
      <point x="314" y="-95" type="curve" smooth="yes"/>
      <point x="303" y="-95"/>
      <point x="290" y="-91"/>
      <point x="284" y="-91" type="curve" smooth="yes"/>
      <point x="263" y="-91"/>
      <point x="248" y="-137"/>
      <point x="248" y="-160" type="curve" smooth="yes"/>
      <point x="248" y="-199"/>
      <point x="273" y="-212"/>
    </contour>
  </outline>
</glyph>
<glyph name="oe" format="2">
  <advance width="875"/>
  <unicode hex="0153"/>
  <anchor x="447" y="523" name="top"/>
  <anchor x="773" y="14" name="ogonek"/>
  <anchor x="606" y="0" name="bottom"/>
  <outline>
    <contour>
      <point x="285" y="-8" type="curve" smooth="yes"/>
      <point x="358" y="-8"/>
      <point x="414" y="16"/>
      <point x="455" y="54" type="curve"/>
      <point x="452" y="470" type="line"/>
      <point x="412" y="507"/>
      <point x="356" y="531"/>
      <point x="285" y="531" type="curve" smooth="yes"/>
      <point x="126" y="531"/>
      <point x="42" y="436"/>
      <point x="42" y="262" type="curve" smooth="yes"/>
      <point x="42" y="88"/>
      <point x="126" y="-8"/>
    </contour>
    <contour>
      <point x="285" y="109" type="curve" smooth="yes"/>
      <point x="221" y="109"/>
      <point x="192" y="162"/>
      <point x="192" y="262" type="curve" smooth="yes"/>
      <point x="192" y="362"/>
      <point x="221" y="414"/>
      <point x="285" y="414" type="curve" smooth="yes"/>
      <point x="349" y="414"/>
      <point x="377" y="362"/>
      <point x="377" y="262" type="curve" smooth="yes"/>
      <point x="377" y="162"/>
      <point x="349" y="109"/>
    </contour>
    <component base="e" xOffset="336"/>
  </outline>
</glyph>
<glyph name="Schwa" format="2">
  <advance width="672"/>
  <unicode hex="018F"/>
  <outline>
    <contour>
      <point x="304" y="-1" type="curve" smooth="yes"/>
      <point x="477" y="-1"/>
      <point x="597" y="93"/>
      <point x="597" y="332" type="curve" smooth="yes"/>
      <point x="597" y="559"/>
      <point x="505" y="708"/>
      <point x="296" y="708" type="curve" smooth="yes"/>
      <point x="222" y="708"/>
      <point x="56" y="680"/>
      <point x="56" y="616" type="curve" smooth="yes"/>
      <point x="56" y="596"/>
      <point x="86" y="540"/>
      <point x="108" y="540" type="curve" smooth="yes"/>
      <point x="128" y="540"/>
      <point x="196" y="591"/>
      <point x="289" y="591" type="curve" smooth="yes"/>
      <point x="378" y="591"/>
      <point x="433" y="544"/>
      <point x="444" y="376" type="curve"/>
      <point x="89" y="376" type="line" smooth="yes"/>
      <point x="76" y="376"/>
      <point x="38" y="334"/>
      <point x="38" y="317" type="curve" smooth="yes"/>
      <point x="38" y="148"/>
      <point x="112" y="-1"/>
    </contour>
    <contour>
      <point x="304" y="116" type="curve" smooth="yes"/>
      <point x="219" y="116"/>
      <point x="182" y="183"/>
      <point x="182" y="277" type="curve"/>
      <point x="444" y="277" type="line"/>
      <point x="427" y="152"/>
      <point x="371" y="116"/>
    </contour>
  </outline>
</glyph>
<glyph name="florin" format="2">
  <advance width="332"/>
  <unicode hex="0192"/>
  <outline>
    <contour>
      <point x="43" y="-207" type="curve" smooth="yes"/>
      <point x="71" y="-207" type="line" smooth="yes"/>
      <point x="113" y="-207"/>
      <point x="132" y="-196"/>
      <point x="135" y="-175" type="curve" smooth="yes"/>
      <point x="216" y="406" type="line"/>
      <point x="266" y="406" type="line" smooth="yes"/>
      <point x="307" y="406"/>
      <point x="307" y="489"/>
      <point x="307" y="492" type="curve" smooth="yes"/>
      <point x="307" y="513"/>
      <point x="300" y="523"/>
      <point x="283" y="523" type="curve" smooth="yes"/>
      <point x="233" y="523" type="line"/>
      <point x="244" y="600" type="line" smooth="yes"/>
      <point x="248" y="630"/>
      <point x="260" y="643"/>
      <point x="286" y="643" type="curve" smooth="yes"/>
      <point x="296" y="643"/>
      <point x="309" y="639"/>
      <point x="316" y="639" type="curve" smooth="yes"/>
      <point x="336" y="639"/>
      <point x="357" y="695"/>
      <point x="357" y="711" type="curve" smooth="yes"/>
      <point x="357" y="757"/>
      <point x="300" y="760"/>
      <point x="264" y="760" type="curve" smooth="yes"/>
      <point x="171" y="760"/>
      <point x="110" y="709"/>
      <point x="95" y="598" type="curve" smooth="yes"/>
      <point x="85" y="523" type="line"/>
      <point x="67" y="523" type="line" smooth="yes"/>
      <point x="26" y="523"/>
      <point x="25" y="443"/>
      <point x="25" y="437" type="curve" smooth="yes"/>
      <point x="25" y="415"/>
      <point x="33" y="406"/>
      <point x="50" y="406" type="curve" smooth="yes"/>
      <point x="68" y="406" type="line"/>
      <point x="41" y="212"/>
      <point x="-13" y="-164"/>
      <point x="-13" y="-175" type="curve"/>
      <point x="-13" y="-197"/>
      <point x="-2" y="-207"/>
    </contour>
  </outline>
</glyph>
<glyph name="Ohorn" format="2">
  <advance width="731"/>
  <unicode hex="01A0"/>
  <anchor x="367" y="0" name="bottom"/>
  <anchor x="443" y="0" name="ogonek"/>
  <anchor x="366" y="700" name="top"/>
  <outline>
    <contour>
      <point x="366" y="-8" type="curve" smooth="yes"/>
      <point x="572" y="-8"/>
      <point x="686" y="119"/>
      <point x="686" y="350" type="curve" smooth="yes"/>
      <point x="686" y="484"/>
      <point x="647" y="584"/>
      <point x="575" y="643" type="curve"/>
      <point x="633" y="654"/>
      <point x="659" y="687"/>
      <point x="659" y="733" type="curve" smooth="yes"/>
      <point x="659" y="763"/>
      <point x="638" y="816"/>
      <point x="612" y="816" type="curve" smooth="yes"/>
      <point x="606" y="816"/>
      <point x="601" y="815"/>
      <point x="596" y="811" type="curve"/>
      <point x="564" y="789" type="line"/>
      <point x="556" y="784"/>
      <point x="553" y="777"/>
      <point x="553" y="770" type="curve" smooth="yes"/>
      <point x="553" y="757"/>
      <point x="579" y="740"/>
      <point x="579" y="718" type="curve" smooth="yes"/>
      <point x="579" y="695"/>
      <point x="566" y="682"/>
      <point x="537" y="682" type="curve" smooth="yes"/>
      <point x="517" y="682"/>
      <point x="496" y="688"/>
      <point x="474" y="694" type="curve" smooth="yes"/>
      <point x="442" y="703"/>
      <point x="406" y="708"/>
      <point x="366" y="708" type="curve" smooth="yes"/>
      <point x="160" y="708"/>
      <point x="45" y="581"/>
      <point x="45" y="350" type="curve" smooth="yes"/>
      <point x="45" y="119"/>
      <point x="160" y="-8"/>
    </contour>
    <contour>
      <point x="366" y="123" type="curve" smooth="yes"/>
      <point x="259" y="123"/>
      <point x="203" y="203"/>
      <point x="203" y="350" type="curve" smooth="yes"/>
      <point x="203" y="497"/>
      <point x="259" y="576"/>
      <point x="366" y="576" type="curve" smooth="yes"/>
      <point x="473" y="576"/>
      <point x="528" y="497"/>
      <point x="528" y="350" type="curve" smooth="yes"/>
      <point x="528" y="203"/>
      <point x="473" y="123"/>
    </contour>
  </outline>
</glyph>
<glyph name="Uhorn" format="2">
  <advance width="712"/>
  <unicode hex="01AF"/>
  <anchor x="356" y="0" name="bottom"/>
  <anchor x="447" y="0" name="ogonek"/>
  <anchor x="356" y="700" name="top"/>
  <outline>
    <contour>
      <point x="738" y="753" type="curve" smooth="yes"/>
      <point x="738" y="783"/>
      <point x="717" y="836"/>
      <point x="691" y="836" type="curve" smooth="yes"/>
      <point x="685" y="836"/>
      <point x="680" y="835"/>
      <point x="675" y="831" type="curve"/>
      <point x="643" y="809" type="line"/>
      <point x="635" y="804"/>
      <point x="632" y="797"/>
      <point x="632" y="790" type="curve" smooth="yes"/>
      <point x="632" y="777"/>
      <point x="658" y="760"/>
      <point x="658" y="738" type="curve" smooth="yes"/>
      <point x="658" y="715"/>
      <point x="645" y="702"/>
      <point x="611" y="702" type="curve" smooth="yes"/>
      <point x="553" y="702" type="line" smooth="yes"/>
      <point x="511" y="702"/>
      <point x="493" y="691"/>
      <point x="493" y="670" type="curve" smooth="yes"/>
      <point x="493" y="244" type="line" smooth="yes"/>
      <point x="493" y="174"/>
      <point x="437" y="123"/>
      <point x="356" y="123" type="curve" smooth="yes"/>
      <point x="275" y="123"/>
      <point x="220" y="174"/>
      <point x="220" y="244" type="curve" smooth="yes"/>
      <point x="220" y="670" type="line" smooth="yes"/>
      <point x="220" y="691"/>
      <point x="202" y="702"/>
      <point x="160" y="702" type="curve" smooth="yes"/>
      <point x="126" y="702" type="line" smooth="yes"/>
      <point x="84" y="702"/>
      <point x="66" y="691"/>
      <point x="66" y="670" type="curve" smooth="yes"/>
      <point x="66" y="234" type="line" smooth="yes"/>
      <point x="66" y="80"/>
      <point x="173" y="-8"/>
      <point x="356" y="-8" type="curve" smooth="yes"/>
      <point x="539" y="-8"/>
      <point x="646" y="80"/>
      <point x="646" y="234" type="curve" smooth="yes"/>
      <point x="646" y="662" type="line"/>
      <point x="710" y="671"/>
      <point x="738" y="705"/>
    </contour>
  </outline>
</glyph>
<glyph name="Aringacute" format="2">
  <advance width="613"/>
  <unicode hex="01FA"/>
  <anchor x="543" y="14" name="ogonek"/>
  <outline>
    <contour>
      <point x="61" y="-2" type="curve" smooth="yes"/>
      <point x="101" y="-2" type="line" smooth="yes"/>
      <point x="125" y="-2"/>
      <point x="142" y="4"/>
      <point x="147" y="19" type="curve" smooth="yes"/>
      <point x="187" y="141" type="line"/>
      <point x="423" y="141" type="line"/>
      <point x="463" y="19" type="line" smooth="yes"/>
      <point x="468" y="3"/>
      <point x="490" y="-2"/>
      <point x="519" y="-2" type="curve" smooth="yes"/>
      <point x="563" y="-2" type="line" smooth="yes"/>
      <point x="598" y="-2"/>
      <point x="613" y="6"/>
      <point x="613" y="20" type="curve" smooth="yes"/>
      <point x="613" y="25"/>
      <point x="612" y="31"/>
      <point x="610" y="38" type="curve" smooth="yes"/>
      <point x="395" y="666" type="line" smooth="yes"/>
      <point x="387" y="690"/>
      <point x="354" y="656"/>
      <point x="333" y="656" type="curve" smooth="yes"/>
      <point x="281" y="656" type="line" smooth="yes"/>
      <point x="260" y="656"/>
      <point x="230" y="700"/>
      <point x="218" y="666" type="curve" smooth="yes"/>
      <point x="4" y="38" type="line" smooth="yes"/>
      <point x="2" y="31"/>
      <point x="0" y="25"/>
      <point x="0" y="20" type="curve" smooth="yes"/>
      <point x="0" y="6"/>
      <point x="19" y="-2"/>
    </contour>
    <contour>
      <point x="230" y="273" type="line"/>
      <point x="289" y="451" type="line" smooth="yes"/>
      <point x="296.5" y="472"/>
      <point x="300" y="494"/>
      <point x="304" y="515" type="curve"/>
      <point x="308" y="515" type="line"/>
      <point x="312" y="494"/>
      <point x="316" y="472"/>
      <point x="323" y="451" type="curve" smooth="yes"/>
      <point x="380" y="273" type="line"/>
    </contour>
    <component base="ringcomb" xOffset="304" yOffset="47"/>
    <component base="acute.alt" xOffset="217" yOffset="247"/>
  </outline>
</glyph>
<glyph name="caron" format="2">
  <advance width="320"/>
  <unicode hex="02C7"/>
  <anchor x="156.5" y="523" name="_top"/>
  <outline>
    <contour>
      <point x="151" y="572" type="curve"/>
      <point x="162" y="572" type="line" smooth="yes"/>
      <point x="191" y="572"/>
      <point x="212" y="573"/>
      <point x="223" y="591" type="curve" smooth="yes"/>
      <point x="288" y="693" type="line" smooth="yes"/>
      <point x="292" y="699"/>
      <point x="294" y="704"/>
      <point x="294" y="708" type="curve" smooth="yes"/>
      <point x="294" y="715"/>
      <point x="287" y="718"/>
      <point x="274" y="718" type="curve" smooth="yes"/>
      <point x="252" y="718" type="line" smooth="yes"/>
      <point x="223" y="718"/>
      <point x="197" y="713"/>
      <point x="184" y="694" type="curve" smooth="yes"/>
      <point x="156" y="654" type="line"/>
      <point x="128" y="693" type="line" smooth="yes"/>
      <point x="113" y="714"/>
      <point x="90" y="718"/>
      <point x="61" y="718" type="curve" smooth="yes"/>
      <point x="39" y="718" type="line" smooth="yes"/>
      <point x="25" y="718"/>
      <point x="19" y="715"/>
      <point x="19" y="708" type="curve" smooth="yes"/>
      <point x="19" y="704"/>
      <point x="21" y="699"/>
      <point x="25" y="693" type="curve" smooth="yes"/>
      <point x="90" y="591" type="line" smooth="yes"/>
      <point x="101" y="573"/>
      <point x="122" y="572"/>
    </contour>
  </outline>
</glyph>
<glyph name="dotaccent" format="2">
  <advance width="320"/>
  <unicode hex="02D9"/>
  <anchor x="162" y="523" name="_top"/>
  <outline>
    <contour>
      <point x="162" y="578" type="curve" smooth="yes"/>
      <point x="204" y="578"/>
      <point x="222" y="589"/>
      <point x="222" y="610" type="curve" smooth="yes"/>
      <point x="222" y="670" type="line" smooth="yes"/>
      <point x="222" y="691"/>
      <point x="204" y="702"/>
      <point x="162" y="702" type="curve" smooth="yes"/>
      <point x="120" y="702"/>
      <point x="102" y="691"/>
      <point x="102" y="670" type="curve" smooth="yes"/>
      <point x="102" y="610" type="line" smooth="yes"/>
      <point x="102" y="589"/>
      <point x="120" y="578"/>
    </contour>
  </outline>
</glyph>
<glyph name="ogonek" format="2">
  <advance width="320"/>
  <unicode hex="02DB"/>
  <anchor x="132" y="0" name="_ogonek"/>
  <outline>
    <contour>
      <point x="172" y="-183" type="curve" smooth="yes"/>
      <point x="199" y="-183"/>
      <point x="229" y="-179"/>
      <point x="244" y="-161" type="curve" smooth="yes"/>
      <point x="250" y="-154"/>
      <point x="254" y="-145"/>
      <point x="254" y="-133" type="curve" smooth="yes"/>
      <point x="254" y="-114"/>
      <point x="246" y="-105"/>
      <point x="232" y="-105" type="curve" smooth="yes"/>
      <point x="214" y="-105"/>
      <point x="208" y="-113"/>
      <point x="183" y="-113" type="curve" smooth="yes"/>
      <point x="160" y="-113"/>
      <point x="121" y="-110"/>
      <point x="121" y="-62" type="curve" smooth="yes"/>
      <point x="121" y="-32"/>
      <point x="129" y="-15"/>
      <point x="132" y="0" type="curve"/>
      <point x="84" y="18" type="line"/>
      <point x="62" y="-13"/>
      <point x="54" y="-61"/>
      <point x="54" y="-81" type="curve" smooth="yes"/>
      <point x="54" y="-110"/>
      <point x="65" y="-183"/>
    </contour>
  </outline>
</glyph>
<glyph name="hungarumlaut" format="2">
  <advance width="384"/>
  <unicode hex="02DD"/>
  <anchor x="146" y="523" name="_top"/>
  <outline>
    <contour>
      <point x="206" y="575" type="curve" smooth="yes"/>
      <point x="253" y="575"/>
      <point x="270" y="588"/>
      <point x="281" y="600" type="curve" smooth="yes"/>
      <point x="378" y="706"/>
      <point x="385" y="708"/>
      <point x="385" y="720" type="curve" smooth="yes"/>
      <point x="385" y="731"/>
      <point x="365" y="734"/>
      <point x="325" y="734" type="curve" smooth="yes"/>
      <point x="285" y="734"/>
      <point x="252" y="728"/>
      <point x="240" y="707" type="curve" smooth="yes"/>
      <point x="194" y="626"/>
      <point x="175" y="601"/>
      <point x="175" y="590" type="curve" smooth="yes"/>
      <point x="175" y="579"/>
      <point x="182" y="575"/>
    </contour>
    <contour>
      <point x="23" y="575" type="curve" smooth="yes"/>
      <point x="70" y="575"/>
      <point x="87" y="588"/>
      <point x="98" y="600" type="curve" smooth="yes"/>
      <point x="195" y="706"/>
      <point x="202" y="708"/>
      <point x="202" y="720" type="curve" smooth="yes"/>
      <point x="202" y="731"/>
      <point x="182" y="734"/>
      <point x="142" y="734" type="curve" smooth="yes"/>
      <point x="102" y="734"/>
      <point x="69" y="728"/>
      <point x="57" y="707" type="curve" smooth="yes"/>
      <point x="11" y="626"/>
      <point x="-8" y="601"/>
      <point x="-8" y="590" type="curve" smooth="yes"/>
      <point x="-8" y="579"/>
      <point x="-1" y="575"/>
    </contour>
  </outline>
</glyph>
<glyph name="hookabovecomb" format="2">
  <advance width="300"/>
  <unicode hex="0309"/>
  <anchor x="0" y="523" name="_top"/>
  <anchor x="1" y="700" name="top"/>
  <outline>
    <contour>
      <point x="24" y="570" type="curve" smooth="yes"/>
      <point x="42" y="570"/>
      <point x="124" y="619"/>
      <point x="124" y="672" type="curve" smooth="yes"/>
      <point x="124" y="721"/>
      <point x="85" y="751"/>
      <point x="13" y="751" type="curve" smooth="yes"/>
      <point x="-22" y="751"/>
      <point x="-67" y="733"/>
      <point x="-67" y="720" type="curve" smooth="yes"/>
      <point x="-67" y="705"/>
      <point x="-45" y="678"/>
      <point x="-37" y="678" type="curve" smooth="yes"/>
      <point x="-28" y="678"/>
      <point x="-17" y="690"/>
      <point x="5" y="690" type="curve" smooth="yes"/>
      <point x="21" y="690"/>
      <point x="37" y="682"/>
      <point x="37" y="668" type="curve" smooth="yes"/>
      <point x="37" y="638"/>
      <point x="-30" y="610"/>
      <point x="-30" y="593" type="curve" smooth="yes"/>
      <point x="-30" y="585"/>
      <point x="0" y="570"/>
    </contour>
  </outline>
</glyph>
<glyph name="horncomb" format="2">
  <advance width="600"/>
  <unicode hex="031B"/>
  <anchor x="355" y="510" name="_horn"/>
  <anchor x="306" y="630" name="top"/>
  <outline>
    <contour>
      <point x="408" y="467" type="line"/>
      <point x="500" y="467"/>
      <point x="540" y="504"/>
      <point x="540" y="561" type="curve" smooth="yes"/>
      <point x="540" y="591"/>
      <point x="519" y="644"/>
      <point x="493" y="644" type="curve" smooth="yes"/>
      <point x="487" y="644"/>
      <point x="482" y="643"/>
      <point x="477" y="639" type="curve" smooth="yes"/>
      <point x="445" y="617" type="line" smooth="yes"/>
      <point x="437" y="612"/>
      <point x="434" y="605"/>
      <point x="434" y="598" type="curve" smooth="yes"/>
      <point x="434" y="585"/>
      <point x="460" y="568"/>
      <point x="460" y="546" type="curve" smooth="yes"/>
      <point x="460" y="523"/>
      <point x="447" y="510"/>
      <point x="413" y="510" type="curve"/>
      <point x="355" y="510" type="line"/>
    </contour>
  </outline>
</glyph>
<glyph name="commaaccentcomb" format="2">
  <advance width="353"/>
  <unicode hex="0326"/>
  <anchor x="191" y="0" name="_bottom"/>
  <anchor x="191" y="-203" name="bottom"/>
  <outline>
    <contour>
      <point x="145" y="-240" type="curve" smooth="yes"/>
      <point x="180" y="-240"/>
      <point x="253" y="-162"/>
      <point x="253" y="-95" type="curve" smooth="yes"/>
      <point x="253" y="-70"/>
      <point x="238" y="-51"/>
      <point x="203" y="-51" type="curve" smooth="yes"/>
      <point x="184" y="-51" type="line" smooth="yes"/>
      <point x="142" y="-51"/>
      <point x="124" y="-68"/>
      <point x="124" y="-95" type="curve" smooth="yes"/>
      <point x="124" y="-175"/>
      <point x="100" y="-200"/>
      <point x="100" y="-218" type="curve" smooth="yes"/>
      <point x="100" y="-234"/>
      <point x="127" y="-240"/>
    </contour>
  </outline>
</glyph>
<glyph name="Delta" format="2">
  <advance width="708"/>
  <unicode hex="0394"/>
  <outline>
    <contour>
      <point x="64" y="0" type="curve" smooth="yes"/>
      <point x="641" y="0" type="line" smooth="yes"/>
      <point x="664" y="0"/>
      <point x="676" y="12"/>
      <point x="676" y="35" type="curve" smooth="yes"/>
      <point x="676" y="86" type="line" smooth="yes"/>
      <point x="676" y="103"/>
      <point x="674" y="115"/>
      <point x="667" y="130" type="curve" smooth="yes"/>
      <point x="424" y="683" type="line" smooth="yes"/>
      <point x="416" y="702"/>
      <point x="403" y="710"/>
      <point x="383" y="710" type="curve" smooth="yes"/>
      <point x="322" y="710" type="line" smooth="yes"/>
      <point x="302" y="710"/>
      <point x="289" y="702"/>
      <point x="281" y="683" type="curve" smooth="yes"/>
      <point x="38" y="130" type="line" smooth="yes"/>
      <point x="31" y="115"/>
      <point x="29" y="103"/>
      <point x="29" y="86" type="curve" smooth="yes"/>
      <point x="29" y="35" type="line" smooth="yes"/>
      <point x="29" y="12"/>
      <point x="41" y="0"/>
    </contour>
    <contour>
      <point x="181" y="130" type="line"/>
      <point x="347" y="513" type="line"/>
      <point x="357" y="513" type="line"/>
      <point x="523" y="130" type="line"/>
    </contour>
  </outline>
</glyph>
<glyph name="Omega" format="2">
  <advance width="731"/>
  <unicode hex="03A9"/>
  <anchor x="20" y="700" name="topleft"/>
  <outline>
    <contour>
      <point x="56" y="0" type="curve"/>
      <point x="303" y="0" type="line" smooth="yes"/>
      <point x="324" y="0"/>
      <point x="333" y="15"/>
      <point x="333" y="50" type="curve" smooth="yes"/>
      <point x="333" y="76" type="line" smooth="yes"/>
      <point x="333" y="97"/>
      <point x="331" y="106"/>
      <point x="319" y="110" type="curve" smooth="yes"/>
      <point x="246.5" y="134"/>
      <point x="203" y="209"/>
      <point x="203" y="350" type="curve" smooth="yes"/>
      <point x="203" y="497"/>
      <point x="259" y="576"/>
      <point x="366" y="576" type="curve" smooth="yes"/>
      <point x="473" y="576"/>
      <point x="529" y="497"/>
      <point x="529" y="350" type="curve" smooth="yes"/>
      <point x="529" y="209"/>
      <point x="486" y="133"/>
      <point x="413" y="110" type="curve" smooth="yes"/>
      <point x="401" y="106"/>
      <point x="399" y="97"/>
      <point x="399" y="76" type="curve" smooth="yes"/>
      <point x="399" y="50" type="line" smooth="yes"/>
      <point x="399" y="15"/>
      <point x="408" y="0"/>
      <point x="429" y="0" type="curve" smooth="yes"/>
      <point x="676" y="0" type="line" smooth="yes"/>
      <point x="697" y="0"/>
      <point x="706" y="15"/>
      <point x="706" y="50" type="curve" smooth="yes"/>
      <point x="706" y="81" type="line" smooth="yes"/>
      <point x="706" y="116"/>
      <point x="697" y="131"/>
      <point x="676" y="131" type="curve" smooth="yes"/>
      <point x="643" y="131"/>
      <point x="594" y="113"/>
      <point x="594" y="113" type="curve"/>
      <point x="657" y="176"/>
      <point x="687" y="262"/>
      <point x="687" y="360" type="curve" smooth="yes"/>
      <point x="687" y="585"/>
      <point x="572" y="708"/>
      <point x="366" y="708" type="curve" smooth="yes"/>
      <point x="160" y="708"/>
      <point x="45" y="585"/>
      <point x="45" y="360" type="curve" smooth="yes"/>
      <point x="45" y="262"/>
      <point x="75" y="176"/>
      <point x="138" y="113" type="curve"/>
      <point x="138" y="113"/>
      <point x="89" y="131"/>
      <point x="56" y="131" type="curve" smooth="yes"/>
      <point x="35" y="131"/>
      <point x="26" y="116"/>
      <point x="26" y="81" type="curve" smooth="yes"/>
      <point x="26" y="50" type="line" smooth="yes"/>
      <point x="26" y="15"/>
      <point x="35" y="0"/>
    </contour>
  </outline>
</glyph>
<glyph name="Germandbls" format="2">
  <advance width="700"/>
  <unicode hex="1E9E"/>
  <outline>
    <contour>
      <point x="459" y="-8" type="curve" smooth="yes"/>
      <point x="586" y="-8"/>
      <point x="675" y="71"/>
      <point x="675" y="204" type="curve" smooth="yes"/>
      <point x="675" y="334"/>
      <point x="598" y="380"/>
      <point x="522" y="410" type="curve"/>
      <point x="634" y="590" type="line"/>
      <point x="635" y="592"/>
      <point x="635" y="594"/>
      <point x="635" y="598" type="curve" smooth="yes"/>
      <point x="635" y="624"/>
      <point x="614" y="688"/>
      <point x="598" y="690" type="curve" smooth="yes"/>
      <point x="532" y="698.5"/>
      <point x="436" y="708"/>
      <point x="350" y="708" type="curve" smooth="yes"/>
      <point x="163" y="708"/>
      <point x="66" y="614"/>
      <point x="66" y="432" type="curve" smooth="yes"/>
      <point x="66" y="30" type="line" smooth="yes"/>
      <point x="66" y="9"/>
      <point x="84" y="-2"/>
      <point x="126" y="-2" type="curve" smooth="yes"/>
      <point x="161" y="-2" type="line" smooth="yes"/>
      <point x="203" y="-2"/>
      <point x="221" y="9"/>
      <point x="221" y="30" type="curve" smooth="yes"/>
      <point x="221" y="431" type="line" smooth="yes"/>
      <point x="221" y="524"/>
      <point x="261" y="576"/>
      <point x="347" y="576" type="curve" smooth="yes"/>
      <point x="389" y="576"/>
      <point x="424" y="574"/>
      <point x="453" y="571" type="curve"/>
      <point x="354" y="407" type="line"/>
      <point x="353" y="405"/>
      <point x="352" y="401"/>
      <point x="352" y="397" type="curve" smooth="yes"/>
      <point x="352" y="370"/>
      <point x="374" y="308"/>
      <point x="391" y="308" type="curve" smooth="yes"/>
      <point x="418" y="308" type="line" smooth="yes"/>
      <point x="487" y="308"/>
      <point x="525" y="272"/>
      <point x="525" y="206" type="curve" smooth="yes"/>
      <point x="525" y="144"/>
      <point x="489" y="109"/>
      <point x="436" y="109" type="curve" smooth="yes"/>
      <point x="373" y="109"/>
      <point x="336" y="150"/>
      <point x="321" y="150" type="curve" smooth="yes"/>
      <point x="298" y="150"/>
      <point x="272" y="93"/>
      <point x="272" y="74" type="curve" smooth="yes"/>
      <point x="272" y="12"/>
      <point x="394" y="-8"/>
    </contour>
  </outline>
</glyph>
<glyph name="uhorntilde" format="2">
  <advance width="557"/>
  <unicode hex="1EEF"/>
  <anchor x="279" y="523" name="top"/>
  <anchor x="454" y="10" name="ogonek"/>
  <anchor x="251" y="0" name="bottom"/>
  <outline>
    <contour>
      <point x="146.28" y="580" type="line" smooth="yes"/>
      <point x="150.2" y="579"/>
      <point x="154.12" y="578"/>
      <point x="158.04" y="578" type="curve" smooth="yes"/>
      <point x="165.88" y="578"/>
      <point x="173.72" y="582"/>
      <point x="182.54" y="595" type="curve" smooth="yes"/>
      <point x="193.32" y="609"/>
      <point x="204.1" y="611"/>
      <point x="211.94" y="611" type="curve" smooth="yes"/>
      <point x="241.34" y="609"/>
      <point x="307" y="582"/>
      <point x="337.38" y="582" type="curve" smooth="yes"/>
      <point x="388.34" y="582"/>
      <point x="422.64" y="616"/>
      <point x="434.4" y="652" type="curve" smooth="yes"/>
      <point x="436.36" y="656"/>
      <point x="437.34" y="661"/>
      <point x="437.34" y="666" type="curve" smooth="yes"/>
      <point x="437.34" y="677"/>
      <point x="432.44" y="688"/>
      <point x="416.76" y="693" type="curve" smooth="yes"/>
      <point x="406.96" y="696" type="line" smooth="yes"/>
      <point x="403.04" y="698"/>
      <point x="399.12" y="698"/>
      <point x="396.18" y="698" type="curve" smooth="yes"/>
      <point x="388.34" y="698"/>
      <point x="380.5" y="694"/>
      <point x="370.7" y="681" type="curve" smooth="yes"/>
      <point x="359.92" y="667"/>
      <point x="349.14" y="665"/>
      <point x="341.3" y="665" type="curve" smooth="yes"/>
      <point x="311.9" y="667"/>
      <point x="246.24" y="694"/>
      <point x="215.86" y="694" type="curve" smooth="yes"/>
      <point x="164.9" y="694"/>
      <point x="130.6" y="660"/>
      <point x="118.84" y="624" type="curve" smooth="yes"/>
      <point x="117.86" y="620"/>
      <point x="116.88" y="615"/>
      <point x="116.88" y="610" type="curve" smooth="yes"/>
      <point x="116.88" y="599"/>
      <point x="121.78" y="588"/>
      <point x="136.48" y="583" type="curve" smooth="yes"/>
    </contour>
    <component base="uhorn"/>
  </outline>
</glyph>
<glyph name="endash" format="2">
  <advance width="500"/>
  <unicode hex="2013"/>
  <outline>
    <contour>
      <point x="30" y="212" type="curve"/>
      <point x="470" y="212" type="line" smooth="yes"/>
      <point x="491" y="212"/>
      <point x="500" y="227"/>
      <point x="500" y="262" type="curve" smooth="yes"/>
      <point x="500" y="269" type="line" smooth="yes"/>
      <point x="500" y="304"/>
      <point x="491" y="319"/>
      <point x="470" y="319" type="curve" smooth="yes"/>
      <point x="30" y="319" type="line" smooth="yes"/>
      <point x="9" y="319"/>
      <point x="0" y="304"/>
      <point x="0" y="269" type="curve" smooth="yes"/>
      <point x="0" y="262" type="line" smooth="yes"/>
      <point x="0" y="227"/>
      <point x="9" y="212"/>
    </contour>
  </outline>
</glyph>
<glyph name="quoteright" format="2">
  <advance width="212"/>
  <unicode hex="2019"/>
  <outline>
    <contour>
      <point x="64" y="478" type="curve" smooth="yes"/>
      <point x="108" y="478"/>
      <point x="202" y="601"/>
      <point x="202" y="713" type="curve" smooth="yes"/>
      <point x="202" y="738"/>
      <point x="184" y="757"/>
      <point x="142" y="757" type="curve" smooth="yes"/>
      <point x="123" y="757" type="line" smooth="yes"/>
      <point x="81" y="757"/>
      <point x="63" y="740"/>
      <point x="63" y="713" type="curve" smooth="yes"/>
      <point x="63" y="611"/>
      <point x="39" y="561"/>
      <point x="26" y="529" type="curve" smooth="yes"/>
      <point x="21.5" y="517"/>
      <point x="19" y="508"/>
      <point x="19" y="500" type="curve" smooth="yes"/>
      <point x="19" y="484"/>
      <point x="46" y="478"/>
    </contour>
  </outline>
</glyph>
<glyph name="bullet" format="2">
  <advance width="336"/>
  <unicode hex="2022"/>
  <outline>
    <contour>
      <point x="168" y="194" type="curve" smooth="yes"/>
      <point x="241" y="194"/>
      <point x="301" y="253"/>
      <point x="301" y="326" type="curve" smooth="yes"/>
      <point x="301" y="399"/>
      <point x="241" y="459"/>
      <point x="168" y="459" type="curve" smooth="yes"/>
      <point x="95" y="459"/>
      <point x="36" y="399"/>
      <point x="36" y="326" type="curve" smooth="yes"/>
      <point x="36" y="253"/>
      <point x="95" y="194"/>
    </contour>
  </outline>
</glyph>
<glyph name="ellipsis" format="2">
  <advance width="616"/>
  <unicode hex="2026"/>
  <outline>
    <contour>
      <point x="500" y="-2" type="curve" smooth="yes"/>
      <point x="532" y="-2" type="line" smooth="yes"/>
      <point x="574" y="-2"/>
      <point x="592" y="9"/>
      <point x="592" y="30" type="curve" smooth="yes"/>
      <point x="592" y="122" type="line" smooth="yes"/>
      <point x="592" y="143"/>
      <point x="574" y="154"/>
      <point x="532" y="154" type="curve" smooth="yes"/>
      <point x="500" y="154" type="line" smooth="yes"/>
      <point x="458" y="154"/>
      <point x="440" y="143"/>
      <point x="440" y="122" type="curve" smooth="yes"/>
      <point x="440" y="30" type="line" smooth="yes"/>
      <point x="440" y="9"/>
      <point x="458" y="-2"/>
    </contour>
    <contour>
      <point x="82" y="-2" type="curve" smooth="yes"/>
      <point x="114" y="-2" type="line" smooth="yes"/>
      <point x="156" y="-2"/>
      <point x="174" y="9"/>
      <point x="174" y="30" type="curve" smooth="yes"/>
      <point x="174" y="122" type="line" smooth="yes"/>
      <point x="174" y="143"/>
      <point x="156" y="154"/>
      <point x="114" y="154" type="curve" smooth="yes"/>
      <point x="82" y="154" type="line" smooth="yes"/>
      <point x="40" y="154"/>
      <point x="22" y="143"/>
      <point x="22" y="122" type="curve" smooth="yes"/>
      <point x="22" y="30" type="line" smooth="yes"/>
      <point x="22" y="9"/>
      <point x="40" y="-2"/>
    </contour>
    <contour>
      <point x="291" y="-2" type="curve" smooth="yes"/>
      <point x="323" y="-2" type="line" smooth="yes"/>
      <point x="365" y="-2"/>
      <point x="383" y="9"/>
      <point x="383" y="30" type="curve" smooth="yes"/>
      <point x="383" y="122" type="line" smooth="yes"/>
      <point x="383" y="143"/>
      <point x="365" y="154"/>
      <point x="323" y="154" type="curve" smooth="yes"/>
      <point x="291" y="154" type="line" smooth="yes"/>
      <point x="249" y="154"/>
      <point x="231" y="143"/>
      <point x="231" y="122" type="curve" smooth="yes"/>
      <point x="231" y="30" type="line" smooth="yes"/>
      <point x="231" y="9"/>
      <point x="249" y="-2"/>
    </contour>
  </outline>
</glyph>
<glyph name="perthousand" format="2">
  <advance width="1038"/>
  <unicode hex="2030"/>
  <outline>
    <contour>
      <point x="149" y="-2" type="curve" smooth="yes"/>
      <point x="193" y="-2" type="line" smooth="yes"/>
      <point x="214" y="-2"/>
      <point x="227" y="8"/>
      <point x="237" y="26" type="curve" smooth="yes"/>
      <point x="594" y="674" type="line" smooth="yes"/>
      <point x="597" y="680"/>
      <point x="599" y="685"/>
      <point x="599" y="688" type="curve" smooth="yes"/>
      <point x="599" y="696"/>
      <point x="592" y="702"/>
      <point x="578" y="702" type="curve" smooth="yes"/>
      <point x="534" y="702" type="line" smooth="yes"/>
      <point x="513" y="702"/>
      <point x="500" y="692"/>
      <point x="490" y="674" type="curve" smooth="yes"/>
      <point x="133" y="26" type="line" smooth="yes"/>
      <point x="130" y="20"/>
      <point x="128" y="15"/>
      <point x="128" y="11" type="curve" smooth="yes"/>
      <point x="128" y="4"/>
      <point x="135" y="-2"/>
    </contour>
    <contour>
      <point x="539" y="-8" type="curve" smooth="yes"/>
      <point x="609" y="-8"/>
      <point x="689" y="21"/>
      <point x="689" y="160" type="curve" smooth="yes"/>
      <point x="689" y="299"/>
      <point x="609" y="328"/>
      <point x="539" y="328" type="curve" smooth="yes"/>
      <point x="469" y="328"/>
      <point x="389" y="299"/>
      <point x="389" y="160" type="curve" smooth="yes"/>
      <point x="389" y="21"/>
      <point x="469" y="-8"/>
    </contour>
    <contour>
      <point x="539" y="74" type="curve" smooth="yes"/>
      <point x="500" y="74"/>
      <point x="491" y="121"/>
      <point x="491" y="160" type="curve" smooth="yes"/>
      <point x="491" y="199"/>
      <point x="500" y="242"/>
      <point x="539" y="242" type="curve" smooth="yes"/>
      <point x="578" y="242"/>
      <point x="586" y="199"/>
      <point x="586" y="160" type="curve" smooth="yes"/>
      <point x="586" y="121"/>
      <point x="578" y="74"/>
    </contour>
    <contour>
      <point x="188" y="372" type="curve" smooth="yes"/>
      <point x="258" y="372"/>
      <point x="338" y="401"/>
      <point x="338" y="540" type="curve" smooth="yes"/>
      <point x="338" y="679"/>
      <point x="258" y="708"/>
      <point x="188" y="708" type="curve" smooth="yes"/>
      <point x="118" y="708"/>
      <point x="38" y="679"/>
      <point x="38" y="540" type="curve" smooth="yes"/>
      <point x="38" y="401"/>
      <point x="118" y="372"/>
    </contour>
    <contour>
      <point x="188" y="454" type="curve" smooth="yes"/>
      <point x="149" y="454"/>
      <point x="140" y="501"/>
      <point x="140" y="540" type="curve" smooth="yes"/>
      <point x="140" y="579"/>
      <point x="149" y="622"/>
      <point x="188" y="622" type="curve" smooth="yes"/>
      <point x="227" y="622"/>
      <point x="235" y="579"/>
      <point x="235" y="540" type="curve" smooth="yes"/>
      <point x="235" y="501"/>
      <point x="227" y="454"/>
    </contour>
    <contour>
      <point x="866" y="-8" type="curve" smooth="yes"/>
      <point x="936" y="-8"/>
      <point x="1016" y="21"/>
      <point x="1016" y="160" type="curve" smooth="yes"/>
      <point x="1016" y="299"/>
      <point x="936" y="328"/>
      <point x="866" y="328" type="curve" smooth="yes"/>
      <point x="796" y="328"/>
      <point x="716" y="299"/>
      <point x="716" y="160" type="curve" smooth="yes"/>
      <point x="716" y="21"/>
      <point x="796" y="-8"/>
    </contour>
    <contour>
      <point x="866" y="74" type="curve" smooth="yes"/>
      <point x="827" y="74"/>
      <point x="818" y="121"/>
      <point x="818" y="160" type="curve" smooth="yes"/>
      <point x="818" y="199"/>
      <point x="827" y="242"/>
      <point x="866" y="242" type="curve" smooth="yes"/>
      <point x="905" y="242"/>
      <point x="913" y="199"/>
      <point x="913" y="160" type="curve" smooth="yes"/>
      <point x="913" y="121"/>
      <point x="905" y="74"/>
    </contour>
  </outline>
</glyph>
<glyph name="guilsinglleft" format="2">
  <advance width="300"/>
  <unicode hex="2039"/>
  <outline>
    <contour>
      <point x="197" y="46" type="curve" smooth="yes"/>
      <point x="219" y="46"/>
      <point x="256" y="75"/>
      <point x="256" y="95" type="curve" smooth="yes"/>
      <point x="256" y="103"/>
      <point x="253" y="110"/>
      <point x="247" y="118" type="curve" smooth="yes"/>
      <point x="137" y="258" type="line"/>
      <point x="247" y="398" type="line" smooth="yes"/>
      <point x="253" y="406"/>
      <point x="256" y="413"/>
      <point x="256" y="420" type="curve" smooth="yes"/>
      <point x="256" y="443"/>
      <point x="216" y="469"/>
      <point x="197" y="469" type="curve" smooth="yes"/>
      <point x="187" y="469"/>
      <point x="178.5" y="465"/>
      <point x="170" y="455" type="curve" smooth="yes"/>
      <point x="43" y="302" type="line" smooth="yes"/>
      <point x="31" y="288"/>
      <point x="27" y="276"/>
      <point x="27" y="258" type="curve" smooth="yes"/>
      <point x="27" y="240"/>
      <point x="31" y="228"/>
      <point x="43" y="214" type="curve" smooth="yes"/>
      <point x="170" y="61" type="line" smooth="yes"/>
      <point x="178.5" y="51"/>
      <point x="188" y="46"/>
    </contour>
  </outline>
</glyph>
<glyph name="fraction" format="2">
  <advance width="264"/>
  <unicode hex="2044"/>
  <outline>
    <contour>
      <point x="-68" y="0" type="curve" smooth="yes"/>
      <point x="-51" y="0" type="line" smooth="yes"/>
      <point x="-31" y="0"/>
      <point x="-17" y="7"/>
      <point x="-6" y="26" type="curve"/>
      <point x="353" y="674" type="line" smooth="yes"/>
      <point x="356.5" y="680"/>
      <point x="359" y="685"/>
      <point x="359" y="689" type="curve" smooth="yes"/>
      <point x="359" y="696"/>
      <point x="352" y="700"/>
      <point x="338" y="700" type="curve" smooth="yes"/>
      <point x="321" y="700" type="line" smooth="yes"/>
      <point x="301" y="700"/>
      <point x="286" y="692"/>
      <point x="276" y="674" type="curve" smooth="yes"/>
      <point x="-83" y="26" type="line" smooth="yes"/>
      <point x="-86.5" y="20"/>
      <point x="-89" y="15"/>
      <point x="-89" y="11" type="curve" smooth="yes"/>
      <point x="-89" y="3"/>
      <point x="-82" y="0"/>
    </contour>
  </outline>
</glyph>
<glyph name="literSign" format="2">
  <advance width="400"/>
  <unicode hex="2113"/>
  <outline>
    <contour>
      <point x="192" y="-8" type="curve" smooth="yes"/>
      <point x="232" y="-8"/>
      <point x="318" y="-4"/>
      <point x="318" y="51" type="curve" smooth="yes"/>
      <point x="318" y="59"/>
      <point x="307" y="123"/>
      <point x="287" y="123" type="curve" smooth="yes"/>
      <point x="275" y="123"/>
      <point x="248" y="109"/>
      <point x="230" y="109" type="curve" smooth="yes"/>
      <point x="204" y="109"/>
      <point x="194" y="122"/>
      <point x="194" y="152" type="curve" smooth="yes"/>
      <point x="194" y="290" type="line"/>
      <point x="305" y="375"/>
      <point x="381" y="506"/>
      <point x="381" y="619" type="curve" smooth="yes"/>
      <point x="381" y="696"/>
      <point x="345" y="755"/>
      <point x="259" y="755" type="curve" smooth="yes"/>
      <point x="165" y="755"/>
      <point x="46" y="725"/>
      <point x="46" y="427" type="curve" smooth="yes"/>
      <point x="46" y="272" type="line"/>
      <point x="28" y="259"/>
      <point x="10" y="246"/>
      <point x="-8" y="234" type="curve" smooth="yes"/>
      <point x="-19" y="226.5"/>
      <point x="-24" y="215"/>
      <point x="-24" y="204" type="curve" smooth="yes"/>
      <point x="-24" y="197"/>
      <point x="-22" y="190"/>
      <point x="-19" y="185" type="curve" smooth="yes"/>
      <point x="-12.5" y="174"/>
      <point x="-4.5" y="166.5"/>
      <point x="6" y="166.5" type="curve" smooth="yes"/>
      <point x="11" y="166.5"/>
      <point x="16" y="168"/>
      <point x="22" y="172" type="curve" smooth="yes"/>
      <point x="46" y="188" type="line"/>
      <point x="46" y="154" type="line" smooth="yes"/>
      <point x="46" y="43"/>
      <point x="98" y="-8"/>
    </contour>
    <contour>
      <point x="195" y="381" type="curve"/>
      <point x="195" y="651"/>
      <point x="232" y="663"/>
      <point x="271" y="663" type="curve" smooth="yes"/>
      <point x="295" y="663"/>
      <point x="305" y="644"/>
      <point x="305" y="616" type="curve" smooth="yes"/>
      <point x="305" y="544"/>
      <point x="256" y="444"/>
    </contour>
  </outline>
</glyph>
<glyph name="onethird" format="2">
  <advance width="746"/>
  <unicode hex="2153"/>
  <outline>
    <contour>
      <point x="133" y="0" type="curve" smooth="yes"/>
      <point x="150" y="0" type="line" smooth="yes"/>
      <point x="170" y="0"/>
      <point x="184" y="7"/>
      <point x="195" y="26" type="curve" smooth="yes"/>
      <point x="554" y="674" type="line" smooth="yes"/>
      <point x="557.5" y="680"/>
      <point x="560" y="685"/>
      <point x="560" y="689" type="curve" smooth="yes"/>
      <point x="560" y="696"/>
      <point x="553" y="700"/>
      <point x="539" y="700" type="curve" smooth="yes"/>
      <point x="522" y="700" type="line" smooth="yes"/>
      <point x="502" y="700"/>
      <point x="487" y="692"/>
      <point x="477" y="674" type="curve" smooth="yes"/>
      <point x="118" y="26" type="line" smooth="yes"/>
      <point x="114.5" y="20"/>
      <point x="112" y="15"/>
      <point x="112" y="11" type="curve" smooth="yes"/>
      <point x="112" y="3"/>
      <point x="119" y="0"/>
    </contour>
    <component base="onesuperior"/>
    <component base="three" xScale="0.587" yScale="0.587" xOffset="420" yOffset="-2"/>
  </outline>
</glyph>
<glyph name="twothirds" format="2">
  <advance width="819"/>
  <unicode hex="2154"/>
  <outline>
    <contour>
      <point x="206" y="0" type="curve" smooth="yes"/>
      <point x="223" y="0" type="line" smooth="yes"/>
      <point x="243" y="0"/>
      <point x="257" y="7"/>
      <point x="268" y="26" type="curve" smooth="yes"/>
      <point x="627" y="674" type="line" smooth="yes"/>
      <point x="631" y="680"/>
      <point x="633" y="685"/>
      <point x="633" y="689" type="curve" smooth="yes"/>
      <point x="633" y="696"/>
      <point x="626" y="700"/>
      <point x="612" y="700" type="curve" smooth="yes"/>
      <point x="595" y="700" type="line" smooth="yes"/>
      <point x="575" y="700"/>
      <point x="560" y="692"/>
      <point x="550" y="674" type="curve" smooth="yes"/>
      <point x="191" y="26" type="line" smooth="yes"/>
      <point x="188" y="20"/>
      <point x="185" y="15"/>
      <point x="185" y="11" type="curve" smooth="yes"/>
      <point x="185" y="3"/>
      <point x="192" y="0"/>
    </contour>
    <component base="three" xScale="0.587" yScale="0.587" xOffset="493" yOffset="-2"/>
    <component base="two" xScale="0.584" yScale="0.584" xOffset="-3" yOffset="293"/>
  </outline>
</glyph>
<glyph name="product" format="2">
  <advance width="750"/>
  <unicode hex="220F"/>
  <outline>
    <contour>
      <point x="187" y="-104" type="curve" smooth="yes"/>
      <point x="211" y="-104" type="line" smooth="yes"/>
      <point x="253" y="-104"/>
      <point x="271" y="-93"/>
      <point x="271" y="-72" type="curve" smooth="yes"/>
      <point x="271" y="570" type="line"/>
      <point x="477" y="570" type="line"/>
      <point x="477" y="-72" type="line" smooth="yes"/>
      <point x="477" y="-93"/>
      <point x="495" y="-104"/>
      <point x="537" y="-104" type="curve" smooth="yes"/>
      <point x="561" y="-104" type="line" smooth="yes"/>
      <point x="603" y="-104"/>
      <point x="621" y="-93"/>
      <point x="621" y="-72" type="curve" smooth="yes"/>
      <point x="621" y="570" type="line"/>
      <point x="705" y="570" type="line" smooth="yes"/>
      <point x="726" y="570"/>
      <point x="735" y="585"/>
      <point x="735" y="620" type="curve" smooth="yes"/>
      <point x="735" y="650" type="line" smooth="yes"/>
      <point x="735" y="685"/>
      <point x="726" y="700"/>
      <point x="705" y="700" type="curve" smooth="yes"/>
      <point x="46" y="700" type="line" smooth="yes"/>
      <point x="25" y="700"/>
      <point x="16" y="685"/>
      <point x="16" y="650" type="curve" smooth="yes"/>
      <point x="16" y="620" type="line" smooth="yes"/>
      <point x="16" y="585"/>
      <point x="25" y="570"/>
      <point x="46" y="570" type="curve" smooth="yes"/>
      <point x="127" y="570" type="line"/>
      <point x="127" y="-72" type="line" smooth="yes"/>
      <point x="127" y="-93"/>
      <point x="145" y="-104"/>
    </contour>
  </outline>
</glyph>
<glyph name="minus" format="2">
  <advance width="560"/>
  <unicode hex="2212"/>
  <outline>
    <contour>
      <point x="58" y="172" type="curve"/>
      <point x="502" y="172" type="line" smooth="yes"/>
      <point x="523" y="172"/>
      <point x="532" y="187"/>
      <point x="532" y="222" type="curve" smooth="yes"/>
      <point x="532" y="229" type="line" smooth="yes"/>
      <point x="532" y="264"/>
      <point x="523" y="279"/>
      <point x="502" y="279" type="curve" smooth="yes"/>
      <point x="58" y="279" type="line" smooth="yes"/>
      <point x="37" y="279"/>
      <point x="28" y="264"/>
      <point x="28" y="229" type="curve" smooth="yes"/>
      <point x="28" y="222" type="line" smooth="yes"/>
      <point x="28" y="187"/>
      <point x="37" y="172"/>
    </contour>
  </outline>
</glyph>
<glyph name="bulletoperator" format="2">
  <advance width="283"/>
  <unicode hex="2219"/>
  <outline>
    <contour>
      <point x="141" y="289" type="curve" smooth="yes"/>
      <point x="180" y="289"/>
      <point x="211" y="320"/>
      <point x="211" y="359" type="curve" smooth="yes"/>
      <point x="211" y="398"/>
      <point x="180" y="429"/>
      <point x="141" y="429" type="curve" smooth="yes"/>
      <point x="102" y="429"/>
      <point x="71" y="398"/>
      <point x="71" y="359" type="curve" smooth="yes"/>
      <point x="71" y="320"/>
      <point x="102" y="289"/>
    </contour>
  </outline>
</glyph>
<glyph name="integral" format="2">
  <advance width="372"/>
  <unicode hex="222B"/>
  <outline>
    <contour>
      <point x="84" y="-171" type="curve" smooth="yes"/>
      <point x="199" y="-171"/>
      <point x="260" y="-82"/>
      <point x="260" y="86" type="curve" smooth="yes"/>
      <point x="260" y="270"/>
      <point x="246" y="437"/>
      <point x="246" y="605" type="curve" smooth="yes"/>
      <point x="246" y="723"/>
      <point x="264" y="768"/>
      <point x="312" y="768" type="curve" smooth="yes"/>
      <point x="335" y="768"/>
      <point x="346" y="760"/>
      <point x="354" y="760" type="curve" smooth="yes"/>
      <point x="371" y="760"/>
      <point x="387" y="794"/>
      <point x="387" y="830" type="curve" smooth="yes"/>
      <point x="387" y="877"/>
      <point x="316" y="884"/>
      <point x="288" y="884" type="curve" smooth="yes"/>
      <point x="173" y="884"/>
      <point x="112" y="795"/>
      <point x="112" y="627" type="curve" smooth="yes"/>
      <point x="112" y="436"/>
      <point x="126" y="272"/>
      <point x="126" y="108" type="curve" smooth="yes"/>
      <point x="126" y="-10"/>
      <point x="108" y="-55"/>
      <point x="60" y="-55" type="curve" smooth="yes"/>
      <point x="37" y="-55"/>
      <point x="26" y="-47"/>
      <point x="18" y="-47" type="curve" smooth="yes"/>
      <point x="1" y="-47"/>
      <point x="-15" y="-81"/>
      <point x="-15" y="-117" type="curve" smooth="yes"/>
      <point x="-15" y="-164"/>
      <point x="56" y="-171"/>
    </contour>
  </outline>
</glyph>
<glyph name="approxequal" format="2">
  <advance width="547"/>
  <unicode hex="2248"/>
  <outline>
    <contour>
      <point x="107" y="275" type="curve" smooth="yes"/>
      <point x="115" y="275"/>
      <point x="122.5" y="279"/>
      <point x="132.5" y="292" type="curve" smooth="yes"/>
      <point x="147" y="311"/>
      <point x="168.5" y="308"/>
      <point x="182.5" y="308" type="curve" smooth="yes"/>
      <point x="226.5" y="308"/>
      <point x="323.5" y="279"/>
      <point x="368.5" y="279" type="curve" smooth="yes"/>
      <point x="432.5" y="279"/>
      <point x="475.5" y="313"/>
      <point x="489.5" y="354" type="curve" smooth="yes"/>
      <point x="491" y="358"/>
      <point x="492" y="362.5"/>
      <point x="492" y="366.5" type="curve" smooth="yes"/>
      <point x="492" y="376"/>
      <point x="486.5" y="385"/>
      <point x="469.5" y="390" type="curve" smooth="yes"/>
      <point x="459.5" y="393" type="line" smooth="yes"/>
      <point x="455.5" y="394.5"/>
      <point x="451.5" y="395"/>
      <point x="448" y="395" type="curve" smooth="yes"/>
      <point x="440" y="395"/>
      <point x="432.5" y="391"/>
      <point x="422.5" y="378" type="curve" smooth="yes"/>
      <point x="408" y="359"/>
      <point x="386.5" y="362"/>
      <point x="372.5" y="362" type="curve" smooth="yes"/>
      <point x="328.5" y="362"/>
      <point x="231.5" y="391"/>
      <point x="186.5" y="391" type="curve" smooth="yes"/>
      <point x="122.5" y="391"/>
      <point x="79.5" y="357"/>
      <point x="65.5" y="316" type="curve" smooth="yes"/>
      <point x="64" y="312"/>
      <point x="63" y="307.5"/>
      <point x="63" y="303.5" type="curve" smooth="yes"/>
      <point x="63" y="294"/>
      <point x="68.5" y="285"/>
      <point x="85.5" y="280" type="curve" smooth="yes"/>
      <point x="95.5" y="277" type="line" smooth="yes"/>
      <point x="99.5" y="275.5"/>
      <point x="103.5" y="275"/>
    </contour>
    <contour>
      <point x="107" y="85" type="curve" smooth="yes"/>
      <point x="115" y="85"/>
      <point x="122.5" y="89"/>
      <point x="132.5" y="102" type="curve" smooth="yes"/>
      <point x="147" y="121"/>
      <point x="168.5" y="118"/>
      <point x="182.5" y="118" type="curve" smooth="yes"/>
      <point x="226.5" y="118"/>
      <point x="323.5" y="89"/>
      <point x="368.5" y="89" type="curve" smooth="yes"/>
      <point x="432.5" y="89"/>
      <point x="475.5" y="123"/>
      <point x="489.5" y="164" type="curve" smooth="yes"/>
      <point x="491" y="168"/>
      <point x="492" y="172.5"/>
      <point x="492" y="176.5" type="curve" smooth="yes"/>
      <point x="492" y="186"/>
      <point x="486.5" y="195"/>
      <point x="469.5" y="200" type="curve" smooth="yes"/>
      <point x="459.5" y="203" type="line" smooth="yes"/>
      <point x="455.5" y="204.5"/>
      <point x="451.5" y="205"/>
      <point x="448" y="205" type="curve" smooth="yes"/>
      <point x="440" y="205"/>
      <point x="432.5" y="201"/>
      <point x="422.5" y="188" type="curve" smooth="yes"/>
      <point x="408" y="169"/>
      <point x="386.5" y="172"/>
      <point x="372.5" y="172" type="curve" smooth="yes"/>
      <point x="328.5" y="172"/>
      <point x="231.5" y="201"/>
      <point x="186.5" y="201" type="curve" smooth="yes"/>
      <point x="122.5" y="201"/>
      <point x="79.5" y="167"/>
      <point x="65.5" y="126" type="curve" smooth="yes"/>
      <point x="64" y="122"/>
      <point x="63" y="117.5"/>
      <point x="63" y="113.5" type="curve" smooth="yes"/>
      <point x="63" y="104"/>
      <point x="68.5" y="95"/>
      <point x="85.5" y="90" type="curve" smooth="yes"/>
      <point x="95.5" y="87" type="line" smooth="yes"/>
      <point x="99.5" y="85.5"/>
      <point x="103.5" y="85"/>
    </contour>
  </outline>
</glyph>
<glyph name="notequal" format="2">
  <advance width="560"/>
  <unicode hex="2260"/>
  <outline>
    <contour>
      <point x="103" y="6" type="curve" smooth="yes"/>
      <point x="128" y="6" type="line" smooth="yes"/>
      <point x="160" y="6"/>
      <point x="180" y="12"/>
      <point x="196" y="32" type="curve" smooth="yes"/>
      <point x="493" y="411" type="line" smooth="yes"/>
      <point x="498" y="417"/>
      <point x="500" y="421"/>
      <point x="500" y="425" type="curve" smooth="yes"/>
      <point x="500" y="431"/>
      <point x="488" y="436"/>
      <point x="461" y="436" type="curve" smooth="yes"/>
      <point x="436" y="436" type="line" smooth="yes"/>
      <point x="404" y="436"/>
      <point x="384" y="430"/>
      <point x="368" y="410" type="curve" smooth="yes"/>
      <point x="72" y="32" type="line" smooth="yes"/>
      <point x="66" y="25"/>
      <point x="64" y="20"/>
      <point x="64" y="17" type="curve" smooth="yes"/>
      <point x="64" y="11"/>
      <point x="76" y="6"/>
    </contour>
    <component base="equal"/>
  </outline>
</glyph>
<glyph name="fi" format="2">
  <advance width="563"/>
  <unicode hex="FB01"/>
  <anchor x="431" y="0" name="bottom"/>
  <anchor x="290" y="0" name="caret_1"/>
  <anchor x="433" y="6" name="ogonek"/>
  <anchor x="431.46" y="732.0" name="top"/>
  <outline>
    <contour>
      <point x="196" y="406" type="line"/>
      <point x="393" y="406" type="line"/>
      <point x="427" y="523" type="line"/>
      <point x="196" y="523" type="line"/>
    </contour>
    <contour>
      <point x="417" y="-2" type="curve" smooth="yes"/>
      <point x="445" y="-2" type="line" smooth="yes"/>
      <point x="487" y="-2"/>
      <point x="505" y="9"/>
      <point x="505" y="30" type="curve" smooth="yes"/>
      <point x="505" y="491" type="line" smooth="yes"/>
      <point x="505" y="512"/>
      <point x="487" y="523"/>
      <point x="445" y="523" type="curve" smooth="yes"/>
      <point x="417" y="523" type="line" smooth="yes"/>
      <point x="375" y="523"/>
      <point x="357" y="512"/>
      <point x="357" y="491" type="curve" smooth="yes"/>
      <point x="357" y="30" type="line" smooth="yes"/>
      <point x="357" y="9"/>
      <point x="375" y="-2"/>
    </contour>
    <component base="f"/>
    <component base="dotaccentcomb" xScale="1.23" yScale="1.18" xOffset="429" yOffset="-94"/>
  </outline>
</glyph>
<glyph name="Y.loclGUA" format="2">
  <advance width="559"/>
  <anchor x="268" y="0" name="bottom"/>
  <anchor x="268" y="700" name="top"/>
  <outline>
    <contour>
      <point x="248" y="-9" type="curve" smooth="yes"/>
      <point x="433" y="-9"/>
      <point x="510" y="83"/>
      <point x="510" y="273" type="curve" smooth="yes"/>
      <point x="510" y="669" type="line" smooth="yes"/>
      <point x="510" y="690"/>
      <point x="492" y="701"/>
      <point x="450" y="701" type="curve" smooth="yes"/>
      <point x="422" y="701" type="line" smooth="yes"/>
      <point x="380" y="701"/>
      <point x="362" y="690"/>
      <point x="362" y="669" type="curve" smooth="yes"/>
      <point x="362" y="388" type="line"/>
      <point x="345" y="361"/>
      <point x="318" y="330"/>
      <point x="271" y="330" type="curve" smooth="yes"/>
      <point x="217" y="330"/>
      <point x="197" y="350"/>
      <point x="197" y="406" type="curve" smooth="yes"/>
      <point x="197" y="669" type="line" smooth="yes"/>
      <point x="197" y="690"/>
      <point x="179" y="701"/>
      <point x="137" y="701" type="curve" smooth="yes"/>
      <point x="109" y="701" type="line" smooth="yes"/>
      <point x="67" y="701"/>
      <point x="49" y="690"/>
      <point x="49" y="669" type="curve" smooth="yes"/>
      <point x="49" y="378" type="line" smooth="yes"/>
      <point x="49" y="265"/>
      <point x="98" y="208"/>
      <point x="215" y="208" type="curve" smooth="yes"/>
      <point x="294" y="208"/>
      <point x="356" y="249"/>
      <point x="382" y="303" type="curve"/>
      <point x="362" y="341" type="line"/>
      <point x="362" y="219" type="line" smooth="yes"/>
      <point x="362" y="145"/>
      <point x="316" y="108"/>
      <point x="220" y="108" type="curve" smooth="yes"/>
      <point x="137" y="108"/>
      <point x="84" y="148"/>
      <point x="71" y="148" type="curve" smooth="yes"/>
      <point x="62" y="148"/>
      <point x="52" y="137"/>
      <point x="52" y="110" type="curve" smooth="yes"/>
      <point x="52" y="99"/>
      <point x="53" y="79"/>
      <point x="55" y="62" type="curve" smooth="yes"/>
      <point x="60" y="19"/>
      <point x="151" y="-9"/>
    </contour>
  </outline>
</glyph>
<glyph name="acute.alt" format="2">
  <advance width="320"/>
  <anchor x="124" y="523" name="_top"/>
  <outline>
    <contour>
      <point x="85" y="575" type="curve" smooth="yes"/>
      <point x="132" y="575"/>
      <point x="149" y="588"/>
      <point x="160" y="600" type="curve" smooth="yes"/>
      <point x="257" y="706"/>
      <point x="264" y="708"/>
      <point x="264" y="720" type="curve" smooth="yes"/>
      <point x="264" y="731"/>
      <point x="244" y="734"/>
      <point x="204" y="734" type="curve" smooth="yes"/>
      <point x="164" y="734"/>
      <point x="131" y="728"/>
      <point x="119" y="707" type="curve" smooth="yes"/>
      <point x="73" y="626"/>
      <point x="54" y="601"/>
      <point x="54" y="590" type="curve" smooth="yes"/>
      <point x="54" y="579"/>
      <point x="61" y="575"/>
    </contour>
  </outline>
</glyph>
<glyph name="baraccentmedium" format="2">
  <advance width="417"/>
  <anchor x="205" y="317" name="_center"/>
  <outline>
    <contour>
      <point x="31" y="270" type="curve"/>
      <point x="386" y="270" type="line" smooth="yes"/>
      <point x="407" y="270"/>
      <point x="416" y="282"/>
      <point x="416" y="310" type="curve" smooth="yes"/>
      <point x="416" y="325" type="line" smooth="yes"/>
      <point x="416" y="353"/>
      <point x="407" y="365"/>
      <point x="386" y="365" type="curve" smooth="yes"/>
      <point x="31" y="365" type="line" smooth="yes"/>
      <point x="10" y="365"/>
      <point x="1" y="353"/>
      <point x="1" y="325" type="curve" smooth="yes"/>
      <point x="1" y="310" type="line" smooth="yes"/>
      <point x="1" y="282"/>
      <point x="10" y="270"/>
    </contour>
  </outline>
</glyph>
<glyph name="breve.alt" format="2">
  <advance width="320"/>
  <anchor x="158" y="523" name="_top"/>
  <anchor x="153" y="776" name="tilde"/>
  <anchor x="158" y="686" name="top"/>
  <outline>
    <contour>
      <point x="158" y="575" type="curve" smooth="yes"/>
      <point x="245" y="575"/>
      <point x="305" y="630"/>
      <point x="305" y="687" type="curve" smooth="yes"/>
      <point x="305" y="705"/>
      <point x="292" y="715"/>
      <point x="270" y="715" type="curve" smooth="yes"/>
      <point x="254" y="715"/>
      <point x="247" y="708"/>
      <point x="239" y="699" type="curve" smooth="yes"/>
      <point x="226.5" y="685"/>
      <point x="212" y="666"/>
      <point x="158" y="666" type="curve" smooth="yes"/>
      <point x="107" y="666"/>
      <point x="92" y="683"/>
      <point x="79" y="697" type="curve" smooth="yes"/>
      <point x="70" y="707"/>
      <point x="63" y="715"/>
      <point x="46" y="715" type="curve" smooth="yes"/>
      <point x="24" y="715"/>
      <point x="11" y="705"/>
      <point x="11" y="687" type="curve" smooth="yes"/>
      <point x="11" y="630"/>
      <point x="71" y="575"/>
    </contour>
  </outline>
</glyph>
<glyph name="caron.alt" format="2">
  <advance width="320"/>
  <anchor x="0" y="700" name="_caron"/>
  <outline>
    <contour>
      <point x="75" y="511" type="curve" smooth="yes"/>
      <point x="101" y="513"/>
      <point x="153" y="589"/>
      <point x="153" y="656" type="curve" smooth="yes"/>
      <point x="153" y="681"/>
      <point x="138" y="700"/>
      <point x="103" y="700" type="curve" smooth="yes"/>
      <point x="84" y="700" type="line" smooth="yes"/>
      <point x="49" y="700"/>
      <point x="34" y="683"/>
      <point x="34" y="656" type="curve" smooth="yes"/>
      <point x="34" y="621"/>
      <point x="30" y="584"/>
      <point x="30" y="533" type="curve" smooth="yes"/>
      <point x="30" y="517"/>
      <point x="57" y="511"/>
    </contour>
  </outline>
</glyph>
<glyph name="circumflex.alt" format="2">
  <advance width="320"/>
  <anchor x="156.5" y="523" name="_top"/>
  <anchor x="325" y="636" name="top"/>
  <anchor x="160" y="716" name="top2"/>
  <outline>
    <contour>
      <point x="39" y="572" type="curve"/>
      <point x="61" y="572" type="line" smooth="yes"/>
      <point x="90" y="572"/>
      <point x="113" y="576"/>
      <point x="128" y="597" type="curve" smooth="yes"/>
      <point x="156" y="636" type="line"/>
      <point x="184" y="596" type="line" smooth="yes"/>
      <point x="197" y="577"/>
      <point x="223" y="572"/>
      <point x="252" y="572" type="curve" smooth="yes"/>
      <point x="274" y="572" type="line" smooth="yes"/>
      <point x="287" y="572"/>
      <point x="294" y="575"/>
      <point x="294" y="582" type="curve" smooth="yes"/>
      <point x="294" y="586"/>
      <point x="292" y="591"/>
      <point x="288" y="597" type="curve" smooth="yes"/>
      <point x="223" y="699" type="line" smooth="yes"/>
      <point x="212" y="717"/>
      <point x="191" y="718"/>
      <point x="162" y="718" type="curve" smooth="yes"/>
      <point x="151" y="718" type="line" smooth="yes"/>
      <point x="122" y="718"/>
      <point x="101" y="717"/>
      <point x="90" y="699" type="curve" smooth="yes"/>
      <point x="25" y="597" type="line" smooth="yes"/>
      <point x="21" y="591"/>
      <point x="19" y="586"/>
      <point x="19" y="582" type="curve" smooth="yes"/>
      <point x="19" y="575"/>
      <point x="25" y="572"/>
    </contour>
  </outline>
</glyph>
<glyph name="f_f" format="2">
  <advance width="650"/>
  <anchor x="163" y="700" name="top_1"/>
  <anchor x="488" y="700" name="top_2"/>
  <anchor x="163" y="0" name="bottom_1"/>
  <anchor x="488" y="0" name="bottom_2"/>
  <outline>
    <contour>
      <point x="279" y="523" type="line"/>
      <point x="279" y="406" type="line"/>
      <point x="382" y="406" type="line"/>
      <point x="382" y="523" type="line"/>
    </contour>
    <component base="f"/>
    <component base="f" xOffset="325"/>
  </outline>
</glyph>
